<?xml version="1.0" encoding="UTF-8"?><svg id="Layer_2" xmlns="http://www.w3.org/2000/svg" viewBox="0 0 1643.02 747.19"><defs><style>.cls-1{opacity:.3;}.cls-2{fill:#309a52;}.cls-2,.cls-3,.cls-4{stroke-width:0px;}.cls-3{fill:#32a749;}.cls-4{fill:#004730;}</style></defs><g id="Layer_2-2"><g id="Layer_4"><g class="cls-1"><polygon class="cls-4" points="671.3 515.45 771.64 573.39 793.79 560.6 693.45 502.66 671.3 515.45"/><polygon class="cls-3" points="650.56 388.39 600.72 417.16 620.79 428.75 670.62 399.97 650.56 388.39"/><polygon class="cls-4" points="721.81 602.16 822.15 660.09 844.3 647.3 743.96 589.37 721.81 602.16"/><polygon class="cls-3" points="570.28 342.04 620.12 313.27 600.05 301.68 550.21 330.45 570.28 342.04"/><polygon class="cls-4" points="620.79 428.75 721.13 486.68 743.28 473.89 642.94 415.96 620.79 428.75"/><polygon class="cls-2" points="751.57 561.8 701.74 590.57 721.81 602.16 771.64 573.39 751.57 561.8"/><polygon class="cls-4" points="570.28 342.04 670.62 399.97 692.77 387.19 592.43 329.25 570.28 342.04"/><polygon class="cls-2" points="701.06 475.09 651.23 503.87 671.3 515.45 721.13 486.68 701.06 475.09"/><polygon class="cls-4" points="992.46 330.03 1092.81 387.96 1070.66 400.75 970.31 342.82 992.46 330.03"/><polygon class="cls-3" points="772.38 318.05 822.21 289.28 842.28 300.87 792.45 329.64 772.38 318.05"/><polygon class="cls-4" points="1142.64 359.19 1242.99 417.12 1220.84 429.91 1120.49 371.98 1142.64 359.19"/><polygon class="cls-3" points="692.1 271.71 642.27 300.48 622.2 288.89 672.03 260.12 692.1 271.71"/><polygon class="cls-4" points="842.28 300.87 942.63 358.8 920.48 371.59 820.13 313.66 842.28 300.87"/><polygon class="cls-2" points="1072.74 376.38 1122.57 347.6 1142.64 359.19 1092.81 387.96 1072.74 376.38"/><polygon class="cls-4" points="692.1 271.71 792.45 329.64 770.3 342.43 669.95 284.49 692.1 271.71"/><polygon class="cls-4" points="541.92 242.55 642.27 300.48 620.12 313.27 519.77 255.33 541.92 242.55"/><polygon class="cls-2" points="922.56 347.21 972.39 318.44 992.46 330.03 942.63 358.8 922.56 347.21"/><polygon class="cls-4" points="470.61 399.58 570.95 457.52 593.1 444.73 492.76 386.8 470.61 399.58"/><polygon class="cls-3" points="449.87 272.52 400.03 301.29 420.1 312.88 469.94 284.11 449.87 272.52"/><polygon class="cls-4" points="521.12 486.29 621.46 544.22 643.61 531.44 543.27 473.5 521.12 486.29"/><polygon class="cls-3" points="369.59 226.17 419.43 197.4 399.36 185.81 349.52 214.58 369.59 226.17"/><polygon class="cls-4" points="420.1 312.88 520.44 370.81 542.59 358.02 442.25 300.09 420.1 312.88"/><polygon class="cls-2" points="550.88 445.93 501.05 474.7 521.12 486.29 570.95 457.52 550.88 445.93"/><polygon class="cls-4" points="369.59 226.17 469.94 284.11 492.09 271.32 391.74 213.38 369.59 226.17"/><polygon class="cls-2" points="500.38 359.23 450.54 388 470.61 399.58 520.44 370.81 500.38 359.23"/><polygon class="cls-4" points="791.77 214.16 892.12 272.09 869.97 284.88 769.62 226.95 791.77 214.16"/><polygon class="cls-3" points="571.69 202.19 621.52 173.41 641.59 185 591.76 213.77 571.69 202.19"/><polygon class="cls-4" points="941.95 243.32 1042.3 301.26 1020.15 314.04 919.8 256.11 941.95 243.32"/><polygon class="cls-3" points="491.41 155.84 441.58 184.61 421.51 173.02 471.34 144.25 491.41 155.84"/><polygon class="cls-4" points="641.59 185 741.94 242.93 719.79 255.72 619.44 197.79 641.59 185"/><polygon class="cls-2" points="872.05 260.51 921.88 231.74 941.95 243.32 892.12 272.09 872.05 260.51"/><polygon class="cls-4" points="491.41 155.84 591.76 213.77 569.61 226.56 469.26 168.63 491.41 155.84"/><polygon class="cls-4" points="341.23 126.68 441.58 184.61 419.43 197.4 319.08 139.47 341.23 126.68"/><polygon class="cls-2" points="721.87 231.35 771.7 202.57 791.77 214.16 741.94 242.93 721.87 231.35"/><polygon class="cls-4" points="269.92 283.72 370.26 341.65 392.41 328.86 292.07 270.93 269.92 283.72"/><polygon class="cls-3" points="249.18 156.65 199.34 185.42 219.41 197.01 269.25 168.24 249.18 156.65"/><polygon class="cls-4" points="320.43 370.42 420.77 428.36 442.92 415.57 342.58 357.64 320.43 370.42"/><polygon class="cls-4" points="219.41 197.01 319.76 254.94 341.91 242.16 241.56 184.22 219.41 197.01"/><polygon class="cls-2" points="350.2 330.06 300.36 358.84 320.43 370.42 370.26 341.65 350.2 330.06"/><polygon class="cls-2" points="299.69 243.36 249.85 272.13 269.92 283.72 319.76 254.94 299.69 243.36"/><polygon class="cls-4" points="591.08 98.29 691.43 156.23 669.28 169.01 568.93 111.08 591.08 98.29"/><polygon class="cls-3" points="371 86.32 420.83 57.55 440.9 69.13 391.07 97.9 371 86.32"/><polygon class="cls-4" points="741.26 127.45 841.61 185.39 819.46 198.18 719.11 140.24 741.26 127.45"/><polygon class="cls-4" points="440.9 69.13 541.25 127.07 519.1 139.85 418.75 81.92 440.9 69.13"/><polygon class="cls-2" points="671.36 144.64 721.19 115.87 741.26 127.45 691.43 156.23 671.36 144.64"/><polygon class="cls-2" points="521.18 115.48 571.01 86.71 591.08 98.29 541.25 127.07 521.18 115.48"/><polygon class="cls-4" points="119.74 254.56 220.08 312.49 242.23 299.7 141.89 241.77 119.74 254.56"/><polygon class="cls-2" points="149.51 214.2 99.67 242.97 119.74 254.56 169.58 225.78 149.51 214.2"/><polygon class="cls-4" points="540.58 11.59 640.92 69.52 618.77 82.31 518.43 24.37 540.58 11.59"/><polygon class="cls-2" points="470.67 28.77 520.51 0 540.58 11.59 490.74 40.36 470.67 28.77"/><polygon class="cls-3" points="851.24 504.25 801.41 533.03 821.48 544.61 871.31 515.84 851.24 504.25"/><polygon class="cls-3" points="770.97 457.91 820.8 429.13 800.74 417.55 750.9 446.32 770.97 457.91"/><polygon class="cls-4" points="821.48 544.61 921.82 602.55 943.97 589.76 843.63 531.83 821.48 544.61"/><polygon class="cls-4" points="770.97 457.91 871.31 515.84 893.46 503.05 793.12 445.12 770.97 457.91"/><polygon class="cls-3" points="973.06 433.92 1022.9 405.15 1042.97 416.73 993.13 445.51 973.06 433.92"/><polygon class="cls-3" points="892.79 387.57 842.95 416.35 822.88 404.76 872.72 375.99 892.79 387.57"/><polygon class="cls-4" points="1042.97 416.73 1143.31 474.67 1121.16 487.46 1020.82 429.52 1042.97 416.73"/><polygon class="cls-4" points="892.79 387.57 993.13 445.51 970.98 458.3 870.64 400.36 892.79 387.57"/><polygon class="cls-4" points="742.61 358.41 842.95 416.35 820.8 429.13 720.46 371.2 742.61 358.41"/><polygon class="cls-4" points="943.3 474.28 1043.64 532.21 1021.49 545 921.15 487.07 943.3 474.28"/></g><g class="cls-1"><polygon class="cls-4" points="1191.8 214.94 1292.15 272.87 1270 285.66 1169.65 227.73 1191.8 214.94"/><polygon class="cls-3" points="971.72 202.96 1021.55 174.19 1041.62 185.78 991.79 214.55 971.72 202.96"/><polygon class="cls-4" points="1341.98 244.1 1442.33 302.03 1420.18 314.82 1319.83 256.89 1341.98 244.1"/><polygon class="cls-3" points="891.44 156.62 841.61 185.39 821.54 173.8 871.37 145.03 891.44 156.62"/><polygon class="cls-4" points="1041.62 185.78 1141.97 243.71 1119.82 256.5 1019.47 198.56 1041.62 185.78"/><polygon class="cls-2" points="1272.08 261.28 1321.91 232.51 1341.98 244.1 1292.15 272.87 1272.08 261.28"/><polygon class="cls-4" points="891.44 156.62 991.79 214.55 969.64 227.34 869.29 169.4 891.44 156.62"/><polygon class="cls-2" points="1121.9 232.12 1171.73 203.35 1191.8 214.94 1141.97 243.71 1121.9 232.12"/><polygon class="cls-4" points="991.12 99.07 1091.46 157 1069.31 169.79 968.97 111.86 991.12 99.07"/><polygon class="cls-3" points="771.03 87.09 820.87 58.32 840.94 69.91 791.1 98.68 771.03 87.09"/><polygon class="cls-4" points="1141.3 128.23 1241.64 186.17 1219.49 198.95 1119.15 141.02 1141.3 128.23"/><polygon class="cls-3" points="690.76 40.75 640.92 69.52 620.85 57.93 670.69 29.16 690.76 40.75"/><polygon class="cls-4" points="840.94 69.91 941.28 127.84 919.13 140.63 818.79 82.7 840.94 69.91"/><polygon class="cls-2" points="1071.39 145.42 1121.23 116.64 1141.3 128.23 1091.46 157 1071.39 145.42"/><polygon class="cls-4" points="690.76 40.75 791.1 98.68 768.95 111.47 668.61 53.54 690.76 40.75"/><polygon class="cls-2" points="921.21 116.26 971.05 87.48 991.12 99.07 941.28 127.84 921.21 116.26"/><polygon class="cls-4" points="940.61 12.36 1040.95 70.3 1018.8 83.09 918.46 25.15 940.61 12.36"/><polygon class="cls-2" points="870.7 29.55 920.54 .78 940.61 12.36 890.77 41.14 870.7 29.55"/><polygon class="cls-3" points="1172.41 318.83 1222.24 290.06 1242.31 301.64 1192.48 330.42 1172.41 318.83"/><polygon class="cls-3" points="1092.13 272.48 1042.3 301.26 1022.23 289.67 1072.06 260.9 1092.13 272.48"/><polygon class="cls-4" points="1242.31 301.64 1342.66 359.58 1320.51 372.37 1220.16 314.43 1242.31 301.64"/><polygon class="cls-4" points="1092.13 272.48 1192.48 330.42 1170.33 343.2 1069.98 285.27 1092.13 272.48"/><polygon class="cls-4" points="1291.48 157.39 1391.82 215.33 1369.67 228.11 1269.33 170.18 1291.48 157.39"/><polygon class="cls-4" points="1441.66 186.55 1542 244.49 1519.85 257.28 1419.51 199.34 1441.66 186.55"/><polygon class="cls-2" points="1371.75 203.74 1421.59 174.97 1441.66 186.55 1391.82 215.33 1371.75 203.74"/><polygon class="cls-2" points="1221.57 174.58 1271.41 145.81 1291.48 157.39 1241.64 186.17 1221.57 174.58"/><polygon class="cls-4" points="1090.79 41.52 1191.13 99.46 1168.98 112.25 1068.64 54.31 1090.79 41.52"/><polygon class="cls-4" points="1240.97 70.69 1341.31 128.62 1319.16 141.41 1218.82 83.47 1240.97 70.69"/><polygon class="cls-2" points="1171.06 87.87 1220.9 59.1 1240.97 70.69 1191.13 99.46 1171.06 87.87"/><polygon class="cls-2" points="1020.88 58.71 1070.72 29.94 1090.79 41.52 1040.95 70.3 1020.88 58.71"/></g><g class="cls-1"><polygon class="cls-3" points="451.21 503.48 401.38 532.25 421.45 543.84 471.28 515.06 451.21 503.48"/><polygon class="cls-3" points="370.94 457.13 420.77 428.36 400.7 416.77 350.87 445.54 370.94 457.13"/><polygon class="cls-4" points="421.45 543.84 521.79 601.77 543.94 588.98 443.6 531.05 421.45 543.84"/><polygon class="cls-4" points="370.94 457.13 471.28 515.06 493.43 502.28 393.09 444.34 370.94 457.13"/><polygon class="cls-2" points="501.72 590.18 451.89 618.96 471.95 630.54 521.79 601.77 501.72 590.18"/><polygon class="cls-4" points="271.27 514.68 371.61 572.61 393.76 559.82 293.42 501.89 271.27 514.68"/><polygon class="cls-3" points="250.52 387.61 200.69 416.38 220.76 427.97 270.59 399.2 250.52 387.61"/><polygon class="cls-4" points="321.77 601.38 422.12 659.32 444.27 646.53 343.92 588.59 321.77 601.38"/><polygon class="cls-3" points="170.25 341.26 220.08 312.49 200.02 300.9 150.18 329.68 170.25 341.26"/><polygon class="cls-4" points="220.76 427.97 321.1 485.9 343.25 473.11 242.91 415.18 220.76 427.97"/><polygon class="cls-2" points="351.54 561.02 301.71 589.8 321.77 601.38 371.61 572.61 351.54 561.02"/><polygon class="cls-4" points="170.25 341.26 270.59 399.2 292.74 386.41 192.4 328.47 170.25 341.26"/><polygon class="cls-2" points="301.03 474.32 251.2 503.09 271.27 514.68 321.1 485.9 301.03 474.32"/><polygon class="cls-4" points="70.58 398.81 170.92 456.74 193.07 443.95 92.73 386.02 70.58 398.81"/><polygon class="cls-3" points="49.84 271.74 0 300.51 20.07 312.1 69.9 283.33 49.84 271.74"/><polygon class="cls-4" points="121.09 485.51 221.43 543.45 243.58 530.66 143.24 472.73 121.09 485.51"/><polygon class="cls-4" points="20.07 312.1 120.41 370.04 142.56 357.25 42.22 299.31 20.07 312.1"/><polygon class="cls-2" points="150.85 445.15 101.02 473.93 121.09 485.51 170.92 456.74 150.85 445.15"/><polygon class="cls-2" points="100.34 358.45 50.51 387.22 70.58 398.81 120.41 370.04 100.34 358.45"/><polygon class="cls-3" points="651.9 619.34 602.07 648.12 622.13 659.7 671.97 630.93 651.9 619.34"/><polygon class="cls-3" points="571.63 573 621.46 544.22 601.39 532.64 551.56 561.41 571.63 573"/><polygon class="cls-4" points="571.63 573 671.97 630.93 694.12 618.14 593.78 560.21 571.63 573"/><polygon class="cls-4" points="171.59 572.22 271.94 630.15 294.09 617.37 193.74 559.43 171.59 572.22"/><polygon class="cls-2" points="251.87 618.57 202.03 647.34 222.1 658.93 271.94 630.15 251.87 618.57"/><polygon class="cls-2" points="201.36 531.86 151.53 560.63 171.59 572.22 221.43 543.45 201.36 531.86"/><polygon class="cls-4" points="21.41 543.06 121.76 600.99 143.91 588.21 43.56 530.27 21.41 543.06"/><polygon class="cls-2" points="51.18 502.7 1.35 531.47 21.41 543.06 71.25 514.29 51.18 502.7"/></g><g class="cls-1"><polygon class="cls-3" points="1294.17 619.31 1244.33 648.08 1224.26 636.49 1274.1 607.72 1294.17 619.31"/><polygon class="cls-4" points="1143.99 590.15 1244.33 648.08 1222.18 660.87 1121.84 602.94 1143.99 590.15"/><polygon class="cls-3" points="1051.93 620.12 1002.1 648.89 1022.17 660.48 1072 631.71 1051.93 620.12"/><polygon class="cls-3" points="971.66 573.77 1021.49 545 1001.42 533.42 951.59 562.19 971.66 573.77"/><polygon class="cls-4" points="971.66 573.77 1072 631.71 1094.15 618.92 993.81 560.99 971.66 573.77"/><polygon class="cls-2" points="1102.44 706.83 1052.61 735.6 1072.67 747.19 1122.51 718.41 1102.44 706.83"/><polygon class="cls-4" points="1393.84 561.76 1494.18 619.7 1472.03 632.49 1371.69 574.55 1393.84 561.76"/><polygon class="cls-3" points="1173.75 549.79 1223.59 521.02 1243.66 532.6 1193.82 561.38 1173.75 549.79"/><polygon class="cls-3" points="1093.48 503.44 1043.64 532.21 1023.57 520.63 1073.41 491.85 1093.48 503.44"/><polygon class="cls-4" points="1243.66 532.6 1344 590.54 1321.85 603.32 1221.51 545.39 1243.66 532.6"/><polygon class="cls-4" points="1093.48 503.44 1193.82 561.38 1171.67 574.16 1071.33 516.23 1093.48 503.44"/><polygon class="cls-2" points="1323.93 578.95 1373.77 550.18 1393.84 561.76 1344 590.54 1323.93 578.95"/><polygon class="cls-2" points="901.75 590.96 851.92 619.73 871.99 631.32 921.82 602.55 901.75 590.96"/><polygon class="cls-4" points="1193.15 445.9 1293.49 503.83 1271.34 516.62 1171 458.68 1193.15 445.9"/><polygon class="cls-4" points="1343.33 475.06 1443.67 532.99 1421.52 545.78 1321.18 487.85 1343.33 475.06"/><polygon class="cls-2" points="1273.42 492.24 1323.26 463.47 1343.33 475.06 1293.49 503.83 1273.42 492.24"/><polygon class="cls-2" points="1123.24 463.08 1173.08 434.31 1193.15 445.9 1143.31 474.67 1123.24 463.08"/></g><g class="cls-1"><polygon class="cls-3" points="1493.51 504.22 1443.67 532.99 1423.6 521.4 1473.44 492.63 1493.51 504.22"/><polygon class="cls-4" points="1493.51 504.22 1593.85 562.15 1571.7 574.94 1471.36 517.01 1493.51 504.22"/><polygon class="cls-3" points="1373.1 434.7 1422.93 405.93 1443 417.51 1393.17 446.28 1373.1 434.7"/><polygon class="cls-3" points="1292.82 388.35 1242.99 417.12 1222.92 405.54 1272.75 376.76 1292.82 388.35"/><polygon class="cls-4" points="1443 417.51 1543.35 475.45 1521.2 488.23 1420.85 430.3 1443 417.51"/><polygon class="cls-4" points="1292.82 388.35 1393.17 446.28 1371.02 459.07 1270.67 401.14 1292.82 388.35"/><polygon class="cls-2" points="1523.28 463.86 1573.11 435.09 1593.18 446.67 1543.35 475.45 1523.28 463.86"/><polygon class="cls-4" points="1392.49 330.81 1492.84 388.74 1470.69 401.53 1370.34 343.59 1392.49 330.81"/><polygon class="cls-4" points="1542.67 359.97 1643.02 417.9 1620.87 430.69 1520.52 372.75 1542.67 359.97"/><polygon class="cls-2" points="1472.77 377.15 1522.6 348.38 1542.67 359.97 1492.84 388.74 1472.77 377.15"/><polygon class="cls-2" points="1322.59 347.99 1372.42 319.22 1392.49 330.81 1342.66 359.58 1322.59 347.99"/><polygon class="cls-4" points="1492.16 273.26 1592.51 331.19 1570.36 343.98 1470.01 286.05 1492.16 273.26"/><polygon class="cls-2" points="1572.44 319.61 1622.27 290.83 1642.34 302.42 1592.51 331.19 1572.44 319.61"/><polygon class="cls-2" points="1422.26 290.45 1472.09 261.67 1492.16 273.26 1442.33 302.03 1422.26 290.45"/></g></g></g></svg>