<?xml version="1.0" encoding="UTF-8"?><svg id="Layer_2" xmlns="http://www.w3.org/2000/svg" viewBox="0 0 180 200"><defs><style>.cls-1{fill:none;}.cls-1,.cls-2,.cls-3,.cls-4,.cls-5,.cls-6,.cls-7,.cls-8,.cls-9,.cls-10,.cls-11,.cls-12,.cls-13,.cls-14,.cls-15,.cls-16,.cls-17,.cls-18,.cls-19{stroke-width:0px;}.cls-2{fill:#47b05b;}.cls-3{fill:#2c9743;}.cls-4{fill:#cd2e28;}.cls-5{fill:#ccc58b;}.cls-6{fill:#c7bf7e;}.cls-7{fill:#abd47d;}.cls-8{fill:#a4a6a9;}.cls-9{fill:#ad2823;}.cls-10{fill:#b2ac73;}.cls-11{fill:#ced0d1;}.cls-12{fill:#909295;}.cls-13{fill:#b3d88a;}.cls-14{fill:#32a749;}.cls-15{fill:#9a1b1e;}.cls-16{fill:#98be72;}.cls-17{fill:#fff;}.cls-18{fill:#e4e5e6;}.cls-19{fill:#002b1b;}</style></defs><g id="Layer_1-2"><polygon class="cls-6" points="90.33 87.1 0 139.25 89.67 191.03 180 138.88 90.33 87.1"/><polygon class="cls-5" points="89.67 200 180 147.85 180 138.88 89.67 191.03 89.67 200"/><polygon class="cls-10" points="89.67 200 89.67 191.03 0 139.25 0 148.23 89.67 200"/><polygon class="cls-7" points="90.33 78.13 0 130.28 89.67 182.05 180 129.9 90.33 78.13"/><polygon class="cls-13" points="89.67 191.03 180 138.88 180 129.9 89.67 182.05 89.67 191.03"/><polygon class="cls-16" points="89.67 191.03 89.67 182.05 0 130.28 0 139.25 89.67 191.03"/><polygon class="cls-14" points="90.33 69.15 0 121.3 89.67 173.08 180 120.93 90.33 69.15"/><polygon class="cls-2" points="89.67 182.05 180 129.9 180 120.93 89.67 173.08 89.67 182.05"/><polygon class="cls-3" points="89.67 182.05 89.67 173.08 0 121.3 0 130.28 89.67 182.05"/><polygon class="cls-19" points="130.86 98.21 50.34 144.7 89.73 167.44 170.25 120.95 130.86 98.21"/><polygon class="cls-17" points="131.89 35.78 51.38 82.27 51.38 145.3 76.06 131.05 84.28 122.44 116.16 104.03 124.86 102.82 131.89 98.82 131.89 35.78"/><polygon class="cls-18" points="131.89 35.78 51.38 82.27 9.78 58.25 90.29 11.77 131.89 35.78"/><polygon class="cls-15" points="63.13 70.33 30.58 51.54 30.58 40.8 63.13 59.59 63.13 70.33"/><polygon class="cls-4" points="111.32 31.77 63.13 59.59 63.13 70.33 111.32 42.51 111.32 31.77"/><polygon class="cls-18" points="96.71 24.65 69.25 40.51 45.32 26.69 72.78 10.84 96.71 24.65"/><polygon class="cls-18" points="111.32 31.77 63.13 59.59 30.58 40.8 78.77 12.97 111.32 31.77"/><polygon class="cls-15" points="69.25 51.25 45.31 37.42 45.31 26.68 69.25 40.51 69.25 51.25"/><polygon class="cls-4" points="96.67 24.68 69.25 40.51 69.25 51.25 96.67 35.42 96.67 24.68"/><ellipse class="cls-9" cx="71.02" cy="25.67" rx="6.07" ry="10.51" transform="translate(44.9 96.53) rotate(-89.64)"/><path class="cls-18" d="m69.03,28.89l3.17-1.83-3.59-2.08-3.17,1.83-1.62-.94,7.56-4.36,1.62.94-2.97,1.71,3.59,2.08,2.97-1.71,1.63.94-7.56,4.36-1.63-.94Z"/><polygon class="cls-8" points="128.18 44.5 55.31 86.57 55.31 93.64 128.18 51.57 128.18 44.5"/><polygon class="cls-8" points="128.18 53.35 55.31 95.42 55.31 102.49 128.18 60.42 128.18 53.35"/><polygon class="cls-8" points="128.18 71.25 113.65 79.63 113.65 86.7 128.18 78.32 128.18 71.25"/><polygon class="cls-8" points="128.18 80.1 113.65 88.48 113.65 95.55 128.18 87.17 128.18 80.1"/><polygon class="cls-8" points="128.18 62.2 55.31 104.27 55.31 111.34 128.18 69.27 128.18 62.2"/><polygon class="cls-8" points="128.18 88.94 113.65 97.33 113.65 104.4 128.18 96.02 128.18 88.94"/><polygon class="cls-8" points="129.65 122.61 110.16 111.36 110.16 83.62 129.65 94.87 129.65 122.61"/><polygon class="cls-9" points="129.65 92.89 92.59 114.28 73.1 103.03 110.16 81.63 129.65 92.89"/><polygon class="cls-4" points="92.59 114.28 92.59 144.01 97.38 141.24 97.38 118.69 124.86 102.82 124.86 125.38 129.65 122.61 129.65 92.89 92.59 114.28"/><polygon class="cls-15" points="92.59 144.01 73.1 132.76 73.1 103.03 92.59 114.28 92.59 144.01"/><polygon class="cls-11" points="92.59 112.65 89.49 110.86 89.49 107.31 92.59 109.1 92.59 112.65"/><polygon class="cls-17" points="127.35 92.88 124.26 94.66 124.26 91.12 127.35 89.33 127.35 92.88"/><path class="cls-17" d="m107.14,111.24v-1.37s-1.34.78-1.34.78v1.37l-.61.35v-3.26s.61-.35.61-.35v1.28s1.34-.78,1.34-.78v-1.28l.61-.35v3.26s-.61.35-.61.35Z"/><path class="cls-17" d="m108.16,109.46c0-.67.41-1.47,1.09-1.87.68-.39,1.09-.06,1.09.61s-.41,1.48-1.09,1.87c-.68.39-1.09.06-1.09-.61Zm1.62-.93c0-.37-.19-.57-.53-.38s-.52.62-.52.99.19.58.52.39.53-.62.53-1Z"/><path class="cls-17" d="m110.56,108.95l.23-.57c.15.08.46.06.71-.09.23-.14.35-.31.35-.45,0-.39-1.22.63-1.22-.3,0-.4.3-.92.84-1.23.35-.2.63-.23.83-.16l-.22.55c-.12-.08-.36-.07-.61.08-.2.11-.32.29-.32.42,0,.35,1.22-.65,1.22.31s-.32.94-.89,1.27c-.36.21-.7.27-.92.17Z"/><path class="cls-17" d="m113.32,107.36v1.2l-.54.31v-3.26s.54-.31.54-.31v.3c.16-.32.38-.58.64-.72.53-.31.91-.08.91.71,0,.79-.38,1.46-.91,1.77-.24.14-.47.15-.64,0Zm.99-1.45c0-.41-.21-.56-.52-.38-.17.1-.38.33-.46.54v.84c.09.09.29.1.46,0,.31-.18.52-.58.52-.99Z"/><path class="cls-17" d="m115.21,103.59c0-.21.15-.45.32-.55s.32-.03.32.18c0,.21-.15.46-.32.56s-.32.02-.32-.18Zm.06,2.96v-2.36l.54-.31v2.36s-.54.31-.54.31Z"/><path class="cls-17" d="m116.45,105.27v-1.23s-.34.2-.34.2v-.54l.34-.2v-.65l.55-.32v.65s.42-.24.42-.24v.54l-.42.24v1.07c0,.15.07.22.19.15.08-.05.16-.13.19-.18l.12.4c-.08.13-.23.28-.45.41-.38.22-.58.11-.58-.31Z"/><path class="cls-17" d="m119.02,104.38v-.24c-.14.27-.38.52-.65.68-.33.19-.72.16-.72-.37,0-.55.39-.99.72-1.18.27-.16.52-.2.65-.09v-.32c0-.24-.18-.29-.45-.13-.22.13-.43.34-.6.63l-.2-.3c.25-.4.58-.7.9-.89.47-.27.9-.3.9.38v1.53l-.54.31Zm0-.57v-.29c-.09-.09-.26-.06-.44.05-.21.12-.39.35-.39.58s.17.25.39.12c.17-.1.35-.27.44-.46Z"/><path class="cls-17" d="m120.1,103.75v-3.26s.54-.31.54-.31v3.26s-.54.31-.54.31Z"/><polygon class="cls-17" points="103.52 113.32 102.57 113.87 102.57 110.61 103.52 110.06 103.52 113.32"/><polygon class="cls-17" points="104.47 110.6 104.47 111.69 101.62 113.33 101.62 112.24 104.47 110.6"/><polygon class="cls-17" points="95.69 110.86 92.59 112.65 92.59 109.1 95.69 107.31 95.69 110.86"/><polygon class="cls-18" points="92.6 109.09 89.51 107.3 92.58 105.53 95.68 107.32 92.6 109.09"/><polygon class="cls-11" points="124.26 94.66 121.16 92.88 121.16 89.33 124.26 91.12 124.26 94.66"/><polygon class="cls-18" points="124.27 91.11 121.17 89.32 124.24 87.55 127.34 89.33 124.27 91.11"/><polygon class="cls-11" points="51.38 145.3 9.78 121.28 9.78 58.25 51.38 82.27 51.38 145.3"/><polygon class="cls-15" points="41.25 91.89 41.25 84.84 35.1 81.29 35.1 88.34 28.95 84.79 28.95 91.84 35.1 95.39 35.1 102.44 41.25 105.99 41.25 98.94 47.4 102.49 47.4 95.44 41.25 91.89"/><polygon class="cls-8" points="69.97 104.83 55.31 113.29 55.31 120.36 69.97 111.9 69.97 104.83"/><polygon class="cls-8" points="69.97 113.66 55.31 122.12 55.31 129.2 69.97 120.73 69.97 113.66"/><polygon class="cls-8" points="69.97 122.52 55.31 130.99 55.31 138.06 69.97 129.59 69.97 122.52"/><polygon class="cls-12" points="28.94 102.65 47.4 113.31 47.4 120.38 28.94 109.72 28.94 102.65"/><polygon class="cls-12" points="28.94 111.48 47.4 122.14 47.4 129.21 28.94 118.55 28.94 111.48"/><polygon class="cls-12" points="28.94 120.35 47.4 131.01 47.4 138.08 28.94 127.42 28.94 120.35"/><rect class="cls-1" x="0" width="180" height="200"/></g></svg>