<?xml version="1.0" encoding="UTF-8"?><svg id="Layer_2" xmlns="http://www.w3.org/2000/svg" xmlns:xlink="http://www.w3.org/1999/xlink" viewBox="0 0 200.4 200"><defs><style>.cls-1{clip-path:url(#clippath);}.cls-2{fill:none;}.cls-2,.cls-3,.cls-4,.cls-5,.cls-6,.cls-7,.cls-8,.cls-9,.cls-10,.cls-11,.cls-12,.cls-13,.cls-14,.cls-15,.cls-16{stroke-width:0px;}.cls-3{fill:#4f3b23;}.cls-4{fill:#47b05b;}.cls-5{fill:#7fbf42;}.cls-6{fill:#2c9743;}.cls-7{fill:#194132;}.cls-8{fill:#ccc58b;}.cls-9{fill:#c7bf7e;}.cls-10{fill:#abd47d;}.cls-11{fill:#b2ac73;}.cls-12{fill:#b3d88a;}.cls-13{fill:#32a749;}.cls-14{fill:#9a1b1e;}.cls-15{fill:#98be72;}.cls-16{fill:#002b1b;}</style><clipPath id="clippath"><polygon class="cls-2" points="110.7 73.98 29.33 121.08 110.11 167.84 191.47 120.74 110.7 73.98"/></clipPath></defs><g id="Layer_1-2"><polygon class="cls-9" points="110.73 86.81 20.4 139.09 110.08 191 200.4 138.71 110.73 86.81"/><polygon class="cls-8" points="110.08 200 200.4 147.71 200.4 138.71 110.08 191 110.08 200"/><polygon class="cls-11" points="110.08 200 110.08 191 20.4 139.09 20.4 148.09 110.08 200"/><polygon class="cls-10" points="110.73 77.81 20.4 130.09 110.08 182 200.4 129.72 110.73 77.81"/><polygon class="cls-12" points="110.08 191 200.4 138.71 200.4 129.72 110.08 182 110.08 191"/><polygon class="cls-15" points="110.08 191 110.08 182 20.4 130.09 20.4 139.09 110.08 191"/><polygon class="cls-13" points="110.73 68.81 20.4 121.1 110.08 173.01 200.4 120.72 110.73 68.81"/><polygon class="cls-4" points="110.08 182 200.4 129.72 200.4 120.72 110.08 173.01 110.08 182"/><polygon class="cls-6" points="110.08 182 110.08 173.01 20.4 121.1 20.4 130.09 110.08 182"/><g class="cls-1"><path class="cls-16" d="m190.62,125.12c1.99-.19,3.77-1.55,4.76-3.29s1.27-3.83,1.09-5.83c-.33-3.73-2.17-7.22-4.66-10.01-2.5-2.79-5.63-4.93-8.88-6.78-10.73-6.1-23.18-9.24-35.49-8.48-4.48.28-8.94,1.06-13.16,2.59-5.3,1.92-10.18,5.02-14.08,9.1-.81.85-1.6,1.77-1.97,2.89-.4,1.22-.49,2.61-.07,3.83,2.66,7.74,15.09,5.72,20.5,6.38,11.48,1.4,20.64,11.03,32.09,12.64,6.42.9,8.72.35,14.95-1.48"/><path class="cls-5" d="m139.77,60.36c2.59-3.55,2.95-8.44,1.55-12.6-1.41-4.17-4.41-7.65-7.93-10.27-6.58-4.89-14.95-6.95-23.13-6.9-8.19.05-16.24,2.08-23.99,4.72-25.57,8.74-48.82,24.62-65.48,45.94-6.06,7.75-11.27,16.23-14.91,25.38C1.29,118.11-.74,130.64.24,142.97c.2,2.57.56,5.21,1.85,7.44,1.41,2.45,3.56,4.6,6.16,5.69,16.52,6.89,31.29-16.46,40.24-24.38,18.99-16.8,48.04-17.84,67.33-34.3,10.82-9.23,13.27-13.81,19.33-26.69"/><ellipse class="cls-9" cx="183.63" cy="120.72" rx="1.91" ry="3.3" transform="translate(61.76 303.58) rotate(-89.64)"/></g><path class="cls-14" d="m191.39,102.4l-7.55-2.44h0c-.06-.02-.13-.04-.2-.04-.3,0-.55.25-.55.55v20.12c0,.31.25.55.55.55s.55-.25.55-.55v-15.87l7.19-2.33Z"/><path class="cls-3" d="m133.31,74.02l-.62-.62-3.33,2.77c0-1.85.04-3.89.12-6.12h-1.61s.34,15.37-1.15,20.82h4.65s-1.98-4.29-2.01-13.88l3.95-2.97Z"/><path class="cls-16" d="m128,75.13c1.43.05,2.76-.24,4-.9,1.29-.42,2.4-1.14,3.34-2.15,1.01-.94,1.73-2.06,2.15-3.35.65-1.24.95-2.58.89-4.01l-.37-2.77c-.49-1.76-1.38-3.29-2.67-4.59-2.03-1.87-4.53-3.05-7.34-3.05-1.43-.05-2.76.24-4,.9-1.29.42-2.4,1.14-3.34,2.15-1.01.94-1.73,2.06-2.15,3.35-.65,1.24-.95,2.58-.89,4.01.12.92.25,1.84.37,2.77.49,1.76,1.38,3.29,2.67,4.59,2.03,1.87,4.53,3.05,7.34,3.05h0Z"/><path class="cls-7" d="m134.18,76.59c1.66,0,3.25-1.47,3.18-3.19s-1.4-3.19-3.18-3.19c-1.66,0-3.25,1.47-3.18,3.19.08,1.73,1.4,3.19,3.18,3.19h0Z"/><path class="cls-7" d="m125.15,77.69c1.91,0,3.75-1.69,3.66-3.67s-1.61-3.67-3.66-3.67c-1.91,0-3.75,1.69-3.66,3.67.09,1.99,1.61,3.67,3.66,3.67h0Z"/><path class="cls-3" d="m115.46,86.42l.39-.39,2.09,1.74c0-1.16-.02-2.44-.07-3.84h1.01s-.21,9.65.72,13.08h-2.92s1.25-2.69,1.26-8.72l-2.48-1.87Z"/><path class="cls-16" d="m118.8,87.12c-.9.03-1.73-.15-2.51-.56-.81-.26-1.51-.71-2.1-1.35-.64-.59-1.08-1.29-1.35-2.1-.41-.78-.6-1.62-.56-2.52l.23-1.74c.31-1.11.87-2.07,1.68-2.88,1.27-1.17,2.84-1.91,4.61-1.91.9-.03,1.73.15,2.51.56.81.26,1.51.71,2.1,1.35.64.59,1.08,1.29,1.35,2.1.41.78.6,1.62.56,2.52l-.23,1.74c-.31,1.11-.87,2.07-1.68,2.88-1.27,1.17-2.84,1.91-4.61,1.91h0Z"/><path class="cls-7" d="m114.92,88.04c-1.04,0-2.04-.92-2-2,.05-1.08.88-2,2-2,1.04,0,2.04.92,2,2s-.88,2-2,2h0Z"/><path class="cls-7" d="m120.59,88.73c-1.2,0-2.35-1.06-2.3-2.3s1.01-2.3,2.3-2.3c1.2,0,2.35,1.06,2.3,2.3s-1.01,2.3-2.3,2.3h0Z"/><rect class="cls-2" x="20.4" width="180" height="200"/></g></svg>