<?xml version="1.0" encoding="UTF-8"?><svg id="Layer_2" xmlns="http://www.w3.org/2000/svg" viewBox="0 0 180 200"><defs><style>.cls-1{fill:none;}.cls-1,.cls-2,.cls-3,.cls-4,.cls-5,.cls-6,.cls-7,.cls-8,.cls-9,.cls-10,.cls-11,.cls-12,.cls-13,.cls-14,.cls-15{stroke-width:0px;}.cls-2{fill:#47b05b;}.cls-3{fill:#2c9743;}.cls-4{fill:#cd2e28;}.cls-5{fill:#ccc58b;}.cls-6{fill:#c7bf7e;}.cls-7{fill:#abd47d;}.cls-8{fill:#b2ac73;}.cls-9{fill:#b3d88a;}.cls-10{fill:#babcbe;}.cls-11{fill:#32a749;}.cls-12{fill:#9a1b1e;}.cls-13{fill:#98be72;}.cls-14{fill:#e4e5e6;}.cls-15{fill:#002b1b;}</style></defs><g id="Layer_1-2"><polygon class="cls-6" points="90.33 87.1 0 139.25 89.67 191.03 180 138.88 90.33 87.1"/><polygon class="cls-5" points="89.67 200 180 147.85 180 138.88 89.67 191.03 89.67 200"/><polygon class="cls-8" points="89.67 200 89.67 191.03 0 139.25 0 148.23 89.67 200"/><polygon class="cls-7" points="90.33 78.13 0 130.28 89.67 182.05 180 129.9 90.33 78.13"/><polygon class="cls-9" points="89.67 191.03 180 138.88 180 129.9 89.67 182.05 89.67 191.03"/><polygon class="cls-13" points="89.67 191.03 89.67 182.05 0 130.28 0 139.25 89.67 191.03"/><polygon class="cls-11" points="90.33 69.15 0 121.3 89.67 173.08 180 120.93 90.33 69.15"/><polygon class="cls-2" points="89.67 182.05 180 129.9 180 120.93 89.67 173.08 89.67 182.05"/><polygon class="cls-3" points="89.67 182.05 89.67 173.08 0 121.3 0 130.28 89.67 182.05"/><polygon class="cls-12" points="98.92 66.16 86.15 58.78 80.09 67.36 92.86 74.73 98.92 66.16"/><polygon class="cls-10" points="92.86 74.73 92.86 88.21 80.09 80.84 80.09 67.36 92.86 74.73"/><polygon class="cls-14" points="92.86 88.21 103.55 82.04 103.55 68.82 92.86 74.73 92.86 88.21"/><polyline class="cls-4" points="92.86 74.73 98.92 66.16 103.55 68.82"/><polygon class="cls-15" points="101.05 83.48 101.05 75.11 96.8 77.57 96.8 85.94 101.05 83.48"/><polygon class="cls-12" points="81.41 76.27 68.64 68.89 62.57 77.47 75.34 84.84 81.41 76.27"/><polygon class="cls-10" points="75.34 84.84 75.34 98.32 62.57 90.95 62.57 77.47 75.34 84.84"/><polygon class="cls-14" points="75.34 98.32 86.03 92.15 86.03 78.94 75.34 84.84 75.34 98.32"/><polyline class="cls-4" points="75.34 84.84 81.41 76.27 86.03 78.94"/><polygon class="cls-15" points="83.54 93.6 83.54 85.22 79.28 87.68 79.28 96.05 83.54 93.6"/><polygon class="cls-12" points="63.9 86.38 51.13 79 45.06 87.58 57.83 94.95 63.9 86.38"/><polygon class="cls-10" points="57.83 94.95 57.83 108.43 45.06 101.06 45.06 87.58 57.83 94.95"/><polygon class="cls-14" points="57.83 108.43 68.52 102.26 68.52 89.05 57.83 94.95 57.83 108.43"/><polyline class="cls-4" points="57.83 94.95 63.9 86.38 68.52 89.05"/><polygon class="cls-15" points="66.02 103.71 66.02 95.34 61.77 97.79 61.77 106.16 66.02 103.71"/><polygon class="cls-12" points="46.38 96.49 33.61 89.11 27.55 97.69 40.32 105.06 46.38 96.49"/><polygon class="cls-10" points="40.32 105.06 40.32 118.55 27.55 111.17 27.55 97.69 40.32 105.06"/><polygon class="cls-14" points="40.32 118.55 51.01 112.38 51.01 99.16 40.32 105.06 40.32 118.55"/><polyline class="cls-4" points="40.32 105.06 46.38 96.49 51.01 99.16"/><polygon class="cls-15" points="48.51 113.82 48.51 105.45 44.26 107.9 44.26 116.27 48.51 113.82"/><polygon class="cls-12" points="28.87 106.6 16.1 99.23 10.03 107.8 22.81 115.18 28.87 106.6"/><polygon class="cls-10" points="22.81 115.18 22.81 128.66 10.03 121.28 10.03 107.8 22.81 115.18"/><polygon class="cls-14" points="22.81 128.66 33.49 122.49 33.49 109.27 22.81 115.18 22.81 128.66"/><polyline class="cls-4" points="22.81 115.18 28.87 106.6 33.49 109.27"/><polygon class="cls-15" points="31 123.93 31 115.56 26.74 118.01 26.74 126.38 31 123.93"/><polygon class="cls-15" points="155.21 112.09 138.59 102.49 107.4 120.5 90.82 110.92 122 92.92 105.38 83.32 74.2 101.33 74.2 101.33 59.15 110.01 24.67 129.92 41.29 139.52 72.6 121.44 89.18 131.02 57.75 149.17 74.37 158.76 105.8 140.61 120.98 149.38 139.2 138.86 124.02 130.09 155.21 112.09"/><polygon class="cls-12" points="79.83 115.8 67.06 108.42 60.99 117 73.76 124.37 79.83 115.8"/><polygon class="cls-10" points="73.76 124.37 73.76 137.85 60.99 130.48 60.99 117 73.76 124.37"/><polygon class="cls-14" points="73.76 137.85 84.45 131.68 84.45 118.47 73.76 124.37 73.76 137.85"/><polyline class="cls-4" points="73.76 124.37 79.83 115.8 84.45 118.47"/><polygon class="cls-15" points="81.95 133.13 81.95 124.75 77.7 127.21 77.7 135.58 81.95 133.13"/><polygon class="cls-12" points="62.31 125.91 49.54 118.53 43.48 127.11 56.25 134.48 62.31 125.91"/><polygon class="cls-10" points="56.25 134.48 56.25 147.96 43.48 140.59 43.48 127.11 56.25 134.48"/><polygon class="cls-14" points="56.25 147.96 66.94 141.79 66.94 128.58 56.25 134.48 56.25 147.96"/><polyline class="cls-4" points="56.25 134.48 62.31 125.91 66.94 128.58"/><polygon class="cls-15" points="64.44 143.24 64.44 134.87 60.19 137.32 60.19 145.69 64.44 143.24"/><polygon class="cls-12" points="165.81 104.77 153.04 97.4 146.97 105.97 159.74 113.35 165.81 104.77"/><polygon class="cls-10" points="159.74 113.35 159.74 126.83 146.97 119.46 146.97 105.97 159.74 113.35"/><polygon class="cls-14" points="159.74 126.83 170.43 120.66 170.43 107.44 159.74 113.35 159.74 126.83"/><polyline class="cls-4" points="159.74 113.35 165.81 104.77 170.43 107.44"/><polygon class="cls-15" points="167.94 122.1 167.94 113.73 163.68 116.19 163.68 124.56 167.94 122.1"/><polygon class="cls-12" points="148.3 114.88 135.52 107.51 129.46 116.08 142.23 123.46 148.3 114.88"/><polygon class="cls-10" points="142.23 123.46 142.23 136.94 129.46 129.57 129.46 116.08 142.23 123.46"/><polygon class="cls-14" points="142.23 136.94 152.92 130.77 152.92 117.55 142.23 123.46 142.23 136.94"/><polyline class="cls-4" points="142.23 123.46 148.3 114.88 152.92 117.55"/><polygon class="cls-15" points="150.42 132.21 150.42 123.84 146.17 126.3 146.17 134.67 150.42 132.21"/><polygon class="cls-12" points="113.27 135.1 100.5 127.73 94.43 136.31 107.21 143.68 113.27 135.1"/><polygon class="cls-10" points="107.21 143.68 107.21 157.16 94.43 149.79 94.43 136.31 107.21 143.68"/><polygon class="cls-14" points="107.21 157.16 117.89 150.99 117.89 137.77 107.21 143.68 107.21 157.16"/><polyline class="cls-4" points="107.21 143.68 113.27 135.1 117.89 137.77"/><polygon class="cls-15" points="115.4 152.43 115.4 144.06 111.14 146.52 111.14 154.89 115.4 152.43"/><polygon class="cls-12" points="95.76 145.22 82.99 137.84 76.92 146.42 89.69 153.79 95.76 145.22"/><polygon class="cls-10" points="89.69 153.79 89.69 167.27 76.92 159.9 76.92 146.42 89.69 153.79"/><polygon class="cls-14" points="89.69 167.27 100.38 161.1 100.38 147.88 89.69 153.79 89.69 167.27"/><polyline class="cls-4" points="89.69 153.79 95.76 145.22 100.38 147.88"/><polygon class="cls-15" points="97.89 162.54 97.89 154.17 93.63 156.63 93.63 165 97.89 162.54"/><polygon class="cls-12" points="132.37 85.46 119.59 78.09 113.53 86.67 126.3 94.04 132.37 85.46"/><polygon class="cls-10" points="126.3 94.04 126.3 107.52 113.53 100.15 113.53 86.67 126.3 94.04"/><polygon class="cls-14" points="126.3 107.52 136.99 101.35 136.99 88.13 126.3 94.04 126.3 107.52"/><polyline class="cls-4" points="126.3 94.04 132.37 85.46 136.99 88.13"/><polygon class="cls-15" points="134.49 102.79 134.49 94.42 130.24 96.88 130.24 105.25 134.49 102.79"/><polygon class="cls-12" points="114.85 95.57 102.08 88.2 96.02 96.78 108.79 104.15 114.85 95.57"/><polygon class="cls-10" points="108.79 104.15 108.79 117.63 96.02 110.26 96.02 96.78 108.79 104.15"/><polygon class="cls-14" points="108.79 117.63 119.48 111.46 119.48 98.24 108.79 104.15 108.79 117.63"/><polyline class="cls-4" points="108.79 104.15 114.85 95.57 119.48 98.24"/><polygon class="cls-15" points="116.98 112.9 116.98 104.53 112.73 106.99 112.73 115.36 116.98 112.9"/><rect class="cls-1" width="180" height="200"/></g></svg>