<?xml version="1.0" encoding="UTF-8"?><svg id="Layer_2" xmlns="http://www.w3.org/2000/svg" viewBox="0 0 186 156.58"><defs><style>.cls-1{font-family:NHaasGroteskDSPro-65Md, 'Neue Haas Grotesk Display Pro';font-size:13.18px;font-weight:500;}.cls-1,.cls-2{fill:#fff;}.cls-3{fill-rule:evenodd;}.cls-3,.cls-4,.cls-5,.cls-6,.cls-7,.cls-8,.cls-9,.cls-10,.cls-11,.cls-12,.cls-13,.cls-14,.cls-15,.cls-16,.cls-17,.cls-18,.cls-2,.cls-19,.cls-20,.cls-21,.cls-22{stroke-width:0px;}.cls-3,.cls-22{fill:#044023;}.cls-23{letter-spacing:0em;}.cls-4{fill:#266744;}.cls-5{fill:#47b05b;}.cls-6{fill:#a3a5a8;}.cls-7{fill:#2c9643;}.cls-8{fill:#195e39;}.cls-9{fill:#0f4f2e;}.cls-10{fill:#0a5432;}.cls-11{fill:#ccc58b;}.cls-12{fill:#abd47d;}.cls-13{fill:#b1ab73;}.cls-14{fill:#ced0d1;}.cls-15{fill:#cdcfd0;}.cls-16{fill:#b3d88a;}.cls-17{fill:#32a749;}.cls-18{fill:#97bd72;}.cls-19{fill:#e3e4e5;}.cls-20{fill:#002b1b;}.cls-21{fill:#004c23;}</style></defs><g id="Layer_1-2"><polygon class="cls-11" points="93.34 156.58 186 103.08 186 93.81 93.34 147.31 93.34 156.58"/><polygon class="cls-13" points="93.34 156.58 93.34 147.31 0 93.42 0 102.69 93.34 156.58"/><polygon class="cls-16" points="93.34 147.31 186 93.81 186 84.54 93.34 138.03 93.34 147.31"/><polygon class="cls-18" points="93.34 147.31 93.34 138.03 0 84.15 0 93.42 93.34 147.31"/><polygon class="cls-17" points="92.66 21.37 0 74.87 93.34 128.76 186 75.26 92.66 21.37"/><polygon class="cls-5" points="93.34 138.03 186 84.54 186 75.26 93.34 128.76 93.34 138.03"/><polygon class="cls-7" points="93.34 138.03 93.34 128.76 0 74.87 0 84.15 93.34 138.03"/><polygon class="cls-20" points="176.85 75.48 131.05 49.03 121.7 54.43 136.01 62.7 72.71 99.25 19.92 68.77 9.16 74.97 93.32 123.71 176.85 75.48"/><polygon class="cls-2" points="136.83 35.52 69.5 74.39 69.5 99.31 136.83 60.44 136.83 35.52"/><polygon class="cls-9" points="139.62 31.2 72.29 70.07 18.26 38.87 85.58 0 139.62 31.2"/><polygon class="cls-15" points="69.5 99.31 18.26 69.73 18.26 44.8 69.5 74.39 69.5 99.31"/><polygon class="cls-6" points="132.98 42.42 73.35 76.85 73.35 97.09 132.98 62.66 132.98 42.42"/><polygon class="cls-4" points="144.06 38.08 76.74 76.95 76.74 78.56 144.06 39.69 144.06 38.08"/><polygon class="cls-22" points="18.26 38.87 18.26 44.8 76.74 78.56 76.74 76.95 72.29 70.07 18.26 38.87"/><polygon class="cls-10" points="139.62 31.2 72.29 70.07 76.74 76.95 144.06 38.08 139.62 31.2"/><polygon class="cls-15" points="72.29 70.07 69.5 68.46 69.5 53.42 72.29 55.03 72.29 70.07"/><g id="door"><polygon class="cls-14" points="100.45 68.05 112.51 61.09 112.51 74.86 100.45 81.82 100.45 68.05"/><path class="cls-21" d="m112.22,61.58v13.11l-11.49,6.63v-13.11l11.49-6.63m.57-.98l-12.62,7.29v14.42l12.62-7.29v-14.42h0Z"/></g><polygon class="cls-12" points="87.31 109.59 74.4 102.14 75.24 101.65 88.15 109.11 87.31 109.59"/><polygon class="cls-12" points="153.79 71.21 140.88 63.76 141.72 63.27 154.63 70.72 153.79 71.21"/><polygon class="cls-12" points="145.48 75.85 132.57 68.39 133.1 68.09 146.32 75.36 145.48 75.85"/><polygon class="cls-12" points="137.17 80.67 124.26 73.22 125.1 72.73 138.01 80.18 137.17 80.67"/><polygon class="cls-12" points="95.62 104.77 82.71 97.32 83.55 96.83 96.46 104.29 95.62 104.77"/><polygon class="cls-12" points="103.93 99.95 91.02 92.5 91.86 92.01 104.77 99.47 103.93 99.95"/><polygon class="cls-12" points="112.24 95.13 99.33 87.68 100.17 87.19 113.08 94.65 112.24 95.13"/><polygon class="cls-12" points="128.86 85.49 115.95 78.04 116.79 77.55 129.7 85 128.86 85.49"/><polygon class="cls-12" points="74.4 102.14 69.5 99.31 136.83 60.44 141.72 63.27 74.4 102.14"/><polygon class="cls-8" points="139.62 16.16 72.29 55.03 72.29 70.07 139.62 31.2 139.62 16.16"/><polygon class="cls-19" points="139.62 16.16 72.29 55.03 69.5 53.42 136.83 14.55 139.62 16.16"/><text class="cls-1" transform="translate(74.07 66.03) rotate(-30) scale(1.01 .87) skewX(-26.4)"><tspan x="0" y="0">GROCERI</tspan><tspan class="cls-23" x="57.11" y="0">E</tspan><tspan x="65.21" y="0">S</tspan></text><path id="Shape" class="cls-3" d="m55.02,84.37c-.93-.54-1.7-.1-1.7.96,0,1.07.76,2.38,1.7,2.92s1.7.1,1.7-.96-.76-2.38-1.7-2.92h0Zm-5.09-18.48v1.94s1.7.98,1.7.98l3.05,9.15-1.19,1.65c-.08.24-.17.58-.17.87,0,1.07.76,2.38,1.7,2.92l10.17,5.87v-1.94s-9.83-5.68-9.83-5.68c-.08-.05-.17-.2-.17-.29v-.1s.76-1.21.76-1.21l6.27,3.62c.68.39,1.19.3,1.44-.14l3.05-4.55c.17-.1.17-.19.17-.39,0-.58-.34-1.17-.85-1.46l-12.55-7.24-.76-2.38-2.8-1.62h0Zm13.56,23.38c-.93-.54-1.7-.1-1.7.96,0,1.07.76,2.38,1.7,2.92s1.7.1,1.7-.96c0-1.07-.76-2.38-1.7-2.92h0Z"/></g></svg>