<?xml version="1.0" encoding="UTF-8"?><svg id="Layer_2" xmlns="http://www.w3.org/2000/svg" viewBox="0 0 380.03 400"><defs><style>.cls-1{fill:none;}.cls-1,.cls-2,.cls-3,.cls-4,.cls-5,.cls-6,.cls-7,.cls-8,.cls-9,.cls-10,.cls-11,.cls-12,.cls-13,.cls-14,.cls-15,.cls-16,.cls-17{stroke-width:0px;}.cls-2{fill:#47b05b;}.cls-3{fill:#a3a5a8;}.cls-4{fill:#2c9643;}.cls-5{fill:#cd2e28;}.cls-6{fill:#ccc58b;}.cls-7{fill:#ad2823;}.cls-8{fill:#b1ab73;}.cls-9{fill:#cdcfd0;}.cls-10{fill:#8f9194;}.cls-11{fill:#b3d88a;}.cls-12{fill:#32a749;}.cls-13{fill:#97bd72;}.cls-14{fill:#9a1b1e;}.cls-15{fill:#fff;}.cls-16{fill:#e3e4e5;}.cls-17{fill:#002b1b;}</style></defs><g id="Layer_1-2"><polygon class="cls-6" points="190.72 400 380.03 290.61 380.03 281.74 190.72 391.13 190.72 400"/><polygon class="cls-8" points="190.72 400 190.72 391.13 .03 280.94 .03 289.81 190.72 400"/><polygon class="cls-11" points="190.72 391.13 380.03 281.74 380.03 272.87 190.72 382.26 190.72 391.13"/><polygon class="cls-13" points="190.72 391.13 190.72 382.26 .03 272.08 .03 280.94 190.72 391.13"/><polygon class="cls-12" points="189.34 153.82 .03 263.21 190.72 373.39 380.03 264 189.34 153.82"/><polygon class="cls-2" points="190.72 382.26 380.03 272.87 380.03 264 190.72 373.39 190.72 382.26"/><polygon class="cls-4" points="190.72 382.26 190.72 373.39 .03 263.21 .03 272.08 190.72 382.26"/><polygon class="cls-17" points="250.59 194.58 71.62 298 190.72 366.77 369.69 263.36 250.59 194.58"/><polygon class="cls-15" points="274.39 116.77 95.45 220.16 95.45 311.77 162.48 273.09 174.41 260.58 220.7 233.83 233.34 232.07 274.39 208.37 274.39 116.77"/><polygon class="cls-16" points="274.39 116.77 95.45 220.16 9.5 170.5 188.39 67.07 274.39 116.77"/><polygon class="cls-14" points="131.84 185.14 77.79 153.91 77.79 136.06 131.84 167.29 131.84 185.14"/><polygon class="cls-5" points="211.86 121.06 131.84 167.29 131.84 185.14 211.86 138.9 211.86 121.06"/><polygon class="cls-16" points="187.59 109.23 142 135.58 102.27 112.62 147.86 86.28 187.59 109.23"/><polygon class="cls-16" points="211.86 121.06 131.84 167.29 77.79 136.06 157.8 89.82 211.86 121.06"/><polygon class="cls-14" points="142 153.42 102.25 130.45 102.25 112.61 142 135.58 142 153.42"/><polygon class="cls-5" points="187.53 109.27 142 135.58 142 153.42 187.53 127.12 187.53 109.27"/><ellipse class="cls-7" cx="144.93" cy="110.93" rx="10.08" ry="17.44" transform="translate(33.09 255.16) rotate(-89.64)"/><path class="cls-16" d="m141.63,116.27l5.27-3.04-5.97-3.45-5.27,3.04-2.69-1.55,12.55-7.25,2.69,1.55-4.93,2.85,5.97,3.45,4.93-2.85,2.71,1.57-12.55,7.25-2.71-1.57Z"/><polygon class="cls-3" points="269.02 129.48 101.21 226.45 101.21 236.72 269.02 139.75 269.02 129.48"/><polygon class="cls-3" points="269.02 142.33 101.21 239.3 101.21 249.58 269.02 152.61 269.02 142.33"/><polygon class="cls-3" points="269.02 168.35 217.07 198.37 217.07 208.64 269.02 178.62 269.02 168.35"/><polygon class="cls-3" points="269.02 181.2 217.07 211.23 217.07 221.5 269.02 191.48 269.02 181.2"/><polygon class="cls-3" points="269.02 155.19 101.21 252.16 101.21 262.44 269.02 165.47 269.02 155.19"/><polygon class="cls-3" points="269.02 194.06 217.07 224.09 217.07 234.36 269.02 204.34 269.02 194.06"/><polygon class="cls-3" points="240.3 260.83 212 244.48 212 204.16 240.3 220.51 240.3 260.83"/><polygon class="cls-7" points="240.3 217.63 186.48 248.73 158.18 232.37 212 201.28 240.3 217.63"/><polygon class="cls-5" points="186.48 248.73 186.48 291.93 193.44 287.91 193.44 255.13 233.34 232.07 233.34 264.85 240.3 260.83 240.3 217.63 186.48 248.73"/><polygon class="cls-14" points="186.48 291.93 158.18 275.57 158.18 232.37 186.48 248.73 186.48 291.93"/><polygon class="cls-9" points="186.48 246.35 181.98 243.75 181.98 238.59 186.48 241.19 186.48 246.35"/><polygon class="cls-15" points="236.96 217.62 232.46 220.21 232.46 215.06 236.96 212.46 236.96 217.62"/><path class="cls-15" d="m207.6,244.3v-1.99s-1.95,1.13-1.95,1.13v1.99s-.88.51-.88.51v-4.74s.88-.51.88-.51v1.86s1.95-1.13,1.95-1.13v-1.86s.89-.51.89-.51v4.74s-.89.51-.89.51Z"/><path class="cls-15" d="m209.09,241.72c0-.97.59-2.14,1.58-2.71.99-.57,1.59-.09,1.59.88,0,.98-.59,2.15-1.59,2.72-.99.57-1.58.09-1.58-.89Zm2.35-1.36c0-.53-.28-.83-.77-.55s-.76.9-.76,1.44c0,.54.27.84.76.56s.77-.91.77-1.45Z"/><path class="cls-15" d="m212.57,240.98l.34-.83c.22.11.66.09,1.03-.13.34-.2.5-.45.5-.66,0-.57-1.78.92-1.78-.43,0-.58.44-1.33,1.23-1.79.51-.29.91-.33,1.21-.23l-.32.8c-.18-.12-.52-.1-.89.11-.28.16-.47.42-.47.61,0,.51,1.77-.94,1.77.45,0,.63-.46,1.37-1.29,1.85-.52.3-1.02.39-1.34.24Z"/><path class="cls-15" d="m216.58,238.67v1.75l-.79.45v-4.74s.79-.45.79-.45v.43c.23-.47.56-.84.92-1.05.77-.44,1.33-.11,1.33,1.03,0,1.14-.56,2.13-1.33,2.57-.35.2-.68.22-.92,0Zm1.43-2.11c0-.59-.3-.82-.76-.56-.25.15-.54.49-.68.78v1.22c.13.14.42.15.68,0,.45-.26.76-.84.76-1.44Z"/><path class="cls-15" d="m219.32,233.18c0-.3.22-.66.47-.8s.47-.04.47.26c0,.3-.21.66-.47.81s-.47.03-.47-.27Zm.08,4.3v-3.43s.79-.45.79-.45v3.43s-.79.45-.79.45Z"/><path class="cls-15" d="m221.12,235.63v-1.79s-.5.29-.5.29v-.79l.5-.29v-.94l.79-.46v.94s.61-.35.61-.35v.79l-.61.35v1.55c0,.21.1.32.27.22.12-.07.23-.18.27-.26l.17.59c-.12.19-.33.41-.66.6-.55.32-.85.16-.85-.45Z"/><path class="cls-15" d="m224.86,234.33v-.36c-.2.4-.56.76-.95.99-.48.28-1.04.23-1.04-.54,0-.8.56-1.43,1.04-1.71.4-.23.75-.28.95-.13v-.46c0-.35-.26-.43-.66-.2-.32.19-.62.49-.87.91l-.3-.43c.37-.58.84-1.02,1.31-1.3.68-.39,1.31-.44,1.31.55v2.22s-.79.45-.79.45Zm0-.82v-.43c-.13-.12-.38-.08-.63.07-.31.18-.56.51-.56.84s.25.36.56.18c.25-.15.5-.39.63-.66Z"/><path class="cls-15" d="m226.42,233.42v-4.74s.79-.45.79-.45v4.74s-.79.45-.79.45Z"/><polygon class="cls-15" points="202.35 247.33 200.98 248.13 200.98 243.38 202.35 242.59 202.35 247.33"/><polygon class="cls-15" points="203.73 243.37 203.73 244.95 199.6 247.34 199.6 245.76 203.73 243.37"/><polygon class="cls-15" points="190.98 243.75 186.48 246.35 186.48 241.19 190.98 238.59 190.98 243.75"/><polygon class="cls-16" points="186.5 241.18 182 238.58 186.47 236 190.97 238.6 186.5 241.18"/><polygon class="cls-9" points="232.46 220.21 227.97 217.62 227.97 212.46 232.46 215.06 232.46 220.21"/><polygon class="cls-16" points="232.48 215.05 227.98 212.45 232.45 209.87 236.94 212.47 232.48 215.05"/><polygon class="cls-9" points="95.5 311.79 9.5 262.1 9.5 170.5 95.5 220.19 95.5 311.79"/><polygon class="cls-14" points="80.79 234.18 80.79 223.93 71.86 218.77 71.86 229.02 62.93 223.86 62.93 234.11 71.86 239.27 71.86 249.51 80.79 254.67 80.79 244.43 89.72 249.59 89.72 239.34 80.79 234.18"/><polygon class="cls-3" points="153.64 234.98 101.21 265.28 101.21 275.56 153.64 245.26 153.64 234.98"/><polygon class="cls-3" points="153.64 247.82 101.21 278.11 101.21 288.39 153.64 258.09 153.64 247.82"/><polygon class="cls-3" points="153.64 260.7 101.21 291 101.21 301.27 153.64 270.98 153.64 260.7"/><polygon class="cls-10" points="62.91 249.81 89.72 265.3 89.72 275.58 62.91 260.09 62.91 249.81"/><polygon class="cls-10" points="62.91 262.65 89.72 278.14 89.72 288.41 62.91 272.93 62.91 262.65"/><polygon class="cls-10" points="62.91 275.53 89.72 291.02 89.72 301.3 62.91 285.81 62.91 275.53"/><rect class="cls-1" width="380" height="400"/></g></svg>