<?xml version="1.0" encoding="UTF-8"?><svg id="Layer_2" xmlns="http://www.w3.org/2000/svg" viewBox="0 0 180 200"><defs><style>.cls-1{fill:none;}.cls-1,.cls-2,.cls-3,.cls-4,.cls-5,.cls-6,.cls-7,.cls-8,.cls-9,.cls-10,.cls-11,.cls-12,.cls-13,.cls-14,.cls-15,.cls-16,.cls-17,.cls-18,.cls-19,.cls-20,.cls-21,.cls-22{stroke-width:0px;}.cls-23{font-family:NHaasGroteskDSPro-65Md, 'Neue Haas Grotesk Display Pro';font-size:12.76px;font-weight:500;}.cls-23,.cls-18{fill:#fff;}.cls-2{fill-rule:evenodd;}.cls-2,.cls-22{fill:#044023;}.cls-24{letter-spacing:0em;}.cls-3{fill:#266744;}.cls-4{fill:#47b05b;}.cls-5{fill:#a3a5a8;}.cls-6{fill:#2c9643;}.cls-7{fill:#195e39;}.cls-8{fill:#0f4f2e;}.cls-9{fill:#0a5432;}.cls-10{fill:#ccc58b;}.cls-11{fill:#abd47d;}.cls-12{fill:#b1ab73;}.cls-13{fill:#ced0d1;}.cls-14{fill:#cdcfd0;}.cls-15{fill:#b3d88a;}.cls-16{fill:#32a749;}.cls-17{fill:#97bd72;}.cls-19{fill:#e3e4e5;}.cls-20{fill:#002b1b;}.cls-21{fill:#004c23;}</style></defs><g id="Layer_1-2"><rect class="cls-1" width="180" height="200"/><polygon class="cls-10" points="90.33 198.98 180 147.21 180 138.24 90.33 190.01 90.33 198.98"/><polygon class="cls-12" points="90.33 198.98 90.33 190.01 0 137.86 0 146.83 90.33 198.98"/><polygon class="cls-15" points="90.33 190.01 180 138.24 180 129.26 90.33 181.03 90.33 190.01"/><polygon class="cls-17" points="90.33 190.01 90.33 181.03 0 128.88 0 137.86 90.33 190.01"/><polygon class="cls-16" points="89.67 68.14 0 119.91 90.33 172.06 180 120.29 89.67 68.14"/><polygon class="cls-4" points="90.33 181.03 180 129.26 180 120.29 90.33 172.06 90.33 181.03"/><polygon class="cls-6" points="90.33 181.03 90.33 172.06 0 119.91 0 128.88 90.33 181.03"/><polygon class="cls-20" points="171.15 120.5 126.82 94.91 117.77 100.13 131.63 108.13 70.36 143.5 19.27 114.01 8.87 120.01 90.31 167.17 171.15 120.5"/><polygon class="cls-18" points="132.41 81.82 67.26 119.44 67.26 143.56 132.41 105.95 132.41 81.82"/><polygon class="cls-8" points="135.11 77.64 69.96 115.26 17.67 85.07 82.82 47.45 135.11 77.64"/><polygon class="cls-14" points="67.26 143.56 17.67 114.93 17.67 90.81 67.26 119.44 67.26 143.56"/><polygon class="cls-5" points="128.69 88.5 70.98 121.82 70.98 141.41 128.69 108.09 128.69 88.5"/><polygon class="cls-3" points="139.42 84.31 74.26 121.93 74.26 123.48 139.42 85.87 139.42 84.31"/><polygon class="cls-22" points="17.67 85.07 17.67 90.81 74.26 123.48 74.26 121.93 69.96 115.26 17.67 85.07"/><polygon class="cls-9" points="135.11 77.64 69.96 115.26 74.26 121.93 139.42 84.31 135.11 77.64"/><polygon class="cls-14" points="69.96 115.26 67.26 113.7 67.26 99.15 69.96 100.71 69.96 115.26"/><g id="door"><polygon class="cls-13" points="97.22 113.32 108.87 106.59 108.87 119.89 97.22 126.61 97.22 113.32"/><path class="cls-21" d="m108.58,107.08v12.64l-11.08,6.4v-12.64l11.08-6.4m.57-.98l-12.21,7.05v13.95l12.21-7.05v-13.95h0Z"/></g><polygon class="cls-11" points="84.49 153.51 72 146.3 72.81 145.83 85.31 153.04 84.49 153.51"/><polygon class="cls-11" points="148.83 116.37 136.34 109.15 137.15 108.68 149.65 115.9 148.83 116.37"/><polygon class="cls-11" points="140.79 120.86 128.3 113.64 128.81 113.35 141.6 120.39 140.79 120.86"/><polygon class="cls-11" points="132.75 125.52 120.25 118.31 121.07 117.84 133.56 125.05 132.75 125.52"/><polygon class="cls-11" points="92.53 148.85 80.04 141.63 80.85 141.16 93.35 148.38 92.53 148.85"/><polygon class="cls-11" points="100.58 144.18 88.08 136.97 88.9 136.5 101.39 143.71 100.58 144.18"/><polygon class="cls-11" points="108.62 139.52 96.13 132.3 96.94 131.83 109.43 139.05 108.62 139.52"/><polygon class="cls-11" points="124.7 130.19 112.21 122.97 113.02 122.5 125.52 129.72 124.7 130.19"/><polygon class="cls-11" points="72 146.3 67.26 143.56 132.41 105.95 137.15 108.68 72 146.3"/><polygon class="cls-7" points="135.11 63.09 69.96 100.71 69.96 115.26 135.11 77.64 135.11 63.09"/><polygon class="cls-19" points="135.11 63.09 69.96 100.71 67.26 99.15 132.41 61.53 135.11 63.09"/><text class="cls-23" transform="translate(71.68 111.36) rotate(-30) scale(1.01 .87) skewX(-26.4)"><tspan x="0" y="0">GROCERI</tspan><tspan class="cls-24" x="55.27" y="0">E</tspan><tspan x="63.1" y="0">S</tspan></text><path id="Shape" class="cls-2" d="m53.24,129.1c-.9-.52-1.64-.1-1.64.93,0,1.03.74,2.31,1.64,2.83s1.64.1,1.64-.93c0-1.03-.74-2.31-1.64-2.83h0Zm-4.92-17.89v1.88s1.64.95,1.64.95l2.95,8.85-1.15,1.59c-.08.23-.16.56-.16.85,0,1.03.74,2.31,1.64,2.83l9.84,5.68v-1.88s-9.52-5.49-9.52-5.49c-.08-.05-.16-.19-.16-.28v-.09s.74-1.17.74-1.17l6.07,3.5c.66.38,1.15.29,1.39-.14l2.95-4.41c.16-.09.16-.19.16-.38,0-.56-.33-1.13-.82-1.41l-12.14-7.01-.74-2.31-2.71-1.56h0Zm13.13,22.62c-.9-.52-1.64-.1-1.64.93,0,1.03.74,2.31,1.64,2.83s1.64.1,1.64-.93c0-1.03-.74-2.31-1.64-2.83h0Z"/></g></svg>