<?xml version="1.0" encoding="utf-8"?>
<!-- Generator: Adobe Illustrator 28.0.0, SVG Export Plug-In . SVG Version: 6.00 Build 0)  -->
<svg version="1.1" id="Layer_2_00000114769496500227785540000012694769028312109478_"
	 xmlns="http://www.w3.org/2000/svg" xmlns:xlink="http://www.w3.org/1999/xlink" x="0px" y="0px" viewBox="0 0 186 156.6"
	 style="enable-background:new 0 0 186 156.6;" xml:space="preserve">
<style type="text/css">
	.st0{fill:#CCC58B;}
	.st1{fill:#B1AB73;}
	.st2{fill:#B3D88A;}
	.st3{fill:#97BD72;}
	.st4{fill:#32A749;}
	.st5{fill:#47B05B;}
	.st6{fill:#2C9643;}
	.st7{fill:#002B1B;}
	.st8{fill:#FFFFFF;}
	.st9{fill:#0F4F2E;}
	.st10{fill:#CDCFD0;}
	.st11{fill:#A3A5A8;}
	.st12{fill:#266744;}
	.st13{fill:#044023;}
	.st14{fill:#0A5432;}
	.st15{fill:#CED0D1;}
	.st16{fill:#004C23;}
	.st17{fill:#ABD47D;}
	.st18{fill:#195E39;}
	.st19{fill:#E3E4E5;}
	.st20{enable-background:new    ;}
	.st21{fill-rule:evenodd;clip-rule:evenodd;fill:#044023;}
</style>
<g id="Layer_1-2">
	<polygon class="st0" points="93.3,156.6 186,103.1 186,93.8 93.3,147.3 	"/>
	<polygon class="st1" points="93.3,156.6 93.3,147.3 0,93.4 0,102.7 	"/>
	<polygon class="st2" points="93.3,147.3 186,93.8 186,84.5 93.3,138 	"/>
	<polygon class="st3" points="93.3,147.3 93.3,138 0,84.2 0,93.4 	"/>
	<polygon class="st4" points="92.7,21.4 0,74.9 93.3,128.8 186,75.3 	"/>
	<polygon class="st5" points="93.3,138 186,84.5 186,75.3 93.3,128.8 	"/>
	<polygon class="st6" points="93.3,138 93.3,128.8 0,74.9 0,84.2 	"/>
	<polygon class="st7" points="176.9,75.5 131.1,49 121.7,54.4 136,62.7 72.7,99.2 19.9,68.8 9.2,75 93.3,123.7 	"/>
	<polygon class="st8" points="136.8,35.5 69.5,74.4 69.5,99.3 136.8,60.4 	"/>
	<polygon class="st9" points="139.6,31.2 72.3,70.1 18.3,38.9 85.6,0 	"/>
	<polygon class="st10" points="69.5,99.3 18.3,69.7 18.3,44.8 69.5,74.4 	"/>
	<polygon class="st11" points="133,42.4 73.3,76.8 73.3,97.1 133,62.7 	"/>
	<polygon class="st12" points="144.1,38.1 76.7,76.9 76.7,78.6 144.1,39.7 	"/>
	<polygon class="st13" points="18.3,38.9 18.3,44.8 76.7,78.6 76.7,76.9 72.3,70.1 	"/>
	<polygon class="st14" points="139.6,31.2 72.3,70.1 76.7,76.9 144.1,38.1 	"/>
	<polygon class="st10" points="72.3,70.1 69.5,68.5 69.5,53.4 72.3,55 	"/>
	<g id="door">
		<polygon class="st15" points="100.4,68.1 112.5,61.1 112.5,74.9 100.4,81.8 		"/>
		<path class="st16" d="M112.2,61.6v13.1l-11.5,6.6V68.2L112.2,61.6 M112.8,60.6l-12.6,7.3v14.4l12.6-7.3V60.6L112.8,60.6z"/>
	</g>
	<polygon class="st17" points="87.3,109.6 74.4,102.1 75.2,101.7 88.2,109.1 	"/>
	<polygon class="st17" points="153.8,71.2 140.9,63.8 141.7,63.3 154.6,70.7 	"/>
	<polygon class="st17" points="145.5,75.8 132.6,68.4 133.1,68.1 146.3,75.4 	"/>
	<polygon class="st17" points="137.2,80.7 124.3,73.2 125.1,72.7 138,80.2 	"/>
	<polygon class="st17" points="95.6,104.8 82.7,97.3 83.6,96.8 96.5,104.3 	"/>
	<polygon class="st17" points="103.9,99.9 91,92.5 91.9,92 104.8,99.5 	"/>
	<polygon class="st17" points="112.2,95.1 99.3,87.7 100.2,87.2 113.1,94.7 	"/>
	<polygon class="st17" points="128.9,85.5 115.9,78 116.8,77.6 129.7,85 	"/>
	<polygon class="st17" points="74.4,102.1 69.5,99.3 136.8,60.4 141.7,63.3 	"/>
	<polygon class="st18" points="139.6,16.2 72.3,55 72.3,70.1 139.6,31.2 	"/>
	<polygon class="st19" points="139.6,16.2 72.3,55 69.5,53.4 136.8,14.6 	"/>
	<g class="st20">
		<path class="st8" d="M80.7,60.9L80.7,60.9c-0.6,1.4-1.4,2.3-2.3,2.8c-1.2,0.7-2.2,0.8-2.9,0.3c-0.7-0.5-1.1-1.5-1.1-2.9
			c0-1.6,0.5-3.2,1.3-4.6c0.7-1.1,1.5-2,2.7-2.6c2.1-1.2,3.3-0.6,3.5,1.1L80.3,56c-0.2-0.8-0.8-1.1-1.9-0.5
			c-1.6,0.9-2.3,2.8-2.3,4.7c0,1.9,0.9,2.8,2.3,2c1.3-0.7,2.1-2.3,2.1-3.4v-0.1l-2,1.1l0-1.5l3.5-2l0,5l-1.3,0.7L80.7,60.9z"/>
		<path class="st8" d="M83.2,51.3l3.8-2.2c1.6-0.9,2.7-0.5,2.7,1.1c0,1.1-0.4,2.2-1.5,3.2v0c0.8-0.2,1.2,0.1,1.3,1.2
			c0.1,1.3,0.1,2.3,0.4,2.3V57l-1.6,0.9c-0.2,0-0.2-1-0.3-2c-0.1-1-0.6-1.3-1.6-0.7L84.8,56l0,3.8l-1.7,1L83.2,51.3z M84.8,54.5
			l1.8-1c0.9-0.5,1.4-1.3,1.4-2.1c0-0.8-0.4-1.1-1.3-0.6l-1.8,1.1L84.8,54.5z"/>
		<path class="st8" d="M90.3,51.9c0-2.8,1.5-5.8,4-7.2c2.4-1.4,4-0.2,4,2.6c0,2.8-1.5,5.8-4,7.2C91.9,56,90.3,54.8,90.3,51.9z
			 M96.5,48.3c0-1.9-0.7-2.9-2.2-2.1C92.8,47.2,92,49.1,92,51c0,1.9,0.8,2.9,2.3,2S96.5,50.2,96.5,48.3z"/>
		<path class="st8" d="M98.8,47.1c0-2.8,1.5-5.8,3.9-7.2c2-1.2,3.2-0.5,3.4,1.2l-1.7,1c-0.2-0.9-0.8-1.1-1.7-0.6
			c-1.5,0.9-2.2,2.8-2.2,4.6c0,1.9,0.9,2.8,2.3,2c1-0.6,1.7-1.6,1.8-2.7l1.6-0.9c0,0.9-0.4,1.8-0.9,2.8c-0.6,0.9-1.4,1.8-2.5,2.4
			C100.5,51,98.8,49.9,98.8,47.1z"/>
		<path class="st8" d="M107,37.5l6.1-3.5l0,1.6l-4.4,2.5l0,2.1l3.8-2.2l0,1.6l-3.8,2.2l0,2.6l4.4-2.6l0,1.6l-6.1,3.5L107,37.5z"/>
		<path class="st8" d="M114.2,33.4l3.8-2.2c1.6-0.9,2.7-0.5,2.7,1.1c0,1.1-0.4,2.2-1.5,3.2v0c0.8-0.2,1.2,0.1,1.3,1.2
			c0.1,1.3,0.1,2.3,0.4,2.3v0.1l-1.6,0.9c-0.2,0-0.2-1-0.3-2c-0.1-1-0.6-1.3-1.6-0.7l-1.3,0.8l0,3.8l-1.7,1L114.2,33.4z M115.9,36.6
			l1.8-1c0.9-0.5,1.4-1.3,1.4-2.1c0-0.8-0.4-1.1-1.3-0.6l-1.8,1.1L115.9,36.6z"/>
		<path class="st8" d="M121.7,29.1l1.7-1l0,9.5l-1.7,1L121.7,29.1z"/>
	</g>
	<g class="st20">
		<path class="st8" d="M124.6,27.4l6.1-3.5l0,1.6l-4.4,2.5l0,2.1l3.8-2.2l0,1.6l-3.8,2.2l0,2.6l4.4-2.6v1.6l-6.1,3.5L124.6,27.4z"/>
	</g>
	<g class="st20">
		<path class="st8" d="M131.4,30l1.6-0.9c0.1,1.1,0.7,1.2,1.9,0.5c0.9-0.5,1.6-1.3,1.6-2.1c0-0.9-0.8-0.7-2-0.3
			c-1.5,0.5-2.8,0.8-2.8-1.2c0-1.9,1.3-3.6,3.2-4.7c1.9-1.1,3.1-0.7,3.2,1.1l-1.6,0.9c-0.1-0.9-0.7-1-1.6-0.5
			c-0.9,0.5-1.5,1.3-1.5,2c0,0.8,0.6,0.7,1.8,0.3c1.7-0.6,3.1-0.9,3.1,1.1c0,1.9-1.3,3.8-3.2,4.8C132.7,32.4,131.4,32,131.4,30z"/>
	</g>
	<path id="Shape" class="st21" d="M55,84.4c-0.9-0.5-1.7-0.1-1.7,1c0,1.1,0.8,2.4,1.7,2.9s1.7,0.1,1.7-1S56,84.9,55,84.4L55,84.4z
		 M49.9,65.9v1.9l1.7,1l3,9.2l-1.2,1.7c-0.1,0.2-0.2,0.6-0.2,0.9c0,1.1,0.8,2.4,1.7,2.9l10.2,5.9v-1.9l-9.8-5.7
		c-0.1-0.1-0.2-0.2-0.2-0.3v-0.1l0.8-1.2l6.3,3.6c0.7,0.4,1.2,0.3,1.4-0.1l3-4.6c0.2-0.1,0.2-0.2,0.2-0.4c0-0.6-0.3-1.2-0.8-1.5
		l-12.5-7.2l-0.8-2.4L49.9,65.9L49.9,65.9L49.9,65.9z M63.5,89.3c-0.9-0.5-1.7-0.1-1.7,1c0,1.1,0.8,2.4,1.7,2.9
		c0.9,0.5,1.7,0.1,1.7-1C65.2,91.1,64.4,89.8,63.5,89.3L63.5,89.3z"/>
</g>
</svg>
