<?xml version="1.0" encoding="UTF-8"?><svg id="Layer_2" xmlns="http://www.w3.org/2000/svg" viewBox="0 0 304.67 251.65"><defs><style>.cls-1{fill:#abd47d;}.cls-1,.cls-2{stroke-width:0px;}.cls-2{fill:#002010;}</style></defs><g id="Layer_2-2"><path class="cls-2" d="m304.18,45.11v-.29l-.24.14v-.29l-.24.14v-.29l-.24.14v-.29l-.24.14v-.29l-.24.14v-.29l-.24.14v-.29l-.24.14v-.29l-.24.14v-.29l-.24.14v-.29l-.24.14v-.29l-.24.14v-.29l-.24.14v-.29l-.24.14v-.28l-.24.14v-.28l-.24.14v-.28l-.24.14v-.29l-.24.14v-.28l-.24.14v-.28l-.24.14v-.28l-.24.14v-.29l-.24.14v-.29l-.24.14v-.29l-.24.14v-.29l-.24.14v-.29l-.24.14v-.29l-.24.14v-.29l-.24.14v-.29l-.24.14v-.29l-.24.14v-.28l-.24.14v-.28l-.24.14v-.28l-.24.14v-.29l-.24.14v-.28l-.24.14v-.29l-.24.14v-.28l-.24.14v-.29l-.24.14v-.29l-.24.14v-.29l-.24.14v-.29l-.24.14v-.29l-.24.14v-.29l-.24.14v-.29l-.24.14v-.29l-.24.14v-.29l-.24.14v-.29l-.24.14v-.29l-.24.14v-.29l-.24.14v-.29l-.24.14v-.29l-.24.14v-.29l-.24.14v-.29l-.24.14v-.29l-.24.14v-.29l-.24.14v-.29l-.24.14v-.29l-.24.14v-.28l-.24.14v-.29l-.24.14v-.29l-.24.14v-.29l-.24.14v-.29l-.24.14v-.29l-.24.14v-.29l-.24.14v-.29l-.24.14v-.29l-.24.14v-.29l-.24.14v-.29l-.24.14v-.29l-.24.14v-.29l-.24.14v-.29l-.24.14v-.29l-.24.14v-.29l-.24.14v-.28l-.24.14v-.29l-.24.14v-.29l-.24.14v-.29l-.24.14v-.29l-.24.14v-.29l-.24.14v-.29l-.24.14v-.29l-.24.14v-.29l-.24.14v-.29l-.24.14v-.29l-.24.14v-.29l-11.55,6.75v2l-.32.18.16-.38-.4.23.16-.38-.4.23.16-.38-.4.23.16-.38-.4.23.16-.38-.4.23.16-.38-.4.23.16-.38-11.86,6.94-.58,1.5v-4.36l10.7-32.79-.36.21.11-.35-.36.21.12-.35-.36.21.11-.35-.36.21.11-.35-.36.21.11-.35-.36.21.11-.35-.36.21.11-.35-.36.21.11-.35-.36.21.11-.35-.36.21.11-.35-.36.21.11-.35-.36.21.11-.35-.36.21.11-.35-.36.21.12-.35-.36.21.11-.35-.36.21.11-.35-.36.21.11-.35-.36.21.11-.35-.36.21.11-.35-.36.21.11-.35-.36.21.12-.35-.36.21.11-.35-.36.21.11-.35-.36.21.11-.35-.36.21.11-.35-.36.21.12-.35-.36.21.11-.35-.36.21.11-.35-.36.21.11-.35-.36.21.11-.35-.36.21.11-.35-.36.21.11-.35-.36.21.12-.35-.36.21.11-.35-.36.21.12-.35-.36.21.11-.35-.36.21.11-.35-.36.21.11-.35-.36.21.11-.35-.36.21.11-.35-.36.21.11-.35-.36.21.11-.35-.36.21.11-.35-.36.21.11-.35-.36.21.12-.35-.36.21.11-.35-.36.21.11-.35-.36.21.11-.35-.36.21.11-.35-.36.21.11-.35-.36.21.11-.35-.36.21.11-.35-.36.21.11-.35-.36.21.11-.35-.36.21.11-.35-.36.21.11-.35-.36.21.12-.35-.36.21.11-.35-.36.21.12-.35-.36.21.11-.35-.36.21.11-.35-.36.21.11-.35-.36.21.11-.35-.36.21.12-.35-.36.21.11-.35-.36.21.11-.35-.36.21.11-.35-.36.21.11-.35-.36.21.12-.35-.36.21.11-.35-.36.21.12-.35-.36.21.11-.35-.36.21.11-.35-.36.21.11-.35-.36.21.11-.35-.36.21.12-.35-.36.21.11-.35-.36.21.12-.35-.36.21.11-.35-.36.21.11-.35-.36.21.11-.35-.36.21.11-.35-.36.21.12-.35-.36.21.11-.35-11.71,6.84-2.54,9.11s-.02.06-.03.09l-.14.08-.1-.23-.14.08-.1-.23-.14.08-.1-.23-.14.08-.1-.23-.14.08-.1-.23-.14.08-.1-.23-.14.08-.1-.23-.14.08-.1-.23-.14.08-.1-.23-.14.08-.1-.23-.14.08-.1-.23-.14.08-.1-.23-.14.08-.1-.23-.14.08-.1-.23-.14.08-.1-.23-.14.08-.1-.23-.14.08-.1-.23-.14.08-.1-.23-.14.08-.1-.23-.14.08-.1-.23-.14.08-.1-.23-.14.08-.1-.23-.14.08-.1-.23-.14.08-.1-.23-.14.08-.1-.23-.14.08-.1-.23-.14.08-.1-.23-12.09,7.07,4.95,9.37-.14.08-.07-.24-.17.1-.07-.24-.17.1-.07-.24-.17.1-.07-.24-.17.1-.07-.24-.17.1-.07-.24-.17.1-.07-.24-.17.1-.07-.24-.17.1-.07-.24-.17.1-.07-.24-.17.1-.07-.24-.17.1-.07-.24-.17.1-.07-.24-.17.1-.07-.24-.17.1-.07-.24-.17.1-.07-.24-.17.1-.07-.24-.17.1-.07-.24-.17.1-.07-.24-.17.1-.07-.24-.17.1-.07-.24-.17.1-.07-.24-.17.1-.07-.24-.17.1-.07-.24-.17.1-.07-.24-.17.1-.07-.24-.17.1-.07-.24-.17.1-.07-.24-.17.1-.07-.24-.17.1-.07-.24-.17.1-.07-.24-.17.1-.07-.24-.17.1-.07-.24-.17.1-.07-.24-.17.1-.07-.24-.17.1-.07-.24-.17.1-.07-.24-.17.1-.07-.24-.17.1-.07-.24-.17.1-.07-.24-.17.1-.07-.24-.17.1-.07-.24-.17.1-.07-.24-14.21,8.3-1.74,8.14-.17.1.04-.31-.29.17.04-.31-.29.17.04-.31-.29.17.04-.31-.29.17.04-.31-.29.17.04-.31-.29.17.04-.31-.29.17.04-.31-.29.17.04-.31-.29.17.04-.31-.29.17.04-.31-.29.17.04-.31-.29.17.04-.31-.29.17.04-.31-.29.17.04-.31-.29.17.04-.31-.29.17.04-.31-.29.17.04-.31-.29.17.04-.31-.29.17.04-.31-.29.17.04-.31-.29.17.04-.31-.29.17.04-.31-.29.17.04-.31-.29.17.04-.31-11.26,6.58-.85,8.2-.06.03-.05-.26-.2.12-.05-.26-.2.12-.05-.26-.2.12-.05-.26-.2.12-.05-.26-.2.12-.05-.26-.2.12-.05-.26-.2.12-.05-.26-.2.12-.05-.26-.2.12-.05-.26-.2.12-.05-.26-.2.12-.05-.26-.2.12-.05-.26-.2.12-.05-.26-.2.12-.05-.26-.2.12-.05-.26-.2.12-.05-.26-.2.12-.05-.26-.2.12-.05-.26-.2.12-.05-.26-.2.12-.05-.26-.2.12-.05-.26-.2.12-.05-.26-.2.12-.05-.26-.2.12-.05-.26-.2.12-.05-.26-.2.12-.05-.26-9.79,5.72-1.06,8.03-.1.06-.04-.26-.21.12-.04-.26-.21.12-.04-.26-.21.12-.04-.26-.21.12-.04-.26-.21.12-.04-.26-.21.12-.04-.26-.21.12-.04-.26-.21.12-.04-.26-.21.12-.04-.26-.21.12-.04-.26-.21.12-.04-.26-.21.12-.04-.26-.21.12-.04-.26-.21.12-.04-.26-.21.12-.04-.26-.21.12-.04-.26-.21.12-.04-.26-.21.12-.04-.26-.21.12-.04-.26-.21.12-.04-.26-.21.12-.04-.26-.21.12-.04-.26-.21.12-.04-.26-.21.12-.04-.26-.21.12-.04-.26-11.64,6.81,1.4,7.89c-.07-.05-.15-.08-.22-.12-.08-.05-.16-.09-.24-.14-.08-.05-.16-.09-.24-.14-.08-.05-.16-.09-.24-.14-.08-.05-.16-.09-.24-.14-.08-.05-.16-.09-.24-.14-.08-.05-.16-.09-.24-.14-.08-.05-.16-.09-.24-.14-.08-.05-.16-.09-.24-.14-.08-.05-.16-.09-.24-.14-.08-.05-.16-.09-.24-.14-.08-.05-.16-.09-.24-.14-.08-.05-.16-.09-.24-.14-.08-.05-.16-.09-.24-.14-.08-.05-.16-.09-.24-.14-.08-.05-.16-.09-.24-.14-.08-.05-.16-.09-.24-.14-.24-.17-.5-.31-.78-.42-2.07-.81-5.17,0-9.3,2.41l-18.02,10.53v3.99l-.15.09v-.29l-.24.14v-.29l-.24.14v-.28l-.24.14v-.28l-.24.14v-.29l-.24.14v-.28l-.24.14v-.28l-.24.14v-.29l-.24.14v-.28l-.24.14v-.29l-.24.14v-.29l-.24.14v-.29l-.24.14v-.29l-.24.14v-.29l-11.55,6.75v13.12l-.14.08-.07-.24-.17.1-.07-.24-.17.1-.07-.24-.17.1-.07-.24-.17.1-.07-.24-.17.1-.07-.24-.17.1-.07-.24-.17.1-.07-.24-.17.1-.07-.24-.17.1-.07-.24-.17.1-.07-.24-.17.1-.07-.24-.17.1-.07-.24-.17.1-.07-.24-.17.1-.07-.24-.17.1-.07-.24-.17.1-.07-.24-.17.1-.07-.24-.17.1-.07-.24-.17.1-.07-.24-.17.1-.07-.24-.17.1-.07-.24-.17.1-.07-.24-.17.1-.07-.24-.17.1-.07-.24-.17.1-.07-.24-.17.1-.07-.24-.17.1-.07-.24-.17.1-.07-.24-.17.1-.07-.24-.17.1-.07-.24-.17.1-.07-.24-.17.1-.07-.24-.17.1-.07-.24-.17.1-.07-.24-.17.1-.07-.24-.17.1-.07-.24-.17.1-.07-.24-.17.1-.07-.24-.17.1-.07-.24-.17.1-.07-.24-.17.1-.07-.24-.17.1-.07-.24-.17.1-.07-.24-.17.1-.07-.24-.17.1-.07-.24-14.21,8.3-1.8,8.45v-.27l-.24.14v-.29l-.24.14v-.28l-.24.14v-.29l-.24.14v-.29l-.24.14v-.29l-.24.14v-.29l-.24.14v-.29l-.24.14v-.29l-.24.14v-.29l-.24.14v-.29l-.24.14v-.29l-.24.14v-.28l-.24.14v-.29l-.24.14v-.28l-.24.14v-.28l-.24.14v-.29l-.24.14v-.29l-.24.14v-.29l-.24.14v-.29l-.24.14v-.28l-.24.14v-.29l-.24.14v-.28l-.24.14v-.28l-.24.14v-.29l-.24.14v-.29l-24.98,14.6v40.56l.24-.14v.29l.24-.14v.29l.24-.14v.29l.24-.14v.29l.24-.14v.29l.24-.14v.28l.24-.14v.28l.24-.14v.28l.24-.14v.29l.24-.14v.29l.24-.14v.29l.24-.14v.29l.24-.14v.29l.24-.14v.28l.24-.14v.28l.24-.14v.28l.24-.14v.29l.24-.14v.29l.24-.14v.29l.24-.14v.29l.24-.14v.29l.24-.14v.29l.24-.14v.29l.24-.14v.29l.24-.14v.29l.24-.14v.29l.24-.14v.28l.24-.14v.28l.24-.14v.29l.24-.14v.28l.24-.14v.29l.24-.14v.29l.24-.14v.29l.24-.14v.29l.24-.14v.28l.24-.14v.28l.24-.14v.29l.24-.14v.28l.24-.14v.29l.24-.14v.29l.24-.14v.29l.24-.14v.29l.24-.14v.29l.24-.14v.29l.24-.14v.29l.24-.14v.16c-1.72.52-3.65,1.4-5.78,2.64-5.68,3.32-9.9,7.53-12.68,12.64-.19.35-.36.72-.54,1.09l-.06.03v-.29l-.24.14v-.29l-.24.14v-.29l-.24.14v-.29l-.24.14v-.28l-.24.14v-.29l-.24.14v-.28l-.24.14v-.28l-.24.14v-.29l-.24.14v-.29l-.24.14v-.29l-.24.14v-.29l-.24.14v-.28l-.24.14v-.29l-.24.14v-.28l-.24.14v-.28l-.24.14v-.29l-.24.14v-.29L0,198.98v40.56l.24-.14v.29l.24-.14v.29l.24-.14v.29l.24-.14v.29l.24-.14v.29l.24-.14v.28l.24-.14v.29l.24-.14v.28l.24-.14v.29l.24-.14v.29l.24-.14v.29l.24-.14v.29l.24-.14v.29l.24-.14v.28l.24-.14v.29l.24-.14v.28l.24-.14v.29l.24-.14v.29l.24-.14v.29l.24-.14v.29l.24-.14v.29l.24-.14v.29l.24-.14v.29l.24-.14v.29l.24-.14v.29l.24-.14v.29l.24-.14v.28l.24-.14v.28l.24-.14v.28l.24-.14v.29l.24-.14v.29l.24-.14v.29l.24-.14v.29l.24-.14v.29l.24-.14v.28l.24-.14v.28l.24-.14v.28l.24-.14v.29l.24-.14v.29l.24-.14v.29l.24-.14v.29l.24-.14v.29l.24-.14v.29l.24-.14v.29l.24-.14v.29l.24-.14v.29l.24-.14v.29l.24-.14v.29l.24-.14v.28l.24-.14v.29l.24-.14v.28l.24-.14v.29l.24-.14v.29l.24-.14v.29l.24-.14v.29l.24-.14v.29l.24-.14v.28l.24-.14v.29l.24-.14v.28l.24-.14v.29l.24-.14v.29l.24-.14v.29l.24-.14v.29l.24-.14v.29l.24-.14v.29l.24-.14v.29l.24-.14v.29l.24-.14v.29l.24-.14v.29l.24-.14v.28l.24-.14v.28l.24-.14v.28l.24-.14v.29l.24-.14v.29l.24-.14v.29l.24-.14v.29l.24-.14v.29l.24-.14v.28l.24-.14v.28l.24-.14v.28l.24-.14v.29l.24-.14v.29l.24-.14v.29l.24-.14v.29l11.55-6.75v-15.59l8.52-4.98c.07.04.13.08.2.12.08.05.16.1.24.14.08.05.16.1.24.14.08.05.16.1.24.14.08.05.16.1.24.14.08.05.16.1.24.14.08.05.16.1.24.14.08.05.16.1.24.14.08.05.16.1.24.14.08.05.16.1.24.14.08.05.16.1.24.14.08.05.16.1.24.14.08.05.16.1.24.14.08.05.16.1.24.14.08.05.16.1.24.14.08.05.16.1.24.14.08.05.16.1.24.14.08.05.16.1.24.14.08.05.16.1.24.14.08.05.16.1.24.14.08.05.16.1.24.14.08.05.16.1.24.14.08.05.16.1.24.14.08.05.16.1.24.14.08.05.16.1.24.14.08.05.16.1.24.14.08.05.16.1.24.14.08.05.16.1.24.14.08.05.16.1.24.14.08.05.16.1.24.14.08.05.16.1.24.14.08.05.16.1.24.14.08.05.16.1.24.14.08.05.16.1.24.14.08.05.16.1.24.14.08.05.16.1.24.14.08.05.16.1.24.14.08.05.16.1.24.14.08.05.16.1.24.14.08.05.16.1.24.14.08.05.16.1.24.14,2.77,1.61,6.9.82,12.38-2.39,5.68-3.32,9.9-7.52,12.68-12.61.48-.88.9-1.79,1.29-2.73l.11-.06v.29l.24-.14v.29l.24-.14v.29l.24-.14v.29l.24-.14v.29l.24-.14v.29l.24-.14v.29l.24-.14v.28l.24-.14v.28l.24-.14v.28l.24-.14v.29l.24-.14v.29l.24-.14v.29l.24-.14v.29l.24-.14v.29l.24-.14v.28l.24-.14v.28l.24-.14v.28l.24-.14v.29l.24-.14v.29l.24-.14v.29l.24-.14v.29l11.55-6.75v-9.22s.03.05.05.07l.11-.06c.05.07.09.15.14.2l.11-.06c.05.07.09.15.14.2l.11-.06c.05.07.09.15.14.2l.11-.06c.05.07.09.15.14.2l.11-.06c.05.07.09.15.14.2l.11-.06c.05.07.09.15.14.2l.11-.06c.05.07.09.15.14.2l.11-.06c.05.07.09.15.14.2l.11-.06c.05.07.09.15.14.2l.11-.06c.05.07.09.15.14.2l.11-.06c.05.07.09.15.14.2l.11-.06c.05.07.09.15.14.2l.11-.06c.05.07.09.15.14.2l.11-.06c.05.07.09.15.14.2l.11-.06c.05.07.09.15.14.2l.11-.06c.05.07.09.15.14.2l.11-.06c.05.07.09.15.14.2l.11-.06c.05.07.09.15.14.2l.11-.06c.05.07.09.15.14.2l.11-.06c.05.07.09.15.14.2l.11-.06c.05.07.09.15.14.2l.11-.06c.05.07.09.15.14.2l.11-.06c.05.07.09.15.14.2l.11-.06c.05.07.09.15.14.2l.11-.06c.05.07.09.15.14.2l.11-.06c.05.07.09.15.14.2l.11-.06c.05.07.09.15.14.2l.11-.06c.05.07.09.15.14.2l.11-.06c.05.07.09.15.14.2l.11-.06c.05.07.09.15.14.2l.11-.06c.05.07.09.15.14.2l.11-.06c.05.07.09.15.14.2l12.29-7.18.09-.92c-.49-.21-.89-.67-1.19-1.36-.3-.69-.64-1.95-.99-3.77l-.71-3.73c-.25-1.26-.56-2.2-.94-2.8-.28-.45-.63-.77-1.04-.96-.08-.05-.16-.1-.24-.14-.08-.05-.16-.1-.24-.14-.08-.05-.16-.1-.24-.14-.08-.05-.16-.1-.24-.14-.08-.05-.16-.1-.24-.14-.08-.05-.16-.1-.24-.14-.08-.05-.16-.1-.24-.14-.08-.05-.16-.1-.24-.14-.05-.03-.11-.07-.16-.1,1.75-1.54,3.11-3.27,4.03-5.23.11-.24.2-.5.3-.74l.1-.06v.29l.24-.14v.28l.24-.14v.29l.24-.14v.29l.24-.14v.29l.24-.14v.29l.24-.14v.29l.24-.14v.28l.24-.14v.29l.24-.14v.28l.24-.14v.29l.24-.14v.29l.24-.14v.29l.24-.14v.29l.24-.14v.29l.24-.14v.29l.24-.14v.29l.24-.14v.29l.24-.14v.29l.24-.14v.29l.24-.14v.28l.24-.14v.28l.24-.14v.28l.24-.14v.29l.24-.14v.29l.24-.14v.29l.24-.14v.29l.24-.14v.29l.24-.14v.28l.24-.14v.28l.24-.14v.28l.24-.14v.29l.24-.14v.29l.24-.14v.29l.24-.14v.29l.24-.14v.29l.24-.14v.29l.24-.14v.29l.24-.14v.29l.24-.14v.29l.24-.14v.29l.24-.14v.29l.24-.14v.28l.24-.14v.29l.24-.14v.28l.24-.14v.29l.24-.14v.29l.24-.14v.29l.24-.14v.29l.24-.14v.29l.24-.14v.28l.24-.14v.29l.24-.14v.28l.24-.14v.29l.24-.14v.29l.24-.14v.29l.24-.14v.29l.24-.14v.29l.24-.14v.29l.24-.14v.29l.24-.14v.29l.24-.14v.29l.24-.14v.29l.24-.14v.28l.24-.14v.28l.24-.14v.28l.24-.14v.29l.24-.14v.29l.24-.14v.29l.24-.14v.29l.24-.14v.29l.24-.14v.28l.24-.14v.28l.24-.14v.28l.24-.14v.29l.24-.14v.29l.24-.14v.29l.24-.14v.29l11.55-6.75v-6.56l.21-.12-.07.33.31-.18-.07.33.31-.18-.07.33.31-.18-.07.33.31-.18-.07.33.31-.18-.07.33.31-.18-.07.33.31-.18-.07.33.31-.18-.07.33.31-.18-.07.33.31-.18-.07.33.31-.18-.07.33.31-.18-.07.33.31-.18-.07.33.31-.18-.07.33.31-.18-.07.33.31-.18-.07.33.31-.18-.07.33.31-.18-.07.33.31-.18-.07.33.31-.18-.07.33.31-.18-.07.33.31-.18-.07.33,11.22-6.56.83-4.92,6.28-3.67.03.14.19-.11.05.25.19-.11.05.25.19-.11.05.25.19-.11.05.25.19-.11.05.25.19-.11.05.25.19-.11.05.25.19-.11.05.25.19-.11.05.25.19-.11.05.25.19-.11.05.25.19-.11.05.25.19-.11.05.25.19-.11.05.25.19-.11.05.25,12.04-7.04-.56-1.95.07-.04v.29l.24-.14v.28l.24-.14v.28l.24-.14v.28l.24-.14v.29l.24-.14v.29l.24-.14v.29l.24-.14v.29l11.15-6.52v-6.56l.12-.07.07.24.17-.1.07.24.17-.1.07.24.17-.1.07.24.17-.1.07.24.17-.1.07.24.17-.1.07.24.17-.1.07.24.17-.1.07.24.17-.1.07.24.17-.1.07.24.17-.1.07.24.17-.1.07.24.17-.1.07.24.17-.1.07.24.17-.1.07.24.17-.1.07.24.17-.1.07.24.17-.1.07.24.17-.1.07.24.17-.1.07.24.17-.1.07.24.17-.1.07.24,8.03-4.69,1.31-5.9.1-.06v.29l.24-.14v.29l.24-.14v.29l.24-.14v.28l.24-.14v.28l.24-.14v.28l.24-.14v.29l.24-.14v.29l.24-.14v.29l.24-.14v.29l.24-.14v.29l.24-.14v.28l.24-.14v.28l.24-.14v.28l.24-.14v.29l.24-.14v.29l.24-.14v.29l.24-.14v.29l11.15-6.52v-1.43l.28-.17-.07.33.31-.18-.07.33.31-.18-.07.33.31-.18-.07.33.31-.18-.07.33,11.22-6.56.83-4.92,6.28-3.67.03.14.19-.11.05.25.19-.11.05.25.19-.11.05.25.19-.11.05.25.19-.11.05.25.19-.11.05.25.19-.11.05.25.19-.11.05.25.19-.11.05.25.19-.11.05.25.19-.11.05.25.19-.11.05.25.19-.11.05.25.19-.11.05.25.19-.11.05.25,12.04-7.04-.56-1.95.07-.04v.29l.24-.14v.28l.24-.14v.29l.24-.14v.29l.24-.14v.29l.24-.14v.29l.24-.14v.29l.24-.14v.29l11.55-6.75v-8.84l.09-.05.09.23.16-.09.09.23.16-.09.09.23.16-.09.09.23.16-.09.09.23.16-.09.09.23.16-.09.09.23.16-.09.09.23.16-.09.09.23.16-.09.09.23.16-.09.09.23.16-.09.09.23.16-.09.09.23.16-.09.09.23.16-.09.09.23.16-.09.09.23.16-.09.09.23.16-.09.09.23.16-.09.09.23.16-.09.09.23.16-.09.09.23.16-.09.09.23.16-.09.09.23.16-.09.09.23.16-.09.09.23.16-.09.09.23.16-.09.09.23.16-.09.09.23.16-.09.09.23.16-.09.09.23.16-.09.09.23,12.33-7.21-.96-2.01.2-.12v.29l.24-.14v.29l.24-.14v.28l.24-.14v.28l.24-.14v.28l.24-.14v.29l.24-.14v.29l.24-.14v.29l.24-.14v.29l11.55-6.75v-40.56l-.24.14Zm-64.46,16.01v.29l.09-.05v5.27l-1.79-6.22.23-.14v.28l.24-.14v.29l.24-.14v.29l.24-.14v.29l.24-.14v.29l.24-.14v.29l.24-.14Zm-57.08,39.08l-.1.06.44-3.4.09-.05.04.26.2-.12.04.26.2-.12.04.26.2-.12.04.26.2-.12.04.26.2-.12.04.26.2-.12.04.26.2-.12.04.26.2-.12.04.26.2-.12.04.26.2-.12.04.26.2-.12.04.26.2-.12.04.26.2-.12.04.26.2-.12.04.26.2-.12v.09s-.83,3.25-.83,3.25l-.09-.23-.15.09-.09-.23-.15.09-.09-.23-.15.09-.09-.23-.15.09-.09-.23-.15.09-.09-.23-.15.09-.09-.23-.15.09-.09-.23-.15.09-.09-.23-.15.09-.09-.23-.15.09-.09-.23-.15.09-.09-.23-.15.09-.09-.23-.15.09-.09-.23Zm-113.6,55.57l-.05.25v-.22l.05-.03Zm-.05.32l.3-.17-.07.33.31-.18-.07.33.31-.18-.07.33.31-.18-.07.33.31-.18-.07.33.31-.18-.07.33.31-.18-.07.33.31-.18-.07.33.31-.18-.07.33.31-.18h0s-2.49,1.46-2.49,1.46v-2.57Zm170.82-84.17l-.14.08-.07-.24-.17.1-.07-.24-.17.1-.07-.24-.17.1-.07-.24-.17.1-.07-.24-.17.1-.07-.24-.17.1-.07-.24-.17.1-.07-.24-.17.1h0s2.09-1.23,2.09-1.23v2.29Zm-1.86-11.75l.06-.03v.24l-.06-.21ZM61.6,174.95s0,0,0,0c-.08-.05-.16-.1-.24-.14-.08-.05-.16-.1-.24-.14-.08-.05-.16-.1-.24-.14-.08-.05-.16-.1-.24-.14,0,0,0,0,0,0l.99-.58v1.15Zm47.6-13.1c-.08-.05-.16-.09-.24-.14-.08-.05-.16-.09-.24-.14-.08-.05-.16-.09-.24-.14-.08-.05-.16-.09-.24-.14-.08-.05-.16-.09-.24-.14-.08-.05-.16-.09-.24-.14-.08-.05-.16-.09-.24-.14-.08-.05-.16-.09-.24-.14-.08-.05-.16-.09-.24-.14-.08-.05-.16-.09-.24-.14-.08-.05-.16-.09-.24-.14-.08-.05-.16-.09-.24-.14-.08-.05-.16-.09-.24-.14-.08-.05-.16-.09-.24-.14-.08-.05-.16-.09-.24-.14-.08-.05-.16-.09-.24-.14-.08-.05-.16-.09-.24-.14-.08-.05-.16-.09-.24-.14-.08-.05-.16-.09-.24-.14-.08-.05-.16-.09-.24-.14-.08-.05-.16-.09-.24-.14-.08-.05-.16-.09-.24-.14-.08-.05-.16-.09-.24-.14-.08-.05-.16-.09-.24-.14-.08-.05-.16-.09-.24-.14-.08-.05-.16-.1-.24-.14-.08-.05-.16-.09-.24-.14-.08-.05-.16-.09-.24-.14-.08-.05-.16-.09-.24-.14-.08-.05-.16-.09-.24-.14-.08-.05-.16-.09-.24-.14-.08-.05-.16-.09-.24-.14-.08-.05-.16-.09-.24-.14-.08-.05-.16-.09-.24-.14-.08-.05-.16-.09-.24-.14-.08-.05-.16-.09-.24-.14-.08-.05-.16-.09-.24-.14-.08-.05-.16-.09-.24-.14-.08-.05-.16-.09-.24-.14-.08-.05-.16-.09-.24-.14-.08-.05-.16-.09-.24-.14-.08-.05-.16-.09-.24-.14-.08-.05-.16-.09-.24-.14-.08-.05-.16-.09-.24-.14-.08-.05-.16-.09-.24-.14-.08-.05-.16-.09-.24-.14-.08-.05-.16-.09-.24-.14-.08-.05-.16-.09-.24-.14-.08-.05-.16-.09-.24-.14-.08-.05-.16-.09-.24-.14-.08-.05-.16-.09-.24-.14-.08-.05-.16-.09-.24-.14-.08-.05-.16-.09-.24-.14-.08-.05-.16-.09-.24-.14-.08-.05-.16-.09-.24-.14-.08-.05-.16-.09-.24-.14-.08-.05-.16-.09-.24-.14-.08-.05-.16-.09-.24-.14-.08-.05-.16-.09-.24-.14-.08-.05-.16-.09-.24-.14-.08-.05-.16-.09-.24-.14-.08-.05-.16-.09-.24-.14-.08-.05-.16-.09-.24-.14-.08-.05-.16-.09-.24-.14-.08-.05-.16-.09-.24-.14-.08-.05-.16-.09-.24-.14-.08-.05-.16-.09-.24-.14-.08-.05-.16-.09-.24-.14-.08-.05-.16-.1-.24-.14,0,0,0,0-.01,0l.12-.69,6.28-3.67.03.14.19-.11.05.25.19-.11.05.25.19-.11.05.25.19-.11.05.25.19-.11.05.25.19-.11.05.25.19-.11.05.25.19-.11.05.25.19-.11.03.15v2l.24-.14v.29l.24-.14v.29l.24-.14v.29l.24-.14v.29l.24-.14v.29l.24-.14v.28l.24-.14v.29l.24-.14v.28l.24-.14v.29l.24-.14v.29l.24-.14v.29l.24-.14v.29l.24-.14v.29l.24-.14v.28l.24-.14v.29l.24-.14v.28l.24-.14v.29l.24-.14v.29l.24-.14v.29l.24-.14v.29l.24-.14v.29l.24-.14v.29l.24-.14v.29l.24-.14v.29l.24-.14v.29l.24-.14v.29l.24-.14v.28l.24-.14v.28l.24-.14v.28l.24-.14v.29l.24-.14v.29l.24-.14v.29l.24-.14v.29l.24-.14v.29l.24-.14v.28l.1-.06v6.17s-.1-.05-.15-.08c-.08-.05-.16-.09-.24-.14Zm163.19-119.83l-.07.04.07-.17v.13Zm-51.72-13.18h-.01s-.02-.07-.02-.07l.04.07Zm3.17,102.08l.04-.02-.04.19v-.17Zm66.78-40.18l.07-.04v.18l-.07-.14Z"/><path class="cls-1" d="m69.24,169.62l-11.55,6.75v-40.56l24.98-14.6v10.28l-13.42,7.85v5.27l12.06-7.05v9.42l-12.06,7.05v15.59Zm22.66-13.25l-11.22,6.56,9.88-46.33,14.21-8.3,9.97,34.73-12.04,7.04-.82-3.95-9.14,5.34-.83,4.92Zm2.52-14.89l5.8-3.39-1.54-7.59c-.45-2.29-.83-4.67-1.14-7.16l-.45.26c-.25,2.5-.63,5.33-1.14,8.49l-1.54,9.39Zm33.08-5.93l-11.55,6.75v-40.56l11.55-6.75v40.56Zm3.32-1.94v-40.56l18.02-10.53c4.13-2.42,7.23-3.22,9.3-2.41s3.1,3.21,3.1,7.21v.12c0,2.86-.53,5.41-1.59,7.65s-2.66,4.21-4.81,5.91v.61c1.03-.25,1.84-.31,2.45-.19.61.13,1.1.49,1.47,1.1.37.6.68,1.54.94,2.8l.71,3.73c.36,1.82.69,3.08.99,3.77s.7,1.14,1.19,1.36l-.09.92-12.29,7.18c-.3-.37-.54-.95-.73-1.75-.19-.8-.39-2.03-.61-3.7l-.45-3.21c-.15-1.13-.34-1.96-.58-2.49-.24-.53-.58-.81-1.03-.85-.45-.04-1.07.18-1.87.65l-2.59,1.51v14.43l-11.55,6.75Zm15.88-32.83c1.04-.61,1.8-1.31,2.27-2.11.48-.8.71-1.85.71-3.14v-.09c0-1.31-.24-2.1-.71-2.35-.48-.25-1.23-.08-2.27.53l-4.33,2.53v7.15l4.33-2.53Zm21.47,11l-6.53-36.74,11.64-6.81,2.3,16.73c.4,2.89.68,6.05.85,9.47l.45-.26c.33-3.96.71-7.55,1.14-10.78l2.56-19.43,9.79-5.72,2.88,16.34c.43,2.47.79,5.6,1.07,9.4l.49-.29c.24-3.77.52-7.23.85-10.37l2.01-19.34,11.26-6.58-6.24,44.21-14.43,8.43-1.67-10.73c-.15-.94-.32-2.33-.51-4.19-.19-1.86-.37-3.83-.54-5.92l-.47.27c-.15,2.23-.32,4.38-.51,6.46-.19,2.07-.36,3.68-.51,4.83l-1.63,12.68-14.23,8.32Zm49.8-29.11l-11.22,6.56,9.88-46.33,14.21-8.3,9.97,34.73-12.04,7.04-.83-3.95-9.14,5.35-.83,4.91Zm2.52-14.89l5.8-3.39-1.54-7.59c-.45-2.29-.82-4.67-1.14-7.16l-.45.26c-.25,2.5-.63,5.33-1.14,8.49l-1.54,9.39Zm26.56-2.11v-14.02l-10.7-20.28,12.09-7.07,2.68,6.05c.62,1.39,1.2,3.25,1.74,5.56l.47-.27c.56-3.04,1.14-5.56,1.72-7.58l2.54-9.11,11.71-6.84-10.7,32.79v14.02l-11.53,6.74ZM32.28,244.9l-11.55,6.75v-40.56l24.98-14.6v10.28l-13.42,7.85v5.27l12.06-7.05v9.42l-12.06,7.05v15.59Zm18.17-14.92c-2.77-1.85-4.16-6.31-4.16-13.4v-.12c0-7.15,1.39-13.27,4.16-18.38,2.77-5.11,7-9.32,12.68-12.64,5.68-3.32,9.9-4.05,12.68-2.18,2.77,1.87,4.16,6.37,4.16,13.52v.12c0,7.09-1.39,13.18-4.16,18.26s-7,9.29-12.68,12.61c-5.68,3.32-9.9,4.06-12.68,2.21Zm16.46-17.04c.83-1.92,1.24-4.36,1.24-7.31v-3.53c0-3.09-.41-5.15-1.24-6.17-.82-1.02-2.08-1.04-3.78-.05-1.68.98-2.94,2.47-3.77,4.46-.83,1.99-1.25,4.54-1.25,7.63v3.53c0,2.96.42,4.91,1.25,5.86.83.95,2.09.94,3.77-.04,1.69-.99,2.96-2.45,3.78-4.37Zm15.42,2.7v-40.56l18.02-10.53c4.13-2.42,7.23-3.22,9.3-2.41s3.1,3.21,3.1,7.21v.12c0,2.86-.53,5.41-1.59,7.65-1.06,2.24-2.67,4.21-4.81,5.91v.61c1.03-.25,1.84-.31,2.45-.19.61.13,1.1.49,1.47,1.1.37.6.68,1.54.94,2.8l.71,3.73c.36,1.82.69,3.07.99,3.77.31.69.7,1.14,1.19,1.36l-.09.92-12.29,7.18c-.3-.37-.54-.95-.73-1.75-.19-.8-.39-2.03-.61-3.7l-.45-3.22c-.15-1.13-.34-1.96-.58-2.49-.24-.53-.58-.81-1.03-.85-.45-.04-1.07.18-1.87.65l-2.59,1.51v14.43l-11.55,6.75Zm15.88-32.83c1.04-.61,1.8-1.31,2.27-2.11.48-.8.71-1.85.71-3.14v-.09c0-1.31-.24-2.1-.71-2.35-.48-.25-1.23-.08-2.27.53l-4.33,2.53v7.15l4.33-2.53Zm43.67-1.98l-11.55,6.75v-29.55l-8.63,5.04v-11.01l28.81-16.84v11.01l-8.63,5.04v29.55Zm16.72-9.78l-11.22,6.56,9.88-46.33,14.21-8.3,9.97,34.73-12.04,7.04-.83-3.95-9.14,5.34-.83,4.92Zm14.34-51.55l-17.06,9.97v-7.1l17.06-9.97v7.1Zm-11.82,36.66l5.8-3.39-1.54-7.59c-.45-2.29-.83-4.67-1.14-7.16l-.45.26c-.25,2.5-.63,5.33-1.14,8.49l-1.54,9.39Zm21.53.82v-40.56l13.89-8.12,4.28,11.11c.73,1.87,1.53,4.72,2.41,8.56l.47-.27c.89-4.83,1.7-8.63,2.43-11.42l4.17-16.03,13.78-8.06v40.56l-11.15,6.52v-12.83c0-2.68.09-5.46.27-8.33l-.45.17-5.37,24.23-8.03,4.69-5.35-17.96-.47.36c.18,2.97.27,5.64.27,8.01v12.83l-11.15,6.52Zm53.84-31.47l-11.22,6.56,9.88-46.33,14.21-8.3,9.97,34.73-12.04,7.04-.83-3.95-9.14,5.34-.83,4.92Zm2.52-14.89l5.8-3.39-1.54-7.59c-.45-2.29-.82-4.67-1.14-7.16l-.45.26c-.25,2.5-.63,5.33-1.14,8.49l-1.54,9.39Zm21.53.83v-40.56l11.55-6.75v5.88c0,1.81-.06,3.5-.19,5.06-.13,1.56-.35,3.36-.68,5.41h.45l7.96-20.76,11.86-6.94-8.72,21.12,9.14,19.19-12.33,7.21-4.59-12.5-2.9,6.79v10.08l-11.55,6.75Zm44.13-25.8l-11.55,6.75v-40.56l11.55-6.75v40.56Z"/></g></svg>