<?xml version="1.0" encoding="UTF-8"?><svg id="Layer_2" xmlns="http://www.w3.org/2000/svg" viewBox="0 0 180 145.74"><defs><style>.cls-1{stroke:#231f20;stroke-miterlimit:10;stroke-width:.28px;}.cls-1,.cls-2{fill:none;}.cls-2,.cls-3,.cls-4,.cls-5,.cls-6,.cls-7,.cls-8,.cls-9,.cls-10,.cls-11,.cls-12,.cls-13,.cls-14,.cls-15,.cls-16,.cls-17,.cls-18,.cls-19,.cls-20,.cls-21{stroke-width:0px;}.cls-22{font-family:NHaasGroteskDSPro-65Md, 'Neue Haas Grotesk Display Pro';font-size:5.63px;font-weight:500;}.cls-23{letter-spacing:-.09em;}.cls-3{fill:#4f3b23;}.cls-4{fill:#266744;}.cls-5{fill:#47b05b;}.cls-6{fill:#a3a5a8;}.cls-7{fill:#2c9643;}.cls-8{fill:#194132;}.cls-9{fill:#126532;}.cls-10{fill:#cd2e28;}.cls-11{fill:#ccc58b;}.cls-12{fill:#abd47d;}.cls-13{fill:#b1ab73;}.cls-14{fill:#ced0d1;}.cls-15{fill:#b3d88a;}.cls-16{fill:#32a749;}.cls-17{fill:#97bd72;}.cls-18{fill:#fff;}.cls-19{fill:#e3e4e5;}.cls-20{fill:#002b1b;}.cls-21{fill:#044023;}</style></defs><g id="Layer_2-2"><polygon class="cls-11" points="90.33 145.74 180 93.97 180 89.77 90.33 141.54 90.33 145.74"/><polygon class="cls-13" points="90.33 145.74 90.33 141.54 0 89.39 0 93.59 90.33 145.74"/><polygon class="cls-15" points="90.33 141.54 180 89.77 180 85.57 90.33 137.34 90.33 141.54"/><polygon class="cls-17" points="90.33 141.54 90.33 137.34 0 85.19 0 89.39 90.33 141.54"/><polygon class="cls-16" points="89.67 29.22 0 81 90.33 133.15 180 81.37 89.67 29.22"/><polygon class="cls-5" points="90.33 137.34 180 85.57 180 81.37 90.33 133.15 90.33 137.34"/><polygon class="cls-7" points="90.33 137.34 90.33 133.15 0 81 0 85.19 90.33 137.34"/><polygon class="cls-20" points="153.12 68.39 68.34 117.34 90.33 130.01 175.1 81.07 153.12 68.39"/><polygon class="cls-18" points="115.22 16.97 40.72 60.01 40.72 89.64 115.22 46.6 115.22 16.97"/><polygon class="cls-19" points="115.22 16.97 40.72 60.01 15.24 45.3 89.71 2.25 115.22 16.97"/><polygon class="cls-19" points="101.35 6.83 87.79 14.66 75.96 7.83 89.53 0 101.35 6.83"/><polygon class="cls-21" points="87.79 19.97 75.95 13.14 75.95 7.83 87.79 14.66 87.79 19.97"/><polygon class="cls-4" points="101.33 6.84 87.79 14.66 87.79 19.97 101.33 12.14 101.33 6.84"/><polygon class="cls-14" points="40.72 89.64 15.24 74.92 15.24 45.3 40.72 60.01 40.72 89.64"/><polygon class="cls-14" points="102.05 38.79 139.89 60.65 139.89 75.94 102.05 54.08 102.05 38.79"/><polygon class="cls-19" points="102.05 38.79 139.89 60.65 153.04 53.06 115.22 31.19 102.05 38.79"/><polygon class="cls-18" points="139.89 75.94 153.04 68.35 153.04 53.06 139.89 60.65 139.89 75.94"/><polygon class="cls-6" points="133.22 58.67 138.01 61.44 138.01 72.96 133.22 70.18 133.22 58.67"/><polygon class="cls-6" points="127.24 55.21 132.03 57.99 132.03 69.51 127.24 66.73 127.24 55.21"/><polygon class="cls-6" points="121.47 51.88 126.25 54.66 126.25 66.18 121.47 63.4 121.47 51.88"/><polygon class="cls-6" points="115.69 48.55 120.48 51.32 120.48 62.84 115.69 60.06 115.69 48.55"/><polygon class="cls-6" points="109.92 45.21 114.7 47.99 114.7 59.51 109.92 56.73 109.92 45.21"/><polygon class="cls-6" points="103.94 41.76 108.72 44.54 108.72 56.06 103.94 53.28 103.94 41.76"/><polygon class="cls-21" points="147.35 49.77 109.99 27.91 102.05 38.79 139.89 60.65 147.35 49.77"/><polyline class="cls-4" points="139.89 60.65 147.35 49.77 153.04 53.06"/><text class="cls-22" transform="translate(16.9 53.06) rotate(30) scale(1.01 .87) skewX(26.23)"><tspan class="cls-23" x="0" y="0">T</tspan><tspan x="2.93" y="0">ĀMAKI</tspan><tspan x="0" y="5.38">SCHOOL</tspan></text><polygon class="cls-9" points="34.99 92.95 9.5 78.24 15.24 74.92 40.72 89.64 34.99 92.95"/><path class="cls-3" d="m37.13,82.33l-.29-.29-1.56,1.3c0-.87.02-1.83.05-2.87h-.75s.16,7.22-.54,9.78h2.18s-.93-2.01-.94-6.52l1.85-1.4Z"/><path class="cls-20" d="m34.63,82.85c.67.03,1.3-.11,1.88-.42.6-.2,1.13-.53,1.57-1.01.48-.44.81-.97,1.01-1.57.31-.58.44-1.21.42-1.88l-.17-1.3c-.23-.83-.65-1.55-1.25-2.16-.95-.88-2.12-1.43-3.44-1.43-.67-.03-1.3.11-1.88.42-.6.2-1.13.53-1.57,1.01-.48.44-.81.97-1.01,1.57-.31.58-.44,1.21-.42,1.88l.17,1.3c.23.83.65,1.55,1.25,2.16.95.88,2.12,1.43,3.44,1.43h0Z"/><path class="cls-8" d="m37.53,83.54c.78,0,1.53-.69,1.49-1.5s-.66-1.5-1.49-1.5c-.78,0-1.53.69-1.49,1.5s.66,1.5,1.49,1.5h0Z"/><path class="cls-8" d="m33.29,84.06c.9,0,1.76-.79,1.72-1.72s-.76-1.72-1.72-1.72c-.9,0-1.76.79-1.72,1.72s.76,1.72,1.72,1.72h0Z"/><path class="cls-3" d="m17.51,70.95l-.29-.29-1.56,1.3c0-.87.02-1.83.05-2.87h-.75s.16,7.22-.54,9.78h2.18s-.93-2.01-.94-6.52l1.85-1.4Z"/><path class="cls-20" d="m15.01,71.46c.67.03,1.3-.11,1.88-.42.6-.2,1.13-.53,1.57-1.01.48-.44.81-.97,1.01-1.57.31-.58.44-1.21.42-1.88l-.17-1.3c-.23-.83-.65-1.55-1.25-2.16-.95-.88-2.12-1.43-3.44-1.43-.67-.03-1.3.11-1.88.42-.6.2-1.13.53-1.57,1.01-.48.44-.81.97-1.01,1.57-.31.58-.44,1.21-.42,1.88l.17,1.3c.23.83.65,1.55,1.25,2.16.95.88,2.12,1.43,3.44,1.43h0Z"/><path class="cls-8" d="m17.92,72.15c.78,0,1.53-.69,1.49-1.5s-.66-1.5-1.49-1.5c-.78,0-1.53.69-1.49,1.5s.66,1.5,1.49,1.5h0Z"/><path class="cls-8" d="m13.68,72.67c.9,0,1.76-.79,1.72-1.72s-.76-1.72-1.72-1.72c-.9,0-1.76.79-1.72,1.72s.76,1.72,1.72,1.72h0Z"/><path class="cls-3" d="m27.32,76.64l-.29-.29-1.56,1.3c0-.87.02-1.83.05-2.87h-.75s.16,7.22-.54,9.78h2.18s-.93-2.01-.94-6.52l1.85-1.4Z"/><path class="cls-20" d="m24.82,77.16c.67.03,1.3-.11,1.88-.42.6-.2,1.13-.53,1.57-1.01.48-.44.81-.97,1.01-1.57.31-.58.44-1.21.42-1.88l-.17-1.3c-.23-.83-.65-1.55-1.25-2.16-.95-.88-2.12-1.43-3.44-1.43-.67-.03-1.3.11-1.88.42-.6.2-1.13.53-1.57,1.01-.48.44-.81.97-1.01,1.57-.31.58-.44,1.21-.42,1.88l.17,1.3c.23.83.65,1.55,1.25,2.16.95.88,2.12,1.43,3.44,1.43h0Z"/><path class="cls-8" d="m27.72,77.84c.78,0,1.53-.69,1.49-1.5s-.66-1.5-1.49-1.5c-.78,0-1.53.69-1.49,1.5s.66,1.5,1.49,1.5h0Z"/><path class="cls-8" d="m23.49,78.36c.9,0,1.76-.79,1.72-1.72s-.76-1.72-1.72-1.72c-.9,0-1.76.79-1.72,1.72s.76,1.72,1.72,1.72h0Z"/><polygon class="cls-9" points="43.48 91.88 95.78 61.69 126.38 79.35 74.07 109.55 43.48 91.88"/><path class="cls-20" d="m95.78,62.34l29.46,17.01-51.17,29.54-29.46-17.01,51.17-29.54m0-1.31l-.57.33-51.17,29.54-1.7.98,1.7.98,29.46,17.01.57.33.57-.33,51.17-29.54,1.7-.98-1.7-.98-29.46-17.01-.57-.33h0Z"/><polygon class="cls-12" points="99.33 94.32 69.86 77.3 70.53 76.91 100 93.93 99.33 94.32"/><path class="cls-2" d="m95.89,79.47c-3.97-2.29-6.16-5.35-6.16-8.62s2.15-6.25,6.05-8.51c0,0,0,0,0,0h0s-51.17,29.54-51.17,29.54l29.46,17.01,50.79-29.32c-3.96,2.26-9.15,3.4-14.35,3.4s-10.58-1.17-14.62-3.5Z"/><path class="cls-2" d="m90.35,70.85c0,3.03,2.08,5.9,5.85,8.08,7.87,4.54,20.62,4.57,28.42.06,0,0,0,0,0,0l-28.2-16.28c-.11.06-.22.11-.33.17-3.7,2.14-5.74,4.97-5.74,7.97Z"/><path class="cls-2" d="m125.07,79.45l.17-.1h0c-.05.03-.11.06-.16.1Z"/><path class="cls-12" d="m124.63,78.99s0,0,0,0c-7.81,4.51-20.56,4.48-28.42-.06-3.77-2.18-5.85-5.05-5.85-8.08s2.04-5.83,5.74-7.97c.11-.06.22-.11.33-.17l-.64-.37s0,0,0,0c-3.9,2.25-6.05,5.28-6.05,8.51s2.19,6.33,6.16,8.62c4.04,2.33,9.33,3.5,14.62,3.5s10.39-1.13,14.35-3.4l.21-.12c.06-.03.11-.07.16-.1l-.61-.35Z"/><path class="cls-2" d="m79.06,100.63c0-3.03-2.08-5.9-5.85-8.08-3.95-2.28-9.14-3.42-14.31-3.42s-9.83,1.05-13.65,3.12l28.19,16.28c3.62-2.13,5.62-4.93,5.62-7.9Z"/><path class="cls-2" d="m95.78,62.34l-51.17,29.54h0c7.99-4.53,20.92-4.48,28.91.13,3.97,2.29,6.16,5.35,6.16,8.62s-2,6.02-5.63,8.25h.02s51.17-29.53,51.17-29.53l-29.46-17.01Z"/><path class="cls-12" d="m79.69,100.63c0-3.26-2.19-6.33-6.16-8.62-7.99-4.61-20.92-4.66-28.91-.13l.64.37c3.83-2.08,8.73-3.12,13.65-3.12,5.17,0,10.36,1.14,14.31,3.42,3.77,2.18,5.85,5.05,5.85,8.08s-2,5.77-5.62,7.9l.61.35c3.63-2.22,5.63-5.14,5.63-8.25Z"/><path class="cls-12" d="m84.95,88.08c-1.02,0-2.04-.22-2.82-.67-.81-.47-1.26-1.11-1.26-1.81s.44-1.32,1.24-1.79c1.54-.89,4.05-.88,5.61.01.81.47,1.26,1.11,1.26,1.81s-.44,1.32-1.24,1.79c-.77.44-1.78.66-2.79.66Zm-.05-4.32c-.9,0-1.79.2-2.48.59-.6.35-.93.79-.93,1.25s.34.92.95,1.27c1.38.8,3.62.8,4.99.01.6-.35.93-.79.93-1.25s-.34-.92-.95-1.27c-.69-.4-1.6-.6-2.51-.6Z"/><path class="cls-10" d="m110.14,62.56h.6v8.26c0,.17-.13.3-.3.3h0c-.17,0-.3-.13-.3-.3v-8.26h0Z"/><polygon class="cls-10" points="59.67 92.02 59.07 91.67 59.07 100.23 59.67 100.58 59.67 92.02"/><polygon class="cls-14" points="112.97 60.3 107.9 57.38 107.9 61.32 112.97 64.24 112.97 60.3"/><polygon class="cls-1" points="112.12 60.55 108.76 58.61 108.76 61.07 112.12 63.01 112.12 60.55"/><ellipse class="cls-1" cx="109.36" cy="62.71" rx=".93" ry="1.61" transform="translate(45.96 171.68) rotate(-89.64)"/><ellipse class="cls-1" cx="60.54" cy="91.67" rx=".93" ry="1.61" transform="translate(-31.51 151.63) rotate(-89.64)"/><polygon class="cls-14" points="61.9 90.44 56.84 87.52 56.84 91.46 61.9 94.38 61.9 90.44"/><polygon class="cls-6" points="49.4 71.74 44.62 74.52 44.62 84.12 49.4 81.34 49.4 71.74"/><polygon class="cls-6" points="71.48 58.98 66.69 61.76 66.69 71.36 71.48 68.58 71.48 58.98"/><polygon class="cls-6" points="65.96 62.17 61.17 64.95 61.17 74.55 65.96 71.77 65.96 62.17"/><polygon class="cls-6" points="54.92 68.55 50.14 71.33 50.14 80.93 54.92 78.15 54.92 68.55"/><polygon class="cls-6" points="60.44 65.36 55.66 68.14 55.66 77.74 60.44 74.96 60.44 65.36"/><polygon class="cls-6" points="49.4 59.36 44.62 62.13 44.62 71.73 49.4 68.95 49.4 59.36"/><polygon class="cls-6" points="71.48 46.6 66.69 49.37 66.69 58.97 71.48 56.19 71.48 46.6"/><polygon class="cls-6" points="65.96 49.79 61.17 52.56 61.17 62.16 65.96 59.38 65.96 49.79"/><polygon class="cls-6" points="54.92 56.17 50.14 58.94 50.14 68.54 54.92 65.76 54.92 56.17"/><polygon class="cls-6" points="60.44 52.98 55.66 55.75 55.66 65.35 60.44 62.57 60.44 52.98"/><polygon class="cls-6" points="77 55.79 72.21 58.57 72.21 68.17 77 65.39 77 55.79"/><polygon class="cls-6" points="99.07 43.03 94.29 45.81 94.29 55.41 99.07 52.63 99.07 43.03"/><polygon class="cls-6" points="93.55 46.22 88.77 49 88.77 58.6 93.55 55.82 93.55 46.22"/><polygon class="cls-6" points="82.52 52.6 77.73 55.38 77.73 64.98 82.52 62.2 82.52 52.6"/><polygon class="cls-6" points="88.04 49.41 83.25 52.19 83.25 61.79 88.04 59.01 88.04 49.41"/><polygon class="cls-6" points="77 43.41 72.21 46.18 72.21 55.78 77 53 77 43.41"/><polygon class="cls-6" points="99.07 30.65 94.29 33.42 94.29 43.02 99.07 40.24 99.07 30.65"/><polygon class="cls-6" points="93.55 33.84 88.77 36.61 88.77 46.21 93.55 43.43 93.55 33.84"/><polygon class="cls-6" points="82.52 40.22 77.73 42.99 77.73 52.59 82.52 49.81 82.52 40.22"/><polygon class="cls-6" points="88.04 37.03 83.25 39.8 83.25 49.4 88.04 46.62 88.04 37.03"/></g></svg>