<?xml version="1.0" encoding="utf-8"?>
<!-- Generator: Adobe Illustrator 28.0.0, SVG Export Plug-In . SVG Version: 6.00 Build 0)  -->
<svg version="1.1" id="Layer_2_00000090260312745772876930000012460203007238794168_"
	 xmlns="http://www.w3.org/2000/svg" xmlns:xlink="http://www.w3.org/1999/xlink" x="0px" y="0px" viewBox="0 0 388 323.5"
	 style="enable-background:new 0 0 388 323.5;" xml:space="preserve">
<style type="text/css">
	.st0{fill:#CCC58B;}
	.st1{fill:#B1AB73;}
	.st2{fill:#B3D88A;}
	.st3{fill:#97BD72;}
	.st4{fill:#32A749;}
	.st5{fill:#47B05B;}
	.st6{fill:#2C9643;}
	.st7{fill:#002B1B;}
	.st8{fill:#FFFFFF;}
	.st9{fill:#E3E4E5;}
	.st10{fill:#CED0D1;}
	.st11{fill:#A3A5A8;}
	.st12{fill:#044023;}
	.st13{fill:#266744;}
	.st14{enable-background:new    ;}
	.st15{fill:#126532;}
	.st16{fill:#4F3B23;}
	.st17{fill:#194132;}
	.st18{fill:#ABD47D;}
	.st19{fill:none;}
	.st20{fill:#CD2E28;}
	.st21{fill:none;stroke:#231F20;stroke-width:0.28;stroke-miterlimit:10;}
	.st22{fill:#1F5438;}
</style>
<g id="Layer_1-2">
	<polygon class="st0" points="194.7,323.5 388,211.9 388,202.9 194.7,314.5 	"/>
	<polygon class="st1" points="194.7,323.5 194.7,314.5 0,202.1 0,211.1 	"/>
	<polygon class="st2" points="194.7,314.5 388,202.9 388,193.8 194.7,305.4 	"/>
	<polygon class="st3" points="194.7,314.5 194.7,305.4 0,193 0,202.1 	"/>
	<polygon class="st4" points="193.3,72.4 0,184 194.7,296.4 388,184.8 	"/>
	<polygon class="st5" points="194.7,305.4 388,193.8 388,184.8 194.7,296.4 	"/>
	<polygon class="st6" points="194.7,305.4 194.7,296.4 0,184 0,193 	"/>
	<polygon class="st7" points="330,156.8 147.3,262.3 194.7,289.6 377.4,184.1 	"/>
	<polygon class="st8" points="248.4,46 87.8,138.7 87.8,202.6 248.4,109.8 	"/>
	<polygon class="st9" points="248.4,46 87.8,138.7 32.9,107 193.4,14.2 	"/>
	<polygon class="st10" points="87.8,202.6 32.9,170.9 32.9,107 87.8,138.7 	"/>
	<polygon class="st10" points="220,93 301.5,140.1 301.5,173.1 220,126 	"/>
	<polygon class="st9" points="220,93 301.5,140.1 329.9,123.8 248.4,76.6 	"/>
	<polygon class="st8" points="301.5,173.1 329.9,156.7 329.9,123.8 301.5,140.1 	"/>
	<polygon class="st11" points="287.2,135.9 297.5,141.8 297.5,166.7 287.2,160.7 	"/>
	<polygon class="st11" points="274.3,128.4 284.6,134.4 284.6,159.2 274.3,153.2 	"/>
	<polygon class="st11" points="261.8,121.2 272.1,127.2 272.1,152 261.8,146.1 	"/>
	<polygon class="st11" points="249.4,114 259.7,120 259.7,144.9 249.4,138.9 	"/>
	<polygon class="st11" points="236.9,106.8 247.2,112.8 247.2,137.7 236.9,131.7 	"/>
	<polygon class="st11" points="224,99.4 234.4,105.4 234.4,130.2 224,124.2 	"/>
	<polygon class="st12" points="317.6,116.7 237.1,69.6 220,93 301.5,140.1 	"/>
	<polyline class="st13" points="301.5,140.1 317.6,116.7 329.9,123.8 	"/>
	<g class="st14">
		<path d="M36.6,115.2l6.1,3.5l0,1.5l-2.3-1.3l0,7.2l-1.5-0.9l0-7.2l-2.3-1.3L36.6,115.2z"/>
	</g>
	<g class="st14">
		<path d="M44.6,119.8l1.6,0.9l2.6,10.2l-1.6-0.9l-0.5-2.1l-2.7-1.6l-0.5,1.6l-1.6-0.9L44.6,119.8z M43.9,117.6l3,1.7l0,1.2l-3-1.7
			L43.9,117.6z M44.4,125.2l2,1.2l-0.7-2.9c-0.1-0.5-0.3-1.5-0.3-1.5l0,0c0,0-0.2,0.8-0.3,1.2L44.4,125.2z"/>
		<path d="M49.5,122.6l2.2,1.2l1.1,5c0.3,1.2,0.5,2.6,0.5,2.6l0,0c0,0,0.2-1.1,0.5-2.1l1.1-3.7L57,127l0,8.7l-1.4-0.8l0-5
			c0-0.7,0.1-1.8,0.1-1.8l0,0c0,0-0.2,0.9-0.3,1.5l-1.3,4.4l-1.5-0.9l-1.3-5.9c-0.2-0.7-0.3-1.8-0.3-1.8l0,0c0,0,0.1,1.1,0.1,1.8
			l0,5l-1.4-0.8L49.5,122.6z"/>
		<path d="M60.2,128.8l1.6,0.9l2.6,10.2l-1.6-0.9l-0.5-2.1l-2.7-1.6l-0.5,1.6l-1.6-0.9L60.2,128.8z M60,134.2l2,1.2l-0.7-2.9
			c-0.1-0.5-0.3-1.5-0.3-1.5l0,0c0,0-0.2,0.8-0.3,1.2L60,134.2z"/>
		<path d="M65.1,131.7l1.5,0.9l0,3.5l2.9-1.8l1.9,1.1l-3,1.8l3.1,7l-1.8-1l-2.4-5.5l-0.8,0.5l0,3.2l-1.5-0.9L65.1,131.7z"/>
		<path d="M72.3,135.8l1.5,0.9l0,8.7l-1.5-0.9L72.3,135.8z"/>
	</g>
	<g class="st14">
		<path d="M36.6,132.8l1.5,0.9c0.1,1.1,0.6,1.8,1.7,2.4c0.8,0.5,1.5,0.5,1.5-0.3c0-0.9-0.7-1.4-1.9-2.4c-1.4-1.1-2.6-2.3-2.6-4.1
			c0-1.7,1.2-1.9,2.9-0.9c1.7,1,2.8,2.6,2.9,4.4l-1.5-0.9c-0.1-0.9-0.7-1.7-1.5-2.2c-0.8-0.5-1.4-0.4-1.4,0.2c0,0.7,0.5,1.2,1.7,2.1
			c1.6,1.3,2.8,2.5,2.8,4.3c0,1.8-1.3,2-3,1C37.8,136.4,36.6,134.7,36.6,132.8z"/>
		<path d="M43.4,135.1c0-2.6,1.4-3.7,3.7-2.4c1.9,1.1,3,3,3.1,4.7l-1.5-0.9c-0.1-1-0.7-1.9-1.6-2.4c-1.4-0.8-2.1,0.1-2.1,1.9
			c0,1.8,0.8,3.5,2.1,4.3c0.9,0.5,1.5,0.3,1.6-0.6l1.5,0.9c0,0.7-0.3,1.3-0.8,1.6c-0.5,0.3-1.3,0.2-2.3-0.4
			C44.9,140.5,43.4,137.8,43.4,135.1z"/>
		<path d="M51,135.2l1.5,0.9l0,3.4l3,1.7l0-3.4l1.5,0.9l0,8.7l-1.5-0.9l0-3.8l-3-1.7l0,3.8l-1.5-0.9L51,135.2z"/>
		<path d="M57.9,143.5c0-2.6,1.4-3.7,3.7-2.4c2.2,1.3,3.6,4,3.6,6.6c0,2.6-1.4,3.7-3.7,2.4C59.3,148.8,57.9,146.1,57.9,143.5z
			 M63.6,146.8c0-1.7-0.7-3.5-2.1-4.3c-1.4-0.8-2.1,0.1-2.1,1.9c0,1.7,0.7,3.5,2.1,4.3C62.9,149.5,63.6,148.5,63.6,146.8z"/>
		<path d="M65.7,148c0-2.6,1.4-3.7,3.7-2.4c2.2,1.3,3.6,4,3.6,6.6c0,2.6-1.4,3.7-3.7,2.4C67.1,153.4,65.7,150.6,65.7,148z
			 M71.5,151.3c0-1.7-0.7-3.5-2.1-4.3c-1.4-0.8-2.1,0.1-2.1,1.9c0,1.7,0.7,3.5,2.1,4.3C70.8,154,71.5,153.1,71.5,151.3z"/>
		<path d="M73.9,148.4l1.5,0.9l0,7.2l3.6,2.1l0,1.5l-5.1-2.9L73.9,148.4z"/>
	</g>
	<polygon class="st15" points="75.4,209.7 20.5,178 32.9,170.9 87.8,202.6 	"/>
	<path class="st16" d="M80,186.9l-0.6-0.6L76,189c0-1.9,0-3.9,0.1-6.2h-1.6c0,0,0.3,15.6-1.2,21.1h4.7c0,0-2-4.3-2-14.1L80,186.9
		L80,186.9z"/>
	<path class="st7" d="M74.7,188c1.4,0.1,2.8-0.2,4.1-0.9c1.3-0.4,2.4-1.1,3.4-2.2c1-0.9,1.8-2.1,2.2-3.4c0.7-1.2,1-2.6,0.9-4.1
		l-0.4-2.8c-0.5-1.8-1.4-3.3-2.7-4.6c-2.1-1.9-4.6-3.1-7.4-3.1c-1.4-0.1-2.8,0.2-4.1,0.9c-1.3,0.4-2.4,1.1-3.4,2.2
		c-1,0.9-1.8,2.1-2.2,3.4c-0.7,1.2-1,2.6-0.9,4.1c0.1,0.9,0.2,1.9,0.4,2.8c0.5,1.8,1.4,3.3,2.7,4.6C69.3,186.8,71.8,188,74.7,188
		L74.7,188z"/>
	<path class="st17" d="M80.9,189.5c1.7,0,3.3-1.5,3.2-3.2s-1.4-3.2-3.2-3.2c-1.7,0-3.3,1.5-3.2,3.2C77.8,188,79.1,189.5,80.9,189.5
		L80.9,189.5z"/>
	<path class="st17" d="M71.8,190.6c1.9,0,3.8-1.7,3.7-3.7c-0.1-2-1.6-3.7-3.7-3.7c-1.9,0-3.8,1.7-3.7,3.7S69.7,190.6,71.8,190.6
		L71.8,190.6z"/>
	<path class="st16" d="M37.8,162.3l-0.6-0.6l-3.4,2.8c0-1.9,0-3.9,0.1-6.2h-1.6c0,0,0.3,15.6-1.2,21.1h4.7c0,0-2-4.3-2-14.1
		L37.8,162.3L37.8,162.3z"/>
	<path class="st7" d="M32.4,163.4c1.5,0.1,2.8-0.2,4-0.9c1.3-0.4,2.4-1.1,3.4-2.2c1-0.9,1.8-2.1,2.2-3.4c0.7-1.2,1-2.6,0.9-4.1
		l-0.4-2.8c-0.5-1.8-1.4-3.3-2.7-4.6c-2-1.9-4.6-3.1-7.4-3.1c-1.5-0.1-2.8,0.2-4,0.9c-1.3,0.4-2.4,1.1-3.4,2.2
		c-1,0.9-1.8,2.1-2.2,3.4c-0.7,1.2-1,2.6-0.9,4.1c0.1,0.9,0.2,1.9,0.4,2.8c0.5,1.8,1.4,3.3,2.7,4.6C27,162.2,29.5,163.4,32.4,163.4
		L32.4,163.4z"/>
	<path class="st17" d="M38.6,164.9c1.7,0,3.3-1.5,3.2-3.2s-1.4-3.2-3.2-3.2c-1.7,0-3.3,1.5-3.2,3.2
		C35.5,163.4,36.8,164.9,38.6,164.9L38.6,164.9z"/>
	<path class="st17" d="M29.5,166c1.9,0,3.8-1.7,3.7-3.7c-0.1-2-1.6-3.7-3.7-3.7c-1.9,0-3.8,1.7-3.7,3.7S27.4,166,29.5,166
		C29.5,166,29.5,166,29.5,166z"/>
	<path class="st16" d="M58.9,174.6l-0.6-0.6l-3.4,2.8c0-1.9,0-3.9,0.1-6.2h-1.6c0,0,0.3,15.6-1.2,21.1h4.7c0,0-2-4.3-2-14.1
		L58.9,174.6L58.9,174.6z"/>
	<path class="st7" d="M53.5,175.7c1.5,0.1,2.8-0.2,4-0.9c1.3-0.4,2.4-1.1,3.4-2.2c1-0.9,1.8-2.1,2.2-3.4c0.7-1.2,1-2.6,0.9-4.1
		l-0.4-2.8c-0.5-1.8-1.4-3.3-2.7-4.6c-2-1.9-4.6-3.1-7.4-3.1c-1.5-0.1-2.8,0.2-4,0.9c-1.3,0.4-2.4,1.1-3.4,2.2
		c-1,0.9-1.8,2.1-2.2,3.4c-0.7,1.2-1,2.6-0.9,4.1c0.1,0.9,0.2,1.9,0.4,2.8c0.5,1.8,1.4,3.3,2.7,4.6
		C48.1,174.5,50.7,175.7,53.5,175.7C53.5,175.7,53.5,175.7,53.5,175.7z"/>
	<path class="st17" d="M59.8,177.2c1.7,0,3.3-1.5,3.2-3.2s-1.4-3.2-3.2-3.2c-1.7,0-3.3,1.5-3.2,3.2
		C56.6,175.7,57.9,177.2,59.8,177.2L59.8,177.2z"/>
	<path class="st17" d="M50.6,178.3c1.9,0,3.8-1.7,3.7-3.7c-0.1-2-1.6-3.7-3.7-3.7c-1.9,0-3.8,1.7-3.7,3.7S48.6,178.3,50.6,178.3
		L50.6,178.3z"/>
	<polygon class="st15" points="95,207.4 206.5,143.1 271.1,180.4 159.7,244.8 	"/>
	<path class="st7" d="M206.5,143.8l63.5,36.7l-110.3,63.7l-63.5-36.7L206.5,143.8 M206.5,142.4l-0.6,0.3L95.6,206.5l-1.7,1l1.7,1
		l63.5,36.7l0.6,0.3l0.6-0.3l110.3-63.7l1.7-1l-1.7-1L207,142.8L206.5,142.4L206.5,142.4z"/>
	<polygon class="st18" points="214.1,212.7 150.6,176 152,175.2 215.6,211.9 	"/>
	<path class="st19" d="M206.7,180.7c-8.6-4.9-13.3-11.5-13.3-18.6s4.6-13.5,13.1-18.3l0,0h0L96.2,207.4l63.5,36.7l109.5-63.2
		c-8.5,4.9-19.7,7.3-30.9,7.3S215.4,185.7,206.7,180.7L206.7,180.7z"/>
	<path class="st19" d="M194.8,162.1c0,6.5,4.5,12.7,12.6,17.4c16.9,9.8,44.4,9.9,61.3,0.1l0,0l-60.8-35.1c-0.2,0.1-0.5,0.2-0.7,0.4
		C199.2,149.6,194.8,155.7,194.8,162.1L194.8,162.1z"/>
	<path class="st19" d="M269.6,180.6l0.4-0.2l0,0C269.8,180.5,269.7,180.6,269.6,180.6L269.6,180.6z"/>
	<path class="st18" d="M268.6,179.7L268.6,179.7c-16.8,9.7-44.3,9.7-61.3-0.1c-8.1-4.7-12.6-10.9-12.6-17.4s4.4-12.6,12.4-17.2
		c0.2-0.1,0.5-0.2,0.7-0.4l-1.4-0.8l0,0c-8.4,4.9-13.1,11.4-13.1,18.3s4.7,13.6,13.3,18.6c8.7,5,20.1,7.5,31.5,7.5
		s22.4-2.4,30.9-7.3l0.5-0.3c0.1-0.1,0.2-0.1,0.4-0.2L268.6,179.7L268.6,179.7z"/>
	<path class="st19" d="M170.4,226.3c0-6.5-4.5-12.7-12.6-17.4c-8.5-4.9-19.7-7.4-30.8-7.4s-21.2,2.3-29.4,6.7l60.8,35.1
		C166.1,238.7,170.4,232.7,170.4,226.3L170.4,226.3z"/>
	<path class="st19" d="M206.5,143.8L96.2,207.4h0c17.2-9.8,45.1-9.7,62.3,0.3c8.6,4.9,13.3,11.5,13.3,18.6s-4.3,13-12.1,17.8l0,0
		L270,180.4L206.5,143.8L206.5,143.8z"/>
	<path class="st18" d="M171.8,226.3c0-7-4.7-13.6-13.3-18.6c-17.2-9.9-45.1-10.1-62.3-0.3l1.4,0.8c8.2-4.5,18.8-6.7,29.4-6.7
		c11.2,0,22.3,2.5,30.8,7.4c8.1,4.7,12.6,10.9,12.6,17.4s-4.3,12.4-12.1,17l1.3,0.8C167.5,239.3,171.8,233,171.8,226.3L171.8,226.3z
		"/>
	<path class="st18" d="M183.1,199.2c-2.2,0-4.4-0.5-6.1-1.4c-1.8-1-2.7-2.4-2.7-3.9s0.9-2.9,2.7-3.9c3.3-1.9,8.7-1.9,12.1,0
		c1.8,1,2.7,2.4,2.7,3.9s-0.9,2.9-2.7,3.9C187.5,198.8,185.3,199.2,183.1,199.2z M183,189.9c-1.9,0-3.9,0.4-5.3,1.3
		c-1.3,0.8-2,1.7-2,2.7s0.7,2,2.1,2.7c3,1.7,7.8,1.7,10.8,0c1.3-0.8,2-1.7,2-2.7s-0.7-2-2.1-2.7C186.9,190.4,184.9,189.9,183,189.9
		L183,189.9z"/>
	<path class="st20" d="M237.4,144.2h1.3v17.9c0,0.3-0.2,0.6-0.6,0.6h-0.2c-0.3,0-0.6-0.2-0.6-0.6L237.4,144.2L237.4,144.2
		L237.4,144.2z"/>
	<polygon class="st20" points="128.6,207.7 127.3,207 127.3,225.4 128.6,226.2 	"/>
	<polygon class="st10" points="243.5,139.4 232.6,133.1 232.6,141.6 243.5,147.9 	"/>
	<polygon class="st21" points="241.7,139.9 234.4,135.7 234.4,141 241.7,145.2 	"/>
	
		<ellipse transform="matrix(6.283155e-03 -1 1 6.283155e-03 89.697 379.3884)" class="st21" cx="235.7" cy="144.6" rx="2" ry="3.5"/>
	
		<ellipse transform="matrix(6.283155e-03 -1 1 6.283155e-03 -77.3031 336.1759)" class="st21" cx="130.5" cy="207" rx="2" ry="3.5"/>
	<polygon class="st10" points="133.4,204.3 122.5,198 122.5,206.5 133.4,212.8 	"/>
	<polygon class="st11" points="106.5,164 96.2,170 96.2,190.7 106.5,184.7 	"/>
	<polygon class="st11" points="154.1,136.5 143.8,142.5 143.8,163.2 154.1,157.2 	"/>
	<polygon class="st11" points="142.2,143.4 131.9,149.4 131.9,170.1 142.2,164.1 	"/>
	<polygon class="st11" points="118.4,157.1 108.1,163.1 108.1,183.8 118.4,177.8 	"/>
	<polygon class="st11" points="130.3,150.3 120,156.3 120,176.9 130.3,171 	"/>
	<polygon class="st11" points="106.5,137.3 96.2,143.3 96.2,164 106.5,158 	"/>
	<polygon class="st11" points="154.1,109.8 143.8,115.8 143.8,136.5 154.1,130.5 	"/>
	<polygon class="st11" points="142.2,116.7 131.9,122.7 131.9,143.4 142.2,137.4 	"/>
	<polygon class="st11" points="118.4,130.4 108.1,136.4 108.1,157.1 118.4,151.1 	"/>
	<polygon class="st11" points="130.3,123.6 120,129.6 120,150.2 130.3,144.3 	"/>
	<polygon class="st11" points="166,129.6 155.7,135.6 155.7,156.3 166,150.3 	"/>
	<polygon class="st11" points="213.6,102.2 203.2,108.1 203.2,128.8 213.6,122.8 	"/>
	<polygon class="st11" points="201.7,109 191.3,115 191.3,135.7 201.7,129.7 	"/>
	<polygon class="st11" points="177.9,122.8 167.6,128.8 167.6,149.4 177.9,143.5 	"/>
	<polygon class="st11" points="189.8,115.9 179.4,121.9 179.4,142.6 189.8,136.6 	"/>
	<polygon class="st11" points="166,102.9 155.7,108.9 155.7,129.6 166,123.6 	"/>
	<polygon class="st11" points="213.6,75.4 203.2,81.4 203.2,102.1 213.6,96.1 	"/>
	<polygon class="st11" points="201.7,82.3 191.3,88.3 191.3,109 201.7,103 	"/>
	<polygon class="st11" points="177.9,96.1 167.6,102.1 167.6,122.8 177.9,116.8 	"/>
	<polygon class="st11" points="189.8,89.2 179.4,95.2 179.4,115.9 189.8,109.9 	"/>
	<polygon class="st22" points="56.2,92.8 216.8,0 248.4,46 87.8,138.7 	"/>
	<polyline class="st12" points="87.8,138.7 56.2,92.8 32.9,107 	"/>
</g>
</svg>
