<?xml version="1.0" encoding="UTF-8"?><svg id="Layer_2" xmlns="http://www.w3.org/2000/svg" viewBox="0 0 284 203.3"><defs><style>.cls-1{fill:#4f3b23;}.cls-1,.cls-2,.cls-3,.cls-4,.cls-5,.cls-6,.cls-7,.cls-8,.cls-9,.cls-10,.cls-11,.cls-12,.cls-13,.cls-14{stroke-width:0px;}.cls-2{fill:#47b05b;}.cls-3{fill:#7fbe42;}.cls-4{fill:#2c9643;}.cls-5{fill:#194132;}.cls-6{fill:#cd2e28;}.cls-7{fill:#ccc58b;}.cls-8{fill:#c7bf7e;}.cls-9{fill:#abd47d;}.cls-10{fill:#b1ab73;}.cls-11{fill:#b3d88a;}.cls-12{fill:#32a749;}.cls-13{fill:#97bd72;}.cls-14{fill:#002b1b;}</style></defs><g id="Layer_1-2"><polygon class="cls-7" points="91.69 203.3 284 92.27 284 83.21 91.69 194.24 91.69 203.3"/><polygon class="cls-10" points="91.69 203.3 91.69 194.24 0 141.31 0 150.37 91.69 203.3"/><polygon class="cls-11" points="91.69 194.24 284 83.21 284 74.15 91.69 185.18 91.69 194.24"/><polygon class="cls-13" points="91.69 194.24 91.69 185.18 0 132.25 0 141.31 91.69 194.24"/><polygon class="cls-12" points="192.43 12.09 0 123.18 91.69 176.12 284 65.09 192.43 12.09"/><polygon class="cls-2" points="91.69 185.18 284 74.15 284 65.09 91.69 176.12 91.69 185.18"/><polygon class="cls-4" points="91.69 185.18 91.69 176.12 0 123.18 0 132.25 91.69 185.18"/><path class="cls-3" d="m168.73,46.12c12.81-14.24,32.79-18.14,51.8-13.07l-28.29-16.38L8.62,122.81l19.23,11.13c14.97-8.66,27.85-26.84,36.88-34.84,29.33-25.95,77.81-23.87,104-52.98Z"/><path class="cls-14" d="m234.81,42.31c-15.04-7.09-30.95-7.01-48.49-.48-17.54,6.53-21.02,23.3-46.64,30.41-45.87,12.73-70.78,25.36-80.63,40.54-8.57,13.21-11.7,25.97,6.6,38.4,10.89,7.4,36.04,12.24,52.4,1.35,16.35-10.89,13.58-23.71,42.87-38.14,29.28-14.43,72.1-27.12,83.82-34.69,11.96-7.72,20.41-23.09-9.92-37.39Z"/><path class="cls-9" d="m239.73,70.9c2.2-.65,4.29-1.07,6.34-2.98,1.64-1.53,1.69-3.39,1.56-4.85-.24-2.73-1.59-5.29-3.42-7.33s-4.13-3.61-6.51-4.97c-7.86-4.47-16.99-6.77-26.01-6.21-3.28.2-6.55.78-9.64,1.9-3.88,1.41-7.46,3.68-10.31,6.67-.6.62-1.17,1.3-1.44,2.12-.3.9-.36,1.91-.05,2.81,1.95,5.67,11.06,4.19,15.02,4.67,8.41,1.03,15.12,8.08,23.51,9.26,4.71.66,6.39.26,10.95-1.08"/><ellipse class="cls-8" cx="237.83" cy="60.28" rx="1.92" ry="3.33" transform="translate(176.05 297.72) rotate(-89.64)"/><path class="cls-6" d="m245.61,41.92l-7.6-2.46h0c-.06-.02-.13-.04-.2-.04-.31,0-.56.25-.56.56v20.26c0,.31.25.56.56.56s.56-.25.56-.56v-15.98l7.24-2.34Z"/><path class="cls-1" d="m206.91,21.12l-.62-.62-3.35,2.79c0-1.86.04-3.92.12-6.16h-1.62s.34,15.48-1.16,20.97h4.68s-2-4.32-2.02-13.98l3.98-3Z"/><path class="cls-14" d="m201.56,22.23c1.44.05,2.78-.25,4.03-.9,1.3-.42,2.42-1.14,3.36-2.17,1.02-.95,1.74-2.07,2.16-3.37.65-1.25.95-2.59.9-4.04l-.37-2.78c-.5-1.77-1.39-3.32-2.69-4.62-2.04-1.88-4.56-3.07-7.39-3.07-1.44-.05-2.78.25-4.03.9-1.3.42-2.42,1.14-3.36,2.17-1.02.95-1.74,2.07-2.16,3.37-.65,1.25-.95,2.59-.9,4.04.12.93.25,1.86.37,2.78.5,1.77,1.39,3.32,2.69,4.62,2.04,1.88,4.56,3.07,7.39,3.07h0Z"/><path class="cls-5" d="m207.78,23.7c1.67,0,3.28-1.48,3.2-3.21-.08-1.74-1.41-3.21-3.2-3.21-1.67,0-3.28,1.48-3.2,3.21.08,1.74,1.41,3.21,3.2,3.21h0Z"/><path class="cls-5" d="m198.7,24.81c1.93,0,3.78-1.7,3.69-3.7-.09-2-1.62-3.7-3.69-3.7-1.93,0-3.78,1.7-3.69,3.7.09,2,1.62,3.7,3.69,3.7h0Z"/><path class="cls-1" d="m187.93,31.59l.39-.39,2.11,1.75c0-1.17-.03-2.46-.07-3.87h1.02s-.21,9.72.73,13.17h-2.94s1.26-2.71,1.27-8.78l-2.5-1.88Z"/><path class="cls-14" d="m191.29,32.29c-.9.03-1.75-.15-2.53-.57-.81-.27-1.52-.72-2.11-1.36-.64-.6-1.09-1.3-1.36-2.12-.41-.78-.6-1.63-.57-2.54.08-.58.16-1.17.23-1.75.31-1.11.87-2.08,1.69-2.9,1.28-1.18,2.86-1.93,4.64-1.93.9-.03,1.75.15,2.53.57.81.27,1.52.72,2.11,1.36.64.6,1.09,1.3,1.36,2.12.41.78.6,1.63.57,2.54l-.23,1.75c-.31,1.11-.87,2.08-1.69,2.9-1.28,1.18-2.86,1.93-4.64,1.93h0Z"/><path class="cls-5" d="m187.38,33.21c-1.05,0-2.06-.93-2.01-2.02s.88-2.02,2.01-2.02c1.05,0,2.06.93,2.01,2.02s-.88,2.02-2.01,2.02h0Z"/><path class="cls-5" d="m193.09,33.91c-1.21,0-2.37-1.07-2.32-2.32.06-1.26,1.02-2.32,2.32-2.32,1.21,0,2.37,1.07,2.32,2.32-.06,1.26-1.02,2.32-2.32,2.32h0Z"/><path class="cls-1" d="m169.49,19.85l.62-.62,3.35,2.79c0-1.86-.04-3.92-.12-6.16h1.62s-.34,15.48,1.16,20.97h-4.68s2-4.32,2.02-13.98l-3.98-3Z"/><path class="cls-14" d="m174.84,20.96c-1.44.05-2.78-.25-4.03-.9-1.3-.42-2.42-1.14-3.36-2.17-1.02-.95-1.74-2.07-2.16-3.37-.65-1.25-.95-2.59-.9-4.04l.37-2.78c.5-1.77,1.39-3.32,2.69-4.62C169.5,1.19,172.01,0,174.84,0c1.44-.05,2.78.25,4.03.9,1.3.42,2.42,1.14,3.36,2.17,1.02.95,1.74,2.07,2.16,3.37.65,1.25.95,2.59.9,4.04-.12.93-.25,1.86-.37,2.78-.5,1.77-1.39,3.32-2.69,4.62-2.04,1.88-4.56,3.07-7.39,3.07h0Z"/><path class="cls-5" d="m168.62,22.43c-1.67,0-3.28-1.48-3.2-3.21s1.41-3.21,3.2-3.21c1.67,0,3.28,1.48,3.2,3.21-.08,1.74-1.41,3.21-3.2,3.21h0Z"/><path class="cls-5" d="m177.71,23.54c-1.93,0-3.78-1.7-3.69-3.7.09-2,1.62-3.7,3.69-3.7,1.93,0,3.78,1.7,3.69,3.7s-1.62,3.7-3.69,3.7h0Z"/></g></svg>