<?xml version="1.0" encoding="UTF-8"?><svg id="Layer_2" xmlns="http://www.w3.org/2000/svg" viewBox="0 0 180.02 200"><defs><style>.cls-1{fill:none;}.cls-1,.cls-2,.cls-3,.cls-4,.cls-5,.cls-6,.cls-7,.cls-8,.cls-9,.cls-10,.cls-11{stroke-width:0px;}.cls-2{fill:#47b05b;}.cls-3{fill:#2c9643;}.cls-4{fill:#cd2e28;}.cls-5{fill:#ccc58b;}.cls-6{fill:#b1ab73;}.cls-7{fill:#b3d88a;}.cls-8{fill:#32a749;}.cls-9{fill:#97bd72;}.cls-10{fill:#9a1b1e;}.cls-11{fill:#002b1b;}</style></defs><g id="Layer_1-2"><polygon class="cls-5" points="90.34 200 180.02 148.23 180.02 139.25 90.34 191.03 90.34 200"/><polygon class="cls-6" points="90.34 200 90.34 191.03 .02 138.88 .02 147.85 90.34 200"/><polygon class="cls-7" points="90.34 191.03 180.02 139.25 180.02 130.28 90.34 182.05 90.34 191.03"/><polygon class="cls-9" points="90.34 191.03 90.34 182.05 .02 129.9 .02 138.88 90.34 191.03"/><polygon class="cls-8" points="89.69 69.15 .02 120.93 90.34 173.08 180.02 121.3 89.69 69.15"/><polygon class="cls-2" points="90.34 182.05 180.02 130.28 180.02 121.3 90.34 173.08 90.34 182.05"/><polygon class="cls-3" points="90.34 182.05 90.34 173.08 .02 120.93 .02 129.9 90.34 182.05"/><polygon class="cls-10" points="99.07 66.46 86.3 59.08 80.24 67.66 93.01 75.03 99.07 66.46"/><polygon class="cls-6" points="93.01 75.03 93.01 88.51 80.24 81.14 80.24 67.66 93.01 75.03"/><polygon class="cls-5" points="93.01 88.51 103.69 82.34 103.69 69.12 93.01 75.03 93.01 88.51"/><polyline class="cls-4" points="93.01 75.03 99.07 66.46 103.69 69.12"/><polygon class="cls-11" points="101.2 83.78 101.2 75.41 96.94 77.87 96.94 86.24 101.2 83.78"/><polygon class="cls-10" points="81.56 76.57 68.79 69.19 62.72 77.77 75.49 85.14 81.56 76.57"/><polygon class="cls-6" points="75.49 85.14 75.49 98.62 62.72 91.25 62.72 77.77 75.49 85.14"/><polygon class="cls-5" points="75.49 98.62 86.18 92.45 86.18 79.24 75.49 85.14 75.49 98.62"/><polyline class="cls-4" points="75.49 85.14 81.56 76.57 86.18 79.24"/><polygon class="cls-11" points="83.69 93.9 83.69 85.52 79.43 87.98 79.43 96.35 83.69 93.9"/><polygon class="cls-10" points="64.05 86.68 51.27 79.3 45.21 87.88 57.98 95.25 64.05 86.68"/><polygon class="cls-6" points="57.98 95.25 57.98 108.73 45.21 101.36 45.21 87.88 57.98 95.25"/><polygon class="cls-5" points="57.98 108.73 68.67 102.56 68.67 89.35 57.98 95.25 57.98 108.73"/><polyline class="cls-4" points="57.98 95.25 64.05 86.68 68.67 89.35"/><polygon class="cls-11" points="66.17 104.01 66.17 95.64 61.92 98.09 61.92 106.46 66.17 104.01"/><polygon class="cls-10" points="46.53 96.79 33.76 89.41 27.7 97.99 40.47 105.36 46.53 96.79"/><polygon class="cls-6" points="40.47 105.36 40.47 118.85 27.7 111.47 27.7 97.99 40.47 105.36"/><polygon class="cls-5" points="40.47 118.85 51.16 112.68 51.16 99.46 40.47 105.36 40.47 118.85"/><polyline class="cls-4" points="40.47 105.36 46.53 96.79 51.16 99.46"/><polygon class="cls-11" points="48.66 114.12 48.66 105.75 44.41 108.2 44.41 116.57 48.66 114.12"/><polygon class="cls-10" points="29.02 106.9 16.25 99.53 10.18 108.1 22.96 115.48 29.02 106.9"/><polygon class="cls-6" points="22.96 115.48 22.96 128.96 10.18 121.58 10.18 108.1 22.96 115.48"/><polygon class="cls-5" points="22.96 128.96 33.64 122.79 33.64 109.57 22.96 115.48 22.96 128.96"/><polyline class="cls-4" points="22.96 115.48 29.02 106.9 33.64 109.57"/><polygon class="cls-11" points="31.15 124.23 31.15 115.86 26.89 118.31 26.89 126.68 31.15 124.23"/><polygon class="cls-11" points="155.36 112.39 138.74 102.79 107.55 120.8 90.97 111.22 122.15 93.22 105.53 83.62 74.35 101.63 74.35 101.63 59.3 110.31 24.82 130.22 41.44 139.82 72.75 121.74 89.33 131.32 57.89 149.47 74.52 159.06 105.95 140.91 121.13 149.68 139.35 139.16 124.17 130.39 155.36 112.39"/><polygon class="cls-10" points="79.98 116.1 67.2 108.72 61.14 117.3 73.91 124.67 79.98 116.1"/><polygon class="cls-6" points="73.91 124.67 73.91 138.15 61.14 130.78 61.14 117.3 73.91 124.67"/><polygon class="cls-5" points="73.91 138.15 84.6 131.98 84.6 118.77 73.91 124.67 73.91 138.15"/><polyline class="cls-4" points="73.91 124.67 79.98 116.1 84.6 118.77"/><polygon class="cls-11" points="82.1 133.43 82.1 125.05 77.85 127.51 77.85 135.88 82.1 133.43"/><polygon class="cls-10" points="62.46 126.21 49.69 118.83 43.63 127.41 56.4 134.78 62.46 126.21"/><polygon class="cls-6" points="56.4 134.78 56.4 148.26 43.63 140.89 43.63 127.41 56.4 134.78"/><polygon class="cls-5" points="56.4 148.26 67.09 142.09 67.09 128.88 56.4 134.78 56.4 148.26"/><polyline class="cls-4" points="56.4 134.78 62.46 126.21 67.09 128.88"/><polygon class="cls-11" points="64.59 143.54 64.59 135.17 60.34 137.62 60.34 145.99 64.59 143.54"/><polygon class="cls-10" points="165.96 105.07 153.19 97.7 147.12 106.27 159.89 113.65 165.96 105.07"/><polygon class="cls-6" points="159.89 113.65 159.89 127.13 147.12 119.76 147.12 106.27 159.89 113.65"/><polygon class="cls-5" points="159.89 127.13 170.58 120.96 170.58 107.74 159.89 113.65 159.89 127.13"/><polyline class="cls-4" points="159.89 113.65 165.96 105.07 170.58 107.74"/><polygon class="cls-11" points="168.09 122.4 168.09 114.03 163.83 116.49 163.83 124.86 168.09 122.4"/><polygon class="cls-10" points="148.45 115.18 135.67 107.81 129.61 116.38 142.38 123.76 148.45 115.18"/><polygon class="cls-6" points="142.38 123.76 142.38 137.24 129.61 129.87 129.61 116.38 142.38 123.76"/><polygon class="cls-5" points="142.38 137.24 153.07 131.07 153.07 117.85 142.38 123.76 142.38 137.24"/><polyline class="cls-4" points="142.38 123.76 148.45 115.18 153.07 117.85"/><polygon class="cls-11" points="150.57 132.51 150.57 124.14 146.32 126.6 146.32 134.97 150.57 132.51"/><polygon class="cls-10" points="113.42 135.4 100.65 128.03 94.58 136.61 107.35 143.98 113.42 135.4"/><polygon class="cls-6" points="107.35 143.98 107.35 157.46 94.58 150.09 94.58 136.61 107.35 143.98"/><polygon class="cls-5" points="107.35 157.46 118.04 151.29 118.04 138.07 107.35 143.98 107.35 157.46"/><polyline class="cls-4" points="107.35 143.98 113.42 135.4 118.04 138.07"/><polygon class="cls-11" points="115.55 152.73 115.55 144.36 111.29 146.82 111.29 155.19 115.55 152.73"/><polygon class="cls-10" points="95.91 145.52 83.14 138.14 77.07 146.72 89.84 154.09 95.91 145.52"/><polygon class="cls-6" points="89.84 154.09 89.84 167.57 77.07 160.2 77.07 146.72 89.84 154.09"/><polygon class="cls-5" points="89.84 167.57 100.53 161.4 100.53 148.18 89.84 154.09 89.84 167.57"/><polyline class="cls-4" points="89.84 154.09 95.91 145.52 100.53 148.18"/><polygon class="cls-11" points="98.03 162.84 98.03 154.47 93.78 156.93 93.78 165.3 98.03 162.84"/><polygon class="cls-10" points="132.51 85.76 119.74 78.39 113.68 86.97 126.45 94.34 132.51 85.76"/><polygon class="cls-6" points="126.45 94.34 126.45 107.82 113.68 100.45 113.68 86.97 126.45 94.34"/><polygon class="cls-5" points="126.45 107.82 137.14 101.65 137.14 88.43 126.45 94.34 126.45 107.82"/><polyline class="cls-4" points="126.45 94.34 132.51 85.76 137.14 88.43"/><polygon class="cls-11" points="134.64 103.09 134.64 94.72 130.39 97.18 130.39 105.55 134.64 103.09"/><polygon class="cls-10" points="115 95.87 102.23 88.5 96.16 97.08 108.94 104.45 115 95.87"/><polygon class="cls-6" points="108.94 104.45 108.94 117.93 96.17 110.56 96.17 97.08 108.94 104.45"/><polygon class="cls-5" points="108.94 117.93 119.62 111.76 119.62 98.54 108.94 104.45 108.94 117.93"/><polyline class="cls-4" points="108.94 104.45 115 95.87 119.62 98.54"/><polygon class="cls-11" points="117.13 113.2 117.13 104.83 112.87 107.29 112.87 115.66 117.13 113.2"/><rect class="cls-1" width="180" height="200"/></g></svg>