<?xml version="1.0" encoding="UTF-8"?><svg id="Layer_2" xmlns="http://www.w3.org/2000/svg" viewBox="0 0 280 280"><defs><style>.cls-1{fill:none;}.cls-1,.cls-2,.cls-3,.cls-4,.cls-5,.cls-6,.cls-7,.cls-8,.cls-9,.cls-10,.cls-11,.cls-12,.cls-13,.cls-14,.cls-15{stroke-width:0px;}.cls-2{fill:#4f3b23;}.cls-3{fill:#47b05b;}.cls-4{fill:#7fbe42;}.cls-5{fill:#2c9643;}.cls-6{fill:#194132;}.cls-7{fill:#cd2e28;}.cls-8{fill:#ccc58b;}.cls-9{fill:#c7bf7e;}.cls-10{fill:#abd47d;}.cls-11{fill:#b1ab73;}.cls-12{fill:#b3d88a;}.cls-13{fill:#32a749;}.cls-14{fill:#97bd72;}.cls-15{fill:#002b1b;}</style></defs><g id="Layer_1-2"><polygon class="cls-8" points="90.39 280 280 170.77 280 161.86 90.39 271.09 90.39 280"/><polygon class="cls-11" points="90.39 280 90.39 271.09 0 219.01 0 227.93 90.39 280"/><polygon class="cls-12" points="90.39 271.09 280 161.86 280 152.94 90.39 262.17 90.39 271.09"/><polygon class="cls-14" points="90.39 271.09 90.39 262.17 0 210.1 0 219.01 90.39 271.09"/><polygon class="cls-13" points="189.72 91.89 0 201.18 90.39 253.26 280 144.03 189.72 91.89"/><polygon class="cls-3" points="90.39 262.17 280 152.94 280 144.03 90.39 253.26 90.39 262.17"/><polygon class="cls-5" points="90.39 262.17 90.39 253.26 0 201.18 0 210.1 90.39 262.17"/><path class="cls-4" d="m166.35,125.37c12.63-14.01,32.33-17.84,51.07-12.86l-27.9-16.11L8.49,200.82l18.96,10.95c14.76-8.52,27.46-26.41,36.37-34.27,28.91-25.53,76.71-23.48,102.53-52.12Z"/><path class="cls-15" d="m231.5,121.63c-14.83-6.97-30.52-6.89-47.81-.47-17.29,6.42-20.72,22.92-45.99,29.92-45.22,12.52-69.78,24.95-79.49,39.88-8.45,13-11.53,25.55,6.51,37.78,10.73,7.28,35.54,12.04,51.66,1.33,16.12-10.71,13.39-23.33,42.26-37.52,28.87-14.19,71.08-26.68,82.64-34.13,11.79-7.6,20.13-22.72-9.78-36.78Z"/><path class="cls-10" d="m236.35,149.75c2.17-.64,4.23-1.05,6.25-2.93,1.61-1.51,1.67-3.33,1.54-4.77-.24-2.69-1.56-5.21-3.37-7.21-1.8-2.01-4.07-3.55-6.42-4.88-7.75-4.4-16.75-6.66-25.64-6.11-3.23.2-6.46.77-9.51,1.87-3.83,1.38-7.35,3.62-10.17,6.56-.59.61-1.16,1.28-1.42,2.08-.29.88-.35,1.88-.05,2.76,1.92,5.58,10.9,4.12,14.81,4.6,8.29,1.01,14.91,7.95,23.18,9.11,4.64.65,6.3.25,10.8-1.07"/><ellipse class="cls-9" cx="234.48" cy="139.3" rx="1.89" ry="3.28" transform="translate(93.71 372.9) rotate(-89.64)"/><path class="cls-7" d="m242.15,121.24l-7.49-2.42h0c-.06-.02-.13-.04-.2-.04-.3,0-.55.25-.55.55v19.93c0,.3.25.55.55.55s.55-.25.55-.55v-15.72l7.14-2.31Z"/><path class="cls-2" d="m204,100.77l-.61-.61-3.31,2.75c0-1.83.04-3.85.12-6.06h-1.6s.33,15.23-1.14,20.63h4.61s-1.97-4.25-1.99-13.75l3.92-2.95Z"/><path class="cls-15" d="m198.72,101.87c1.42.05,2.74-.24,3.97-.89,1.28-.42,2.38-1.13,3.32-2.13,1-.93,1.71-2.04,2.13-3.32.64-1.23.94-2.55.89-3.97l-.37-2.74c-.49-1.75-1.37-3.26-2.65-4.55-2.02-1.85-4.49-3.02-7.28-3.02-1.42-.05-2.74.24-3.97.89-1.28.42-2.38,1.13-3.32,2.13-1,.93-1.71,2.04-2.13,3.32-.64,1.23-.94,2.55-.89,3.97.12.91.25,1.83.37,2.74.49,1.75,1.37,3.26,2.65,4.55,2.02,1.85,4.49,3.02,7.28,3.02h0Z"/><path class="cls-6" d="m204.86,103.32c1.65,0,3.23-1.45,3.16-3.16-.08-1.71-1.39-3.16-3.16-3.16-1.65,0-3.23,1.45-3.16,3.16.08,1.71,1.39,3.16,3.16,3.16h0Z"/><path class="cls-6" d="m195.9,104.41c1.9,0,3.72-1.67,3.63-3.64-.09-1.97-1.6-3.64-3.63-3.64-1.9,0-3.72,1.67-3.63,3.64.09,1.97,1.6,3.64,3.63,3.64h0Z"/><path class="cls-2" d="m185.28,111.08l.39-.39,2.08,1.73c0-1.15-.02-2.42-.07-3.81h1s-.21,9.56.72,12.96h-2.9s1.24-2.67,1.25-8.64l-2.46-1.85Z"/><path class="cls-15" d="m188.6,111.76c-.89.03-1.72-.15-2.49-.56-.8-.26-1.5-.71-2.08-1.34-.63-.59-1.08-1.28-1.34-2.08-.41-.77-.59-1.6-.56-2.49.08-.57.15-1.15.23-1.72.31-1.1.86-2.05,1.66-2.86,1.27-1.16,2.82-1.9,4.57-1.9.89-.03,1.72.15,2.49.56.8.26,1.5.71,2.08,1.34.63.59,1.08,1.28,1.34,2.08.41.77.59,1.6.56,2.49l-.23,1.72c-.31,1.1-.86,2.05-1.66,2.86-1.27,1.16-2.82,1.9-4.57,1.9h0Z"/><path class="cls-6" d="m184.74,112.67c-1.04,0-2.03-.91-1.98-1.98s.87-1.98,1.98-1.98c1.04,0,2.03.91,1.98,1.98s-.87,1.98-1.98,1.98h0Z"/><path class="cls-6" d="m190.37,113.36c-1.19,0-2.34-1.05-2.28-2.28s1-2.28,2.28-2.28c1.19,0,2.34,1.05,2.28,2.28-.06,1.24-1,2.28-2.28,2.28h0Z"/><path class="cls-2" d="m167.1,99.52l.61-.61,3.31,2.75c0-1.83-.04-3.85-.12-6.06h1.6s-.33,15.23,1.14,20.63h-4.61s1.97-4.25,1.99-13.75l-3.92-2.95Z"/><path class="cls-15" d="m172.38,100.62c-1.42.05-2.74-.24-3.97-.89-1.28-.42-2.38-1.13-3.32-2.13-1-.93-1.71-2.04-2.13-3.32-.64-1.23-.94-2.55-.89-3.97l.37-2.74c.49-1.75,1.37-3.26,2.65-4.55,2.02-1.85,4.49-3.02,7.28-3.02,1.42-.05,2.74.24,3.97.89,1.28.42,2.38,1.13,3.32,2.13,1,.93,1.71,2.04,2.13,3.32.64,1.23.94,2.55.89,3.97-.12.91-.25,1.83-.37,2.74-.49,1.75-1.37,3.26-2.65,4.55-2.02,1.85-4.49,3.02-7.28,3.02h0Z"/><path class="cls-6" d="m166.24,102.07c-1.65,0-3.23-1.45-3.16-3.16s1.39-3.16,3.16-3.16c1.65,0,3.23,1.45,3.16,3.16-.08,1.71-1.39,3.16-3.16,3.16h0Z"/><path class="cls-6" d="m175.2,103.16c-1.9,0-3.72-1.67-3.63-3.64.09-1.97,1.6-3.64,3.63-3.64,1.9,0,3.72,1.67,3.63,3.64s-1.6,3.64-3.63,3.64h0Z"/><rect class="cls-1" width="280" height="280"/></g></svg>