<?xml version="1.0" encoding="UTF-8"?><svg id="Layer_2" xmlns="http://www.w3.org/2000/svg" viewBox="0 0 388 339.66"><defs><style>.cls-1{fill:#47b05b;}.cls-1,.cls-2,.cls-3,.cls-4,.cls-5,.cls-6,.cls-7,.cls-8,.cls-9,.cls-10,.cls-11,.cls-12,.cls-13,.cls-14,.cls-15,.cls-16{stroke-width:0px;}.cls-2{fill:#a3a5a8;}.cls-3{fill:#2c9643;}.cls-4{fill:#cd2e28;}.cls-5{fill:#ccc58b;}.cls-6{fill:#ad2823;}.cls-7{fill:#b1ab73;}.cls-8{fill:#cdcfd0;}.cls-9{fill:#8f9194;}.cls-10{fill:#b3d88a;}.cls-11{fill:#32a749;}.cls-12{fill:#97bd72;}.cls-13{fill:#9a1b1e;}.cls-14{fill:#fff;}.cls-15{fill:#e3e4e5;}.cls-16{fill:#002b1b;}</style></defs><g id="Layer_1-2"><polygon class="cls-5" points="194.7 339.66 388 228.06 388 219.01 194.7 330.61 194.7 339.66"/><polygon class="cls-7" points="194.7 339.66 194.7 330.61 0 218.19 0 227.24 194.7 339.66"/><polygon class="cls-10" points="194.7 330.61 388 219.01 388 209.96 194.7 321.56 194.7 330.61"/><polygon class="cls-12" points="194.7 330.61 194.7 321.56 0 209.15 0 218.19 194.7 330.61"/><polygon class="cls-11" points="193.3 88.5 0 200.1 194.7 312.51 388 200.91 193.3 88.5"/><polygon class="cls-1" points="194.7 321.56 388 209.96 388 200.91 194.7 312.51 194.7 321.56"/><polygon class="cls-3" points="194.7 321.56 194.7 312.51 0 200.1 0 209.15 194.7 321.56"/><polygon class="cls-16" points="255.83 130.08 73.1 235.59 194.7 305.76 377.44 200.25 255.83 130.08"/><polygon class="cls-14" points="280.14 50.7 97.43 156.18 97.43 249.64 165.87 210.18 178.05 197.42 225.32 170.13 238.22 168.33 280.14 144.15 280.14 50.7"/><polygon class="cls-15" points="280.14 50.7 97.43 156.18 9.67 105.52 192.33 0 280.14 50.7"/><polygon class="cls-13" points="134.58 120.45 79.39 88.59 79.39 70.38 134.58 102.25 134.58 120.45"/><polygon class="cls-4" points="216.28 55.07 134.58 102.25 134.58 120.45 216.28 73.28 216.28 55.07"/><polygon class="cls-15" points="191.51 43.01 144.96 69.89 104.39 46.47 150.95 19.59 191.51 43.01"/><polygon class="cls-15" points="216.28 55.07 134.58 102.25 79.39 70.38 161.09 23.21 216.28 55.07"/><polygon class="cls-13" points="144.96 88.1 104.37 64.66 104.37 46.45 144.96 69.89 144.96 88.1"/><polygon class="cls-4" points="191.45 43.05 144.96 69.89 144.96 88.1 191.45 61.26 191.45 43.05"/><ellipse class="cls-6" cx="147.95" cy="44.74" rx="10.28" ry="17.81" transform="translate(102.28 192.41) rotate(-89.64)"/><path class="cls-15" d="m144.58,50.19l5.38-3.1-6.09-3.52-5.38,3.1-2.75-1.59,12.81-7.4,2.75,1.59-5.03,2.91,6.09,3.52,5.03-2.91,2.77,1.6-12.81,7.4-2.77-1.6Z"/><polygon class="cls-2" points="274.66 63.66 103.3 162.59 103.3 173.08 274.66 74.15 274.66 63.66"/><polygon class="cls-2" points="274.66 76.78 103.3 175.71 103.3 186.2 274.66 87.27 274.66 76.78"/><polygon class="cls-2" points="274.66 103.32 221.61 133.95 221.61 144.43 274.66 113.8 274.66 103.32"/><polygon class="cls-2" points="274.66 116.44 221.61 147.07 221.61 157.55 274.66 126.92 274.66 116.44"/><polygon class="cls-2" points="274.66 89.9 103.3 188.83 103.3 199.32 274.66 100.39 274.66 89.9"/><polygon class="cls-2" points="274.66 129.56 221.61 160.19 221.61 170.67 274.66 140.04 274.66 129.56"/><polygon class="cls-2" points="245.33 197.67 216.43 180.99 216.43 139.85 245.33 156.54 245.33 197.67"/><polygon class="cls-6" points="245.33 153.6 190.38 185.33 161.48 168.64 216.43 136.92 245.33 153.6"/><polygon class="cls-4" points="190.38 185.33 190.38 229.4 197.48 225.3 197.48 191.86 238.22 168.33 238.22 201.77 245.33 197.67 245.33 153.6 190.38 185.33"/><polygon class="cls-13" points="190.38 229.4 161.48 212.71 161.48 168.64 190.38 185.33 190.38 229.4"/><polygon class="cls-8" points="190.38 182.9 185.78 180.25 185.78 174.98 190.38 177.64 190.38 182.9"/><polygon class="cls-14" points="241.91 153.59 237.32 156.24 237.32 150.97 241.91 148.33 241.91 153.59"/><path class="cls-14" d="m211.94,180.81v-2.03s-1.99,1.15-1.99,1.15v2.03s-.9.52-.9.52v-4.84s.9-.52.9-.52v1.9s1.99-1.15,1.99-1.15v-1.9s.9-.52.9-.52v4.84s-.9.52-.9.52Z"/><path class="cls-14" d="m213.46,178.18c0-.99.61-2.18,1.61-2.77,1.01-.58,1.62-.09,1.62.9,0,1-.61,2.19-1.62,2.78-1.01.58-1.61.09-1.61-.91Zm2.4-1.38c0-.54-.28-.85-.78-.56s-.78.92-.78,1.46c0,.55.28.86.78.57s.78-.92.78-1.48Z"/><path class="cls-14" d="m217.02,177.42l.35-.85c.22.11.68.09,1.06-.13.35-.2.51-.46.51-.67,0-.58-1.82.94-1.82-.44,0-.59.45-1.36,1.25-1.83.52-.3.93-.33,1.23-.23l-.32.82c-.18-.12-.53-.1-.9.12-.29.17-.48.43-.48.63,0,.52,1.81-.96,1.81.46,0,.64-.47,1.4-1.32,1.89-.53.31-1.04.4-1.37.24Z"/><path class="cls-14" d="m221.1,175.07v1.78l-.8.46v-4.84s.8-.46.8-.46v.44c.23-.48.57-.86.94-1.07.78-.45,1.35-.11,1.35,1.05,0,1.17-.57,2.17-1.35,2.62-.36.21-.7.23-.94,0Zm1.46-2.15c0-.6-.31-.84-.77-.57-.26.15-.56.5-.69.8v1.24c.13.14.43.15.69,0,.46-.27.77-.86.77-1.47Z"/><path class="cls-14" d="m223.91,169.47c0-.3.22-.67.48-.82s.48-.04.48.27c0,.3-.22.68-.48.83s-.48.03-.48-.27Zm.08,4.38v-3.5s.8-.46.8-.46v3.5s-.8.46-.8.46Z"/><path class="cls-14" d="m225.75,171.97v-1.83s-.51.29-.51.29v-.8l.51-.29v-.96l.81-.47v.96s.62-.36.62-.36v.8l-.62.36v1.58c0,.22.1.33.28.22.12-.07.23-.19.28-.26l.17.6c-.12.19-.34.42-.67.61-.56.33-.87.17-.87-.46Z"/><path class="cls-14" d="m229.56,170.63v-.36c-.21.4-.57.78-.97,1.01-.49.28-1.06.24-1.06-.55,0-.82.58-1.46,1.06-1.74.4-.23.77-.29.97-.13v-.47c0-.36-.27-.43-.67-.2-.33.19-.63.5-.89.93l-.3-.44c.37-.59.85-1.04,1.33-1.32.7-.4,1.33-.45,1.33.56v2.26s-.8.46-.8.46Zm0-.84v-.44c-.13-.13-.39-.08-.65.07-.32.18-.58.52-.58.86s.26.37.58.18c.26-.15.51-.4.65-.68Z"/><path class="cls-14" d="m231.16,169.71v-4.84s.8-.46.8-.46v4.84s-.8.46-.8.46Z"/><polygon class="cls-14" points="206.58 183.9 205.18 184.71 205.18 179.88 206.58 179.06 206.58 183.9"/><polygon class="cls-14" points="207.99 179.86 207.99 181.48 203.77 183.91 203.77 182.3 207.99 179.86"/><polygon class="cls-14" points="194.97 180.25 190.38 182.9 190.38 177.64 194.97 174.98 194.97 180.25"/><polygon class="cls-15" points="190.4 177.63 185.8 174.97 190.36 172.34 194.96 174.99 190.4 177.63"/><polygon class="cls-8" points="237.32 156.24 232.74 153.59 232.74 148.33 237.32 150.97 237.32 156.24"/><polygon class="cls-15" points="237.34 150.97 232.75 148.32 237.31 145.69 241.9 148.33 237.34 150.97"/><polygon class="cls-8" points="97.48 249.67 9.67 198.97 9.67 105.52 97.48 156.21 97.48 249.67"/><polygon class="cls-13" points="82.46 170.48 82.46 160.03 73.34 154.77 73.34 165.22 64.22 159.96 64.22 170.41 73.34 175.67 73.34 186.12 82.46 191.39 82.46 180.94 91.57 186.2 91.57 175.75 82.46 170.48"/><polygon class="cls-2" points="156.84 171.3 103.3 202.21 103.3 212.7 156.84 181.79 156.84 171.3"/><polygon class="cls-2" points="156.84 184.4 103.3 215.31 103.3 225.79 156.84 194.88 156.84 184.4"/><polygon class="cls-2" points="156.84 197.54 103.3 228.45 103.3 238.93 156.84 208.02 156.84 197.54"/><polygon class="cls-9" points="64.21 186.43 91.57 202.24 91.57 212.72 64.21 196.92 64.21 186.43"/><polygon class="cls-9" points="64.21 199.53 91.57 215.33 91.57 225.81 64.21 210.01 64.21 199.53"/><polygon class="cls-9" points="64.21 212.67 91.57 228.47 91.57 238.96 64.21 223.16 64.21 212.67"/></g></svg>