<?xml version="1.0" encoding="UTF-8"?><svg id="Layer_2" xmlns="http://www.w3.org/2000/svg" viewBox="0 0 388 323.54"><defs><style>.cls-1{font-family:NHaasGroteskDSPro-65Md, 'Neue Haas Grotesk Display Pro';font-size:12.13px;font-weight:500;}.cls-2{stroke:#231f20;stroke-miterlimit:10;stroke-width:.28px;}.cls-2,.cls-3{fill:none;}.cls-3,.cls-4,.cls-5,.cls-6,.cls-7,.cls-8,.cls-9,.cls-10,.cls-11,.cls-12,.cls-13,.cls-14,.cls-15,.cls-16,.cls-17,.cls-18,.cls-19,.cls-20,.cls-21,.cls-22,.cls-23{stroke-width:0px;}.cls-24{letter-spacing:-.09em;}.cls-4{fill:#4f3b23;}.cls-5{fill:#266744;}.cls-6{fill:#47b05b;}.cls-7{fill:#a3a5a8;}.cls-8{fill:#2c9643;}.cls-9{fill:#194132;}.cls-10{fill:#1f5438;}.cls-11{fill:#126532;}.cls-12{fill:#cd2e28;}.cls-13{fill:#ccc58b;}.cls-14{fill:#abd47d;}.cls-15{fill:#b1ab73;}.cls-16{fill:#ced0d1;}.cls-17{fill:#b3d88a;}.cls-18{fill:#32a749;}.cls-19{fill:#97bd72;}.cls-20{fill:#fff;}.cls-21{fill:#e3e4e5;}.cls-22{fill:#002b1b;}.cls-23{fill:#044023;}</style></defs><g id="Layer_1-2"><polygon class="cls-13" points="194.7 323.54 388 211.94 388 202.89 194.7 314.49 194.7 323.54"/><polygon class="cls-15" points="194.7 323.54 194.7 314.49 0 202.07 0 211.12 194.7 323.54"/><polygon class="cls-17" points="194.7 314.49 388 202.89 388 193.84 194.7 305.44 194.7 314.49"/><polygon class="cls-19" points="194.7 314.49 194.7 305.44 0 193.03 0 202.07 194.7 314.49"/><polygon class="cls-18" points="193.3 72.38 0 183.98 194.7 296.39 388 184.79 193.3 72.38"/><polygon class="cls-6" points="194.7 305.44 388 193.84 388 184.79 194.7 296.39 194.7 305.44"/><polygon class="cls-8" points="194.7 305.44 194.7 296.39 0 183.98 0 193.03 194.7 305.44"/><polygon class="cls-22" points="330.05 156.81 147.31 262.32 194.7 289.64 377.44 184.13 330.05 156.81"/><polygon class="cls-20" points="248.35 45.97 87.78 138.74 87.78 202.6 248.35 109.84 248.35 45.97"/><polygon class="cls-21" points="248.35 45.97 87.78 138.74 32.86 107.02 193.38 14.23 248.35 45.97"/><polygon class="cls-16" points="87.78 202.6 32.86 170.89 32.86 107.02 87.78 138.74 87.78 202.6"/><polygon class="cls-16" points="219.98 93 301.54 140.11 301.54 173.07 219.98 125.96 219.98 93"/><polygon class="cls-21" points="219.98 93 301.54 140.11 329.89 123.75 248.35 76.62 219.98 93"/><polygon class="cls-20" points="301.54 173.07 329.89 156.71 329.89 123.75 301.54 140.11 301.54 173.07"/><polygon class="cls-7" points="287.16 135.85 297.48 141.83 297.48 166.66 287.16 160.67 287.16 135.85"/><polygon class="cls-7" points="274.27 128.41 284.59 134.39 284.59 159.22 274.27 153.23 274.27 128.41"/><polygon class="cls-7" points="261.83 121.22 272.14 127.2 272.14 152.03 261.83 146.05 261.83 121.22"/><polygon class="cls-7" points="249.38 114.03 259.7 120.02 259.7 144.85 249.38 138.86 249.38 114.03"/><polygon class="cls-7" points="236.93 106.85 247.25 112.83 247.25 137.66 236.93 131.67 236.93 106.85"/><polygon class="cls-7" points="224.04 99.41 234.36 105.39 234.36 130.22 224.04 124.23 224.04 99.41"/><polygon class="cls-23" points="317.63 116.67 237.09 69.55 219.98 93 301.54 140.11 317.63 116.67"/><polyline class="cls-5" points="301.54 140.12 317.63 116.67 329.89 123.75"/><text class="cls-1" transform="translate(36.38 123.77) rotate(30) scale(1.01 .87) skewX(26.23)"><tspan class="cls-24" x="0" y="0">T</tspan><tspan x="6.32" y="0">ĀMAKI</tspan><tspan x="0" y="11.59">SCHOOL</tspan></text><polygon class="cls-11" points="75.41 209.74 20.49 178.03 32.86 170.89 87.78 202.6 75.41 209.74"/><path class="cls-4" d="m80.03,186.86l-.63-.63-3.37,2.81c0-1.87.04-3.94.12-6.19h-1.63s.34,15.56-1.16,21.08h4.7s-2.01-4.34-2.03-14.05l4-3.01Z"/><path class="cls-22" d="m74.65,187.98c1.45.05,2.79-.25,4.05-.91,1.3-.42,2.43-1.15,3.38-2.18,1.02-.95,1.75-2.08,2.17-3.39.66-1.25.96-2.61.9-4.06l-.38-2.8c-.5-1.78-1.4-3.33-2.7-4.65-2.05-1.89-4.58-3.08-7.43-3.08-1.45-.05-2.79.25-4.05.91-1.3.42-2.43,1.15-3.38,2.18-1.02.95-1.75,2.08-2.17,3.39-.66,1.25-.96,2.61-.9,4.06.13.93.25,1.87.38,2.8.5,1.78,1.4,3.33,2.7,4.65,2.05,1.89,4.58,3.08,7.43,3.08h0Z"/><path class="cls-9" d="m80.9,189.46c1.68,0,3.29-1.48,3.22-3.22s-1.41-3.22-3.22-3.22c-1.68,0-3.29,1.48-3.22,3.22.08,1.75,1.41,3.22,3.22,3.22h0Z"/><path class="cls-9" d="m71.77,190.58c1.94,0,3.79-1.71,3.7-3.71-.09-2.01-1.63-3.71-3.7-3.71-1.94,0-3.79,1.71-3.7,3.71s1.63,3.71,3.7,3.71h0Z"/><path class="cls-4" d="m37.75,162.31l-.63-.63-3.37,2.81c0-1.87.04-3.94.12-6.19h-1.63s.34,15.56-1.16,21.08h4.7s-2.01-4.34-2.03-14.05l4-3.01Z"/><path class="cls-22" d="m32.37,163.43c1.45.05,2.79-.25,4.05-.91,1.3-.42,2.43-1.15,3.38-2.18,1.02-.95,1.75-2.08,2.17-3.39.66-1.25.96-2.61.9-4.06l-.38-2.8c-.5-1.78-1.4-3.33-2.7-4.65-2.05-1.89-4.58-3.08-7.43-3.08-1.45-.05-2.79.25-4.05.91-1.3.42-2.43,1.15-3.38,2.18-1.02.95-1.75,2.08-2.17,3.39-.66,1.25-.96,2.61-.9,4.06.13.93.25,1.87.38,2.8.5,1.78,1.4,3.33,2.7,4.65,2.05,1.89,4.58,3.08,7.43,3.08h0Z"/><path class="cls-9" d="m38.62,164.91c1.68,0,3.29-1.48,3.22-3.22s-1.41-3.22-3.22-3.22c-1.68,0-3.29,1.48-3.22,3.22.08,1.75,1.41,3.22,3.22,3.22h0Z"/><path class="cls-9" d="m29.49,166.03c1.94,0,3.79-1.71,3.7-3.71-.09-2.01-1.63-3.71-3.7-3.71-1.94,0-3.79,1.71-3.7,3.71s1.63,3.71,3.7,3.71h0Z"/><path class="cls-4" d="m58.89,174.59l-.63-.63-3.37,2.81c0-1.87.04-3.94.12-6.19h-1.63s.34,15.56-1.16,21.08h4.7s-2.01-4.34-2.03-14.05l4-3.01Z"/><path class="cls-22" d="m53.51,175.7c1.45.05,2.79-.25,4.05-.91,1.3-.42,2.43-1.15,3.38-2.18,1.02-.95,1.75-2.08,2.17-3.39.66-1.25.96-2.61.9-4.06l-.38-2.8c-.5-1.78-1.4-3.33-2.7-4.65-2.05-1.89-4.58-3.08-7.43-3.08-1.45-.05-2.79.25-4.05.91-1.3.42-2.43,1.15-3.38,2.18-1.02.95-1.75,2.08-2.17,3.39-.66,1.25-.96,2.61-.9,4.06.13.93.25,1.87.38,2.8.5,1.78,1.4,3.33,2.7,4.65,2.05,1.89,4.58,3.08,7.43,3.08h0Z"/><path class="cls-9" d="m59.76,177.19c1.68,0,3.29-1.48,3.22-3.22s-1.41-3.22-3.22-3.22c-1.68,0-3.29,1.48-3.22,3.22.08,1.75,1.41,3.22,3.22,3.22h0Z"/><path class="cls-9" d="m50.63,178.3c1.94,0,3.79-1.71,3.7-3.71-.09-2.01-1.63-3.71-3.7-3.71-1.94,0-3.79,1.71-3.7,3.71s1.63,3.71,3.7,3.71h0Z"/><polygon class="cls-11" points="95.03 207.44 206.46 143.11 271.1 180.43 159.67 244.76 95.03 207.44"/><path class="cls-22" d="m206.46,143.76l63.51,36.67-110.3,63.68-63.51-36.67,110.3-63.68m0-1.31l-.57.33-110.3,63.68-1.7.98,1.7.98,63.51,36.67.57.33.57-.33,110.3-63.68,1.7-.98-1.7-.98-63.51-36.67-.57-.33h0Z"/><polygon class="cls-14" points="214.11 212.69 150.58 176.01 152.03 175.18 215.55 211.86 214.11 212.69"/><path class="cls-3" d="m206.7,180.69c-8.56-4.94-13.27-11.54-13.27-18.58s4.63-13.48,13.05-18.34c0,0,0,0,0,0h-.02s-110.3,63.67-110.3,63.67l63.51,36.67,109.47-63.2c-8.54,4.88-19.72,7.33-30.94,7.33s-22.81-2.51-31.51-7.54Z"/><path class="cls-3" d="m194.76,162.12c0,6.54,4.48,12.73,12.61,17.42,16.95,9.79,44.44,9.85,61.27.13,0,0,0,0,0,0l-60.79-35.1c-.23.13-.48.24-.71.37-7.98,4.61-12.38,10.71-12.38,17.18Z"/><path class="cls-3" d="m269.61,180.64l.36-.21h0c-.12.07-.23.14-.35.21Z"/><path class="cls-14" d="m268.64,179.66s0,0,0,0c-16.83,9.72-44.31,9.66-61.27-.13-8.13-4.69-12.61-10.88-12.61-17.42s4.4-12.57,12.38-17.18c.23-.13.48-.24.71-.37l-1.37-.79s0,0,0,0c-8.41,4.86-13.05,11.37-13.05,18.34s4.71,13.64,13.27,18.58c8.7,5.02,20.12,7.54,31.51,7.54s22.4-2.44,30.94-7.33l.46-.27c.12-.07.23-.14.35-.21l-1.32-.76Z"/><path class="cls-3" d="m170.43,226.31c0-6.54-4.48-12.73-12.61-17.42-8.52-4.92-19.69-7.38-30.84-7.38s-21.19,2.26-29.43,6.73l60.77,35.08c7.81-4.59,12.11-10.62,12.11-17.02Z"/><path class="cls-3" d="m206.46,143.76l-110.3,63.68h.01c17.22-9.76,45.09-9.66,62.32.29,8.56,4.94,13.27,11.54,13.27,18.58s-4.3,12.99-12.13,17.78l.03.02,110.3-63.68-63.51-36.67Z"/><path class="cls-14" d="m171.77,226.31c0-7.04-4.71-13.64-13.27-18.58-17.23-9.95-45.09-10.05-62.32-.28l1.37.79c8.25-4.47,18.81-6.73,29.43-6.73,11.15,0,22.32,2.46,30.84,7.38,8.13,4.69,12.61,10.88,12.61,17.42s-4.3,12.43-12.11,17.02l1.32.76c7.82-4.79,12.13-11.07,12.13-17.78Z"/><path class="cls-14" d="m183.12,199.25c-2.2,0-4.4-.48-6.08-1.45-1.75-1.01-2.72-2.4-2.72-3.9s.95-2.86,2.68-3.85c3.32-1.92,8.74-1.9,12.08.02,1.75,1.01,2.72,2.4,2.72,3.9s-.95,2.85-2.68,3.85c-1.65.95-3.83,1.43-6,1.43Zm-.12-9.32c-1.94,0-3.87.42-5.34,1.27-1.3.75-2.01,1.7-2.01,2.69s.73,1.97,2.05,2.74c2.97,1.72,7.8,1.73,10.75.02,1.3-.75,2.01-1.7,2.01-2.69s-.73-1.97-2.05-2.74c-1.49-.86-3.46-1.3-5.41-1.3Z"/><path class="cls-12" d="m237.41,144.24h1.29v17.9c0,.3-.25.55-.55.55h-.2c-.3,0-.55-.25-.55-.55v-17.9h0Z"/><polygon class="cls-12" points="128.62 207.74 127.33 206.99 127.33 225.44 128.62 226.18 128.62 207.74"/><polygon class="cls-16" points="243.51 139.38 232.59 133.07 232.59 141.56 243.51 147.86 243.51 139.38"/><polygon class="cls-2" points="241.67 139.91 234.43 135.73 234.43 141.02 241.67 145.21 241.67 139.91"/><ellipse class="cls-2" cx="235.74" cy="144.57" rx="2.01" ry="3.48" transform="translate(89.69 379.39) rotate(-89.64)"/><ellipse class="cls-2" cx="130.5" cy="206.99" rx="2.01" ry="3.48" transform="translate(-77.31 336.18) rotate(-89.64)"/><polygon class="cls-16" points="133.44 204.34 122.52 198.04 122.52 206.52 133.44 212.83 133.44 204.34"/><polygon class="cls-7" points="106.49 164.03 96.18 170.02 96.18 190.7 106.49 184.72 106.49 164.03"/><polygon class="cls-7" points="154.08 136.53 143.76 142.51 143.76 163.2 154.08 157.21 154.08 136.53"/><polygon class="cls-7" points="142.18 143.4 131.86 149.39 131.86 170.07 142.18 164.09 142.18 143.4"/><polygon class="cls-7" points="118.39 157.15 108.07 163.14 108.07 183.83 118.39 177.84 118.39 157.15"/><polygon class="cls-7" points="130.29 150.28 119.97 156.26 119.97 176.95 130.29 170.96 130.29 150.28"/><polygon class="cls-7" points="106.49 137.33 96.18 143.32 96.18 164 106.49 158.02 106.49 137.33"/><polygon class="cls-7" points="154.08 109.83 143.76 115.81 143.76 136.5 154.08 130.51 154.08 109.83"/><polygon class="cls-7" points="142.18 116.7 131.86 122.69 131.86 143.37 142.18 137.39 142.18 116.7"/><polygon class="cls-7" points="118.39 130.45 108.07 136.44 108.07 157.13 118.39 151.14 118.39 130.45"/><polygon class="cls-7" points="130.29 123.58 119.97 129.56 119.97 150.25 130.29 144.26 130.29 123.58"/><polygon class="cls-7" points="165.97 129.65 155.66 135.64 155.66 156.32 165.97 150.34 165.97 129.65"/><polygon class="cls-7" points="213.56 102.15 203.24 108.13 203.24 128.82 213.56 122.83 213.56 102.15"/><polygon class="cls-7" points="201.66 109.02 191.34 115.01 191.34 135.69 201.66 129.71 201.66 109.02"/><polygon class="cls-7" points="177.87 122.77 167.55 128.76 167.55 149.45 177.87 143.46 177.87 122.77"/><polygon class="cls-7" points="189.77 115.9 179.45 121.88 179.45 142.57 189.77 136.59 189.77 115.9"/><polygon class="cls-7" points="165.97 102.95 155.66 108.94 155.66 129.62 165.97 123.64 165.97 102.95"/><polygon class="cls-7" points="213.56 75.45 203.24 81.43 203.24 102.12 213.56 96.13 213.56 75.45"/><polygon class="cls-7" points="201.66 82.32 191.34 88.31 191.34 108.99 201.66 103.01 201.66 82.32"/><polygon class="cls-7" points="177.87 96.07 167.55 102.06 167.55 122.75 177.87 116.76 177.87 96.07"/><polygon class="cls-7" points="189.77 89.2 179.45 95.18 179.45 115.87 189.77 109.89 189.77 89.2"/><polygon class="cls-10" points="56.24 92.77 216.81 0 248.35 45.97 87.78 138.73 56.24 92.77"/><polyline class="cls-23" points="87.78 138.74 56.24 92.77 32.86 107.02"/></g></svg>