<?xml version="1.0" encoding="UTF-8"?><svg id="Layer_2" xmlns="http://www.w3.org/2000/svg" viewBox="0 0 186 145.62"><defs><style>.cls-1{fill:#47b05b;}.cls-1,.cls-2,.cls-3,.cls-4,.cls-5,.cls-6,.cls-7,.cls-8,.cls-9,.cls-10{stroke-width:0px;}.cls-2{fill:#2c9643;}.cls-3{fill:#cd2e28;}.cls-4{fill:#ccc58b;}.cls-5{fill:#b1ab73;}.cls-6{fill:#b3d88a;}.cls-7{fill:#32a749;}.cls-8{fill:#97bd72;}.cls-9{fill:#9a1b1e;}.cls-10{fill:#002b1b;}</style></defs><g id="Layer_1-2"><polygon class="cls-4" points="93.34 145.62 186 92.12 186 82.84 93.34 136.34 93.34 145.62"/><polygon class="cls-5" points="93.34 145.62 93.34 136.34 0 82.45 0 91.73 93.34 145.62"/><polygon class="cls-6" points="93.34 136.34 186 82.84 186 73.57 93.34 127.07 93.34 136.34"/><polygon class="cls-8" points="93.34 136.34 93.34 127.07 0 73.18 0 82.45 93.34 136.34"/><polygon class="cls-7" points="92.66 10.41 0 63.91 93.34 117.79 186 64.3 92.66 10.41"/><polygon class="cls-1" points="93.34 127.07 186 73.57 186 64.3 93.34 117.79 93.34 127.07"/><polygon class="cls-2" points="93.34 127.07 93.34 117.79 0 63.91 0 73.18 93.34 127.07"/><polygon class="cls-9" points="102.36 7.62 89.16 0 82.89 8.86 96.09 16.48 102.36 7.62"/><polygon class="cls-5" points="96.09 16.48 96.09 30.41 82.89 22.79 82.89 8.86 96.09 16.48"/><polygon class="cls-4" points="96.09 30.41 107.14 24.04 107.14 10.38 96.09 16.48 96.09 30.41"/><polyline class="cls-3" points="96.09 16.48 102.36 7.62 107.14 10.38"/><polygon class="cls-10" points="104.56 25.53 104.56 16.88 100.16 19.41 100.16 28.06 104.56 25.53"/><polygon class="cls-9" points="84.26 18.07 71.06 10.45 64.8 19.31 77.99 26.93 84.26 18.07"/><polygon class="cls-5" points="77.99 26.93 77.99 40.86 64.8 33.24 64.8 19.31 77.99 26.93"/><polygon class="cls-4" points="77.99 40.86 89.04 34.48 89.04 20.83 77.99 26.93 77.99 40.86"/><polyline class="cls-3" points="77.99 26.93 84.26 18.07 89.04 20.83"/><polygon class="cls-10" points="86.46 35.97 86.46 27.32 82.06 29.86 82.06 38.51 86.46 35.97"/><polygon class="cls-9" points="66.17 28.52 52.97 20.9 46.7 29.76 59.9 37.38 66.17 28.52"/><polygon class="cls-5" points="59.9 37.38 59.9 51.31 46.7 43.69 46.7 29.76 59.9 37.38"/><polygon class="cls-4" points="59.9 51.31 70.94 44.93 70.94 31.27 59.9 37.38 59.9 51.31"/><polyline class="cls-3" points="59.9 37.38 66.17 28.52 70.94 31.27"/><polygon class="cls-10" points="68.36 46.42 68.36 37.77 63.97 40.31 63.97 48.96 68.36 46.42"/><polygon class="cls-9" points="48.07 38.96 34.87 31.34 28.6 40.21 41.8 47.83 48.07 38.96"/><polygon class="cls-5" points="41.8 47.83 41.8 61.76 28.6 54.14 28.6 40.21 41.8 47.83"/><polygon class="cls-4" points="41.8 61.76 52.85 55.38 52.85 41.72 41.8 47.83 41.8 61.76"/><polyline class="cls-3" points="41.8 47.83 48.07 38.96 52.85 41.72"/><polygon class="cls-10" points="50.27 56.87 50.27 48.22 45.87 50.76 45.87 59.41 50.27 56.87"/><polygon class="cls-9" points="29.97 49.41 16.78 41.79 10.51 50.65 23.71 58.27 29.97 49.41"/><polygon class="cls-5" points="23.71 58.27 23.71 72.2 10.51 64.58 10.51 50.65 23.71 58.27"/><polygon class="cls-4" points="23.71 72.2 34.75 65.83 34.75 52.17 23.71 58.27 23.71 72.2"/><polyline class="cls-3" points="23.71 58.27 29.97 49.41 34.75 52.17"/><polygon class="cls-10" points="32.17 67.32 32.17 58.67 27.77 61.21 27.77 69.85 32.17 67.32"/><polygon class="cls-10" points="160.52 55.09 143.34 45.17 111.12 63.77 93.99 53.88 126.21 35.27 109.03 25.36 76.81 43.96 76.81 43.96 61.26 52.94 25.63 73.51 42.8 83.43 75.15 64.75 92.29 74.64 59.81 93.4 76.98 103.31 109.47 84.56 125.15 93.62 143.98 82.74 128.3 73.69 160.52 55.09"/><polygon class="cls-9" points="82.63 58.92 69.43 51.3 63.16 60.16 76.36 67.78 82.63 58.92"/><polygon class="cls-5" points="76.36 67.78 76.36 81.71 63.16 74.09 63.16 60.16 76.36 67.78"/><polygon class="cls-4" points="76.36 81.71 87.4 75.33 87.4 61.67 76.36 67.78 76.36 81.71"/><polyline class="cls-3" points="76.36 67.78 82.63 58.92 87.4 61.67"/><polygon class="cls-10" points="84.82 76.82 84.82 68.17 80.43 70.71 80.43 79.36 84.82 76.82"/><polygon class="cls-9" points="64.53 69.36 51.33 61.74 45.07 70.61 58.26 78.23 64.53 69.36"/><polygon class="cls-5" points="58.26 78.23 58.26 92.16 45.07 84.54 45.07 70.61 58.26 78.23"/><polygon class="cls-4" points="58.26 92.16 69.31 85.78 69.31 72.12 58.26 78.23 58.26 92.16"/><polyline class="cls-3" points="58.26 78.23 64.53 69.36 69.31 72.12"/><polygon class="cls-10" points="66.73 87.27 66.73 78.62 62.33 81.16 62.33 89.81 66.73 87.27"/><polygon class="cls-9" points="171.47 47.52 158.28 39.9 152.01 48.77 165.21 56.38 171.47 47.52"/><polygon class="cls-5" points="165.21 56.38 165.21 70.32 152.01 62.7 152.01 48.77 165.21 56.38"/><polygon class="cls-4" points="165.21 70.32 176.25 63.94 176.25 50.28 165.21 56.38 165.21 70.32"/><polyline class="cls-3" points="165.21 56.38 171.47 47.52 176.25 50.28"/><polygon class="cls-10" points="173.67 65.43 173.67 56.78 169.28 59.32 169.28 67.97 173.67 65.43"/><polygon class="cls-9" points="153.38 57.97 140.18 50.35 133.91 59.21 147.11 66.83 153.38 57.97"/><polygon class="cls-5" points="147.11 66.83 147.11 80.76 133.91 73.14 133.91 59.21 147.11 66.83"/><polygon class="cls-4" points="147.11 80.76 158.15 74.39 158.15 60.73 147.11 66.83 147.11 80.76"/><polyline class="cls-3" points="147.11 66.83 153.38 57.97 158.15 60.73"/><polygon class="cls-10" points="155.58 75.88 155.58 67.23 151.18 69.77 151.18 78.41 155.58 75.88"/><polygon class="cls-9" points="117.18 78.87 103.99 71.25 97.72 80.11 110.92 87.73 117.18 78.87"/><polygon class="cls-5" points="110.92 87.73 110.92 101.66 97.72 94.04 97.72 80.11 110.92 87.73"/><polygon class="cls-4" points="110.92 101.66 121.96 95.28 121.96 81.63 110.92 87.73 110.92 101.66"/><polyline class="cls-3" points="110.92 87.73 117.18 78.87 121.96 81.63"/><polygon class="cls-10" points="119.38 96.77 119.38 88.12 114.99 90.66 114.99 99.31 119.38 96.77"/><polygon class="cls-9" points="99.09 89.32 85.89 81.7 79.62 90.56 92.82 98.18 99.09 89.32"/><polygon class="cls-5" points="92.82 98.18 92.82 112.11 79.62 104.49 79.62 90.56 92.82 98.18"/><polygon class="cls-4" points="92.82 112.11 103.87 105.73 103.87 92.07 92.82 98.18 92.82 112.11"/><polyline class="cls-3" points="92.82 98.18 99.09 89.32 103.87 92.07"/><polygon class="cls-10" points="101.29 107.22 101.29 98.57 96.89 101.11 96.89 109.76 101.29 107.22"/><polygon class="cls-9" points="136.92 27.57 123.72 19.95 117.45 28.81 130.65 36.43 136.92 27.57"/><polygon class="cls-5" points="130.65 36.43 130.65 50.36 117.45 42.74 117.45 28.81 130.65 36.43"/><polygon class="cls-4" points="130.65 50.36 141.69 43.99 141.69 30.33 130.65 36.43 130.65 50.36"/><polyline class="cls-3" points="130.65 36.43 136.92 27.57 141.69 30.33"/><polygon class="cls-10" points="139.11 45.48 139.11 36.83 134.72 39.37 134.72 48.01 139.11 45.48"/><polygon class="cls-9" points="118.82 38.02 105.62 30.4 99.35 39.26 112.55 46.88 118.82 38.02"/><polygon class="cls-5" points="112.55 46.88 112.55 60.81 99.35 53.19 99.35 39.26 112.55 46.88"/><polygon class="cls-4" points="112.55 60.81 123.6 54.44 123.6 40.78 112.55 46.88 112.55 60.81"/><polyline class="cls-3" points="112.55 46.88 118.82 38.02 123.6 40.78"/><polygon class="cls-10" points="121.02 55.93 121.02 47.28 116.62 49.81 116.62 58.46 121.02 55.93"/></g></svg>