<?xml version="1.0" encoding="UTF-8"?><svg id="Layer_2" xmlns="http://www.w3.org/2000/svg" viewBox="0 0 1644 662.17"><defs><style>.cls-1{fill:none;}.cls-1,.cls-2,.cls-3,.cls-4{stroke-width:0px;}.cls-5{opacity:.3;}.cls-2{fill:#009c49;}.cls-3{fill:#00ab3a;}.cls-4{fill:#00492e;}</style></defs><g id="Layer_5"><rect class="cls-1" width="1644" height="662"/><g class="cls-5"><polygon class="cls-4" points="673.1 516.76 773.44 574.69 795.59 561.9 695.25 503.97 673.1 516.76"/><polygon class="cls-3" points="652.36 389.69 602.52 418.46 622.59 430.05 672.43 401.28 652.36 389.69"/><polygon class="cls-4" points="723.61 603.46 823.95 661.4 846.1 648.61 745.76 590.67 723.61 603.46"/><polygon class="cls-3" points="572.08 343.34 621.92 314.57 601.85 302.98 552.01 331.76 572.08 343.34"/><polygon class="cls-4" points="622.59 430.05 722.94 487.98 745.08 475.2 644.74 417.26 622.59 430.05"/><polygon class="cls-2" points="753.37 563.1 703.54 591.88 723.61 603.46 773.44 574.69 753.37 563.1"/><polygon class="cls-4" points="572.08 343.34 672.43 401.28 694.58 388.49 594.23 330.56 572.08 343.34"/><polygon class="cls-2" points="702.87 476.4 653.03 505.17 673.1 516.76 722.94 487.98 702.87 476.4"/><polygon class="cls-4" points="994.26 331.33 1094.61 389.27 1072.46 402.05 972.11 344.12 994.26 331.33"/><polygon class="cls-3" points="774.18 319.36 824.01 290.58 844.08 302.17 794.25 330.94 774.18 319.36"/><polygon class="cls-4" points="1144.44 360.49 1244.79 418.43 1222.64 431.21 1122.29 373.28 1144.44 360.49"/><polygon class="cls-3" points="693.9 273.01 644.07 301.78 624 290.2 673.83 261.42 693.9 273.01"/><polygon class="cls-4" points="844.08 302.17 944.43 360.1 922.28 372.89 821.93 314.96 844.08 302.17"/><polygon class="cls-2" points="1074.54 377.68 1124.37 348.91 1144.44 360.49 1094.61 389.27 1074.54 377.68"/><polygon class="cls-4" points="693.9 273.01 794.25 330.94 772.1 343.73 671.75 285.8 693.9 273.01"/><polygon class="cls-4" points="543.72 243.85 644.07 301.78 621.92 314.57 521.57 256.64 543.72 243.85"/><polygon class="cls-2" points="924.36 348.52 974.19 319.75 994.26 331.33 944.43 360.1 924.36 348.52"/><polygon class="cls-4" points="472.41 400.89 572.76 458.82 594.9 446.03 494.56 388.1 472.41 400.89"/><polygon class="cls-3" points="451.67 273.82 401.83 302.6 421.9 314.18 471.74 285.41 451.67 273.82"/><polygon class="cls-4" points="522.92 487.59 623.26 545.53 645.41 532.74 545.07 474.81 522.92 487.59"/><polygon class="cls-4" points="421.9 314.18 522.25 372.12 544.4 359.33 444.05 301.39 421.9 314.18"/><polygon class="cls-2" points="552.69 447.24 502.85 476.01 522.92 487.59 572.76 458.82 552.69 447.24"/><polygon class="cls-2" points="502.18 360.53 452.34 389.3 472.41 400.89 522.25 372.12 502.18 360.53"/><polygon class="cls-4" points="943.75 244.63 1044.1 302.56 1021.95 315.35 921.61 257.41 943.75 244.63"/><polygon class="cls-2" points="873.85 261.81 923.69 233.04 943.75 244.63 893.92 273.4 873.85 261.81"/><polygon class="cls-4" points="271.72 285.02 372.07 342.95 394.22 330.17 293.87 272.23 271.72 285.02"/><polygon class="cls-4" points="322.23 371.73 422.58 429.66 444.72 416.87 344.38 358.94 322.23 371.73"/><polygon class="cls-2" points="352 331.37 302.16 360.14 322.23 371.73 372.07 342.95 352 331.37"/><polygon class="cls-2" points="301.49 244.66 251.65 273.43 271.72 285.02 321.56 256.25 301.49 244.66"/><polygon class="cls-3" points="853.05 505.56 803.21 534.33 823.28 545.92 873.12 517.14 853.05 505.56"/><polygon class="cls-3" points="772.77 459.21 822.61 430.44 802.54 418.85 752.7 447.62 772.77 459.21"/><polygon class="cls-4" points="823.28 545.92 923.62 603.85 945.77 591.06 845.43 533.13 823.28 545.92"/><polygon class="cls-4" points="772.77 459.21 873.12 517.14 895.26 504.36 794.92 446.42 772.77 459.21"/><polygon class="cls-3" points="974.87 435.22 1024.7 406.45 1044.77 418.04 994.94 446.81 974.87 435.22"/><polygon class="cls-3" points="894.59 388.88 844.76 417.65 824.69 406.06 874.52 377.29 894.59 388.88"/><polygon class="cls-4" points="1044.77 418.04 1145.12 475.97 1122.97 488.76 1022.62 430.83 1044.77 418.04"/><polygon class="cls-4" points="894.59 388.88 994.94 446.81 972.79 459.6 872.44 401.67 894.59 388.88"/><polygon class="cls-4" points="744.41 359.72 844.76 417.65 822.61 430.44 722.26 372.5 744.41 359.72"/><polygon class="cls-4" points="945.1 475.58 1045.44 533.52 1023.3 546.31 922.95 488.37 945.1 475.58"/><polygon class="cls-4" points="1343.79 245.4 1444.13 303.34 1421.98 316.12 1321.64 258.19 1343.79 245.4"/><polygon class="cls-2" points="1273.88 262.59 1323.72 233.82 1343.79 245.4 1293.95 274.18 1273.88 262.59"/><polygon class="cls-3" points="1174.21 320.13 1224.05 291.36 1244.11 302.95 1194.28 331.72 1174.21 320.13"/><polygon class="cls-3" points="1093.93 273.79 1044.1 302.56 1024.03 290.97 1073.87 262.2 1093.93 273.79"/><polygon class="cls-4" points="1244.11 302.95 1344.46 360.88 1322.31 373.67 1221.97 315.74 1244.11 302.95"/><polygon class="cls-4" points="1093.93 273.79 1194.28 331.72 1172.13 344.51 1071.79 286.57 1093.93 273.79"/><polygon class="cls-3" points="453.01 504.78 403.18 533.55 423.25 545.14 473.08 516.37 453.01 504.78"/><polygon class="cls-3" points="372.74 458.43 422.58 429.66 402.51 418.07 352.67 446.85 372.74 458.43"/><polygon class="cls-4" points="423.25 545.14 523.59 603.07 545.74 590.29 445.4 532.35 423.25 545.14"/><polygon class="cls-4" points="372.74 458.43 473.08 516.37 495.23 503.58 394.89 445.65 372.74 458.43"/><polygon class="cls-2" points="503.52 591.49 453.69 620.26 473.76 631.85 523.59 603.07 503.52 591.49"/><polygon class="cls-4" points="273.07 515.98 373.41 573.91 395.56 561.13 295.22 503.19 273.07 515.98"/><polygon class="cls-3" points="252.33 388.91 202.49 417.69 222.56 429.27 272.4 400.5 252.33 388.91"/><polygon class="cls-4" points="323.58 602.69 423.92 660.62 446.07 647.83 345.73 589.9 323.58 602.69"/><polygon class="cls-3" points="172.05 342.57 221.89 313.79 201.82 302.21 151.98 330.98 172.05 342.57"/><polygon class="cls-4" points="222.56 429.27 322.9 487.21 345.05 474.42 244.71 416.48 222.56 429.27"/><polygon class="cls-2" points="353.34 562.33 303.51 591.1 323.58 602.69 373.41 573.91 353.34 562.33"/><polygon class="cls-4" points="172.05 342.57 272.4 400.5 294.54 387.71 194.2 329.78 172.05 342.57"/><polygon class="cls-2" points="302.83 475.62 253 504.39 273.07 515.98 322.9 487.21 302.83 475.62"/><polygon class="cls-4" points="122.89 486.82 223.23 544.75 245.38 531.96 145.04 474.03 122.89 486.82"/><polygon class="cls-2" points="152.65 446.46 102.82 475.23 122.89 486.82 172.72 458.05 152.65 446.46"/><polygon class="cls-3" points="653.7 620.65 603.87 649.42 623.94 661.01 673.77 632.24 653.7 620.65"/><polygon class="cls-3" points="573.43 574.3 623.26 545.53 603.19 533.94 553.36 562.71 573.43 574.3"/><polygon class="cls-4" points="573.43 574.3 673.77 632.24 695.92 619.45 595.58 561.51 573.43 574.3"/><polygon class="cls-3" points="1295.97 620.61 1246.13 649.39 1226.06 637.8 1275.9 609.03 1295.97 620.61"/><polygon class="cls-4" points="1145.79 591.45 1246.13 649.39 1223.98 662.17 1123.64 604.24 1145.79 591.45"/><polygon class="cls-3" points="1053.73 621.43 1003.9 650.2 1023.97 661.78 1073.8 633.01 1053.73 621.43"/><polygon class="cls-3" points="973.46 575.08 1023.3 546.31 1003.23 534.72 953.39 563.49 973.46 575.08"/><polygon class="cls-4" points="973.46 575.08 1073.8 633.01 1095.95 620.22 995.61 562.29 973.46 575.08"/><polygon class="cls-3" points="1175.56 551.09 1225.39 522.32 1245.46 533.91 1195.62 562.68 1175.56 551.09"/><polygon class="cls-3" points="1095.28 504.75 1045.44 533.52 1025.38 521.93 1075.21 493.16 1095.28 504.75"/><polygon class="cls-4" points="1245.46 533.91 1345.8 591.84 1323.66 604.63 1223.31 546.69 1245.46 533.91"/><polygon class="cls-4" points="1095.28 504.75 1195.62 562.68 1173.48 575.47 1073.13 517.53 1095.28 504.75"/><polygon class="cls-2" points="1325.74 580.25 1375.57 551.48 1395.64 563.07 1345.8 591.84 1325.74 580.25"/><polygon class="cls-2" points="903.55 592.26 853.72 621.04 873.79 632.62 923.62 603.85 903.55 592.26"/><polygon class="cls-4" points="1194.95 447.2 1295.3 505.13 1273.15 517.92 1172.8 459.99 1194.95 447.2"/><polygon class="cls-4" points="1345.13 476.36 1445.48 534.29 1423.33 547.08 1322.98 489.15 1345.13 476.36"/><polygon class="cls-2" points="1275.23 493.55 1325.06 464.77 1345.13 476.36 1295.3 505.13 1275.23 493.55"/><polygon class="cls-2" points="1125.05 464.39 1174.88 435.61 1194.95 447.2 1145.12 475.97 1125.05 464.39"/><polygon class="cls-3" points="1495.31 505.52 1445.48 534.29 1425.41 522.71 1475.24 493.94 1495.31 505.52"/><polygon class="cls-3" points="1374.9 436 1424.73 407.23 1444.8 418.82 1394.97 447.59 1374.9 436"/><polygon class="cls-3" points="1294.62 389.65 1244.79 418.43 1224.72 406.84 1274.55 378.07 1294.62 389.65"/><polygon class="cls-4" points="1444.8 418.82 1545.15 476.75 1523 489.54 1422.65 431.6 1444.8 418.82"/><polygon class="cls-4" points="1294.62 389.65 1394.97 447.59 1372.82 460.38 1272.47 402.44 1294.62 389.65"/><polygon class="cls-4" points="1394.29 332.11 1494.64 390.04 1472.49 402.83 1372.15 344.9 1394.29 332.11"/><polygon class="cls-2" points="1474.57 378.46 1524.41 349.68 1544.47 361.27 1494.64 390.04 1474.57 378.46"/><polygon class="cls-2" points="1324.39 349.3 1374.23 320.52 1394.29 332.11 1344.46 360.88 1324.39 349.3"/></g></g></svg>