<?xml version="1.0" encoding="UTF-8"?><svg id="Layer_2" xmlns="http://www.w3.org/2000/svg" viewBox="0 0 1644 662"><defs><style>.cls-1{fill:none;}.cls-1,.cls-2,.cls-3,.cls-4{stroke-width:0px;}.cls-5{opacity:.3;}.cls-2{fill:#009c49;}.cls-3{fill:#00ab3a;}.cls-4{fill:#00492e;}</style></defs><g id="Layer_1-2"><rect class="cls-1" width="1644" height="662"/><g class="cls-5"><polygon class="cls-4" points="671.79 516.39 772.13 574.32 794.28 561.53 693.94 503.6 671.79 516.39"/><polygon class="cls-3" points="651.05 389.32 601.21 418.09 621.28 429.68 671.12 400.91 651.05 389.32"/><polygon class="cls-4" points="722.3 603.09 822.64 661.03 844.79 648.24 744.45 590.31 722.3 603.09"/><polygon class="cls-3" points="570.77 342.98 620.61 314.2 600.54 302.62 550.7 331.39 570.77 342.98"/><polygon class="cls-4" points="621.28 429.68 721.62 487.62 743.77 474.83 643.43 416.89 621.28 429.68"/><polygon class="cls-2" points="752.06 562.74 702.23 591.51 722.3 603.09 772.13 574.32 752.06 562.74"/><polygon class="cls-4" points="570.77 342.98 671.12 400.91 693.27 388.12 592.92 330.19 570.77 342.98"/><polygon class="cls-2" points="701.56 476.03 651.72 504.8 671.79 516.39 721.62 487.62 701.56 476.03"/><polygon class="cls-4" points="992.95 330.96 1093.3 388.9 1071.15 401.69 970.8 343.75 992.95 330.96"/><polygon class="cls-3" points="772.87 318.99 822.7 290.22 842.77 301.8 792.94 330.58 772.87 318.99"/><polygon class="cls-4" points="1143.13 360.13 1243.48 418.06 1221.33 430.85 1120.98 372.91 1143.13 360.13"/><polygon class="cls-3" points="692.59 272.64 642.76 301.41 622.69 289.83 672.52 261.06 692.59 272.64"/><polygon class="cls-4" points="842.77 301.8 943.12 359.74 920.97 372.52 820.62 314.59 842.77 301.8"/><polygon class="cls-2" points="1073.23 377.31 1123.06 348.54 1143.13 360.13 1093.3 388.9 1073.23 377.31"/><polygon class="cls-4" points="692.59 272.64 792.94 330.58 770.79 343.36 670.44 285.43 692.59 272.64"/><polygon class="cls-4" points="542.41 243.48 642.76 301.41 620.61 314.2 520.26 256.27 542.41 243.48"/><polygon class="cls-2" points="923.05 348.15 972.88 319.38 992.95 330.96 943.12 359.74 923.05 348.15"/><polygon class="cls-4" points="471.1 400.52 571.44 458.45 593.59 445.67 493.25 387.73 471.1 400.52"/><polygon class="cls-3" points="450.36 273.45 400.52 302.23 420.59 313.81 470.43 285.04 450.36 273.45"/><polygon class="cls-4" points="521.61 487.23 621.95 545.16 644.1 532.37 543.76 474.44 521.61 487.23"/><polygon class="cls-4" points="420.59 313.81 520.94 371.75 543.09 358.96 442.74 301.03 420.59 313.81"/><polygon class="cls-2" points="551.38 446.87 501.54 475.64 521.61 487.23 571.44 458.45 551.38 446.87"/><polygon class="cls-2" points="500.87 360.16 451.03 388.93 471.1 400.52 520.94 371.75 500.87 360.16"/><polygon class="cls-4" points="792.26 215.1 892.61 273.03 870.46 285.82 770.11 227.88 792.26 215.1"/><polygon class="cls-4" points="942.44 244.26 1042.79 302.19 1020.64 314.98 920.29 257.05 942.44 244.26"/><polygon class="cls-2" points="872.54 261.44 922.38 232.67 942.44 244.26 892.61 273.03 872.54 261.44"/><polygon class="cls-2" points="722.36 232.28 772.2 203.51 792.26 215.1 742.43 243.87 722.36 232.28"/><polygon class="cls-3" points="851.74 505.19 801.9 533.96 821.97 545.55 871.8 516.78 851.74 505.19"/><polygon class="cls-3" points="771.46 458.84 821.3 430.07 801.23 418.48 751.39 447.26 771.46 458.84"/><polygon class="cls-4" points="821.97 545.55 922.31 603.48 944.46 590.7 844.12 532.76 821.97 545.55"/><polygon class="cls-4" points="771.46 458.84 871.8 516.78 893.95 503.99 793.61 446.06 771.46 458.84"/><polygon class="cls-3" points="973.56 434.86 1023.39 406.08 1043.46 417.67 993.63 446.44 973.56 434.86"/><polygon class="cls-3" points="893.28 388.51 843.45 417.28 823.38 405.7 873.21 376.92 893.28 388.51"/><polygon class="cls-4" points="1043.46 417.67 1143.81 475.6 1121.66 488.39 1021.31 430.46 1043.46 417.67"/><polygon class="cls-4" points="893.28 388.51 993.63 446.44 971.48 459.23 871.13 401.3 893.28 388.51"/><polygon class="cls-4" points="743.1 359.35 843.45 417.28 821.3 430.07 720.95 372.14 743.1 359.35"/><polygon class="cls-4" points="943.79 475.22 1044.13 533.15 1021.98 545.94 921.64 488 943.79 475.22"/><polygon class="cls-3" points="1172.9 319.77 1222.74 290.99 1242.8 302.58 1192.97 331.35 1172.9 319.77"/><polygon class="cls-3" points="1092.62 273.42 1042.79 302.19 1022.72 290.6 1072.56 261.83 1092.62 273.42"/><polygon class="cls-4" points="1092.62 273.42 1192.97 331.35 1170.82 344.14 1070.47 286.21 1092.62 273.42"/><polygon class="cls-3" points="451.7 504.41 401.87 533.19 421.94 544.77 471.77 516 451.7 504.41"/><polygon class="cls-3" points="371.43 458.07 421.26 429.29 401.2 417.71 351.36 446.48 371.43 458.07"/><polygon class="cls-4" points="421.94 544.77 522.28 602.71 544.43 589.92 444.09 531.98 421.94 544.77"/><polygon class="cls-4" points="371.43 458.07 471.77 516 493.92 503.21 393.58 445.28 371.43 458.07"/><polygon class="cls-2" points="502.21 591.12 452.38 619.89 472.45 631.48 522.28 602.71 502.21 591.12"/><polygon class="cls-4" points="322.27 602.32 422.61 660.25 444.76 647.46 344.42 589.53 322.27 602.32"/><polygon class="cls-2" points="352.03 561.96 302.2 590.73 322.27 602.32 372.1 573.55 352.03 561.96"/><polygon class="cls-3" points="652.39 620.28 602.56 649.05 622.63 660.64 672.46 631.87 652.39 620.28"/><polygon class="cls-3" points="572.12 573.93 621.95 545.16 601.88 533.57 552.05 562.35 572.12 573.93"/><polygon class="cls-4" points="572.12 573.93 672.46 631.87 694.61 619.08 594.27 561.15 572.12 573.93"/><polygon class="cls-3" points="1294.66 620.24 1244.82 649.02 1224.75 637.43 1274.59 608.66 1294.66 620.24"/><polygon class="cls-4" points="1144.48 591.08 1244.82 649.02 1222.67 661.81 1122.33 603.87 1144.48 591.08"/><polygon class="cls-3" points="1052.42 621.06 1002.59 649.83 1022.66 661.42 1072.49 632.64 1052.42 621.06"/><polygon class="cls-3" points="972.15 574.71 1021.98 545.94 1001.92 534.35 952.08 563.12 972.15 574.71"/><polygon class="cls-4" points="972.15 574.71 1072.49 632.64 1094.64 619.86 994.3 561.92 972.15 574.71"/><polygon class="cls-3" points="1174.25 550.72 1224.08 521.95 1244.15 533.54 1194.31 562.31 1174.25 550.72"/><polygon class="cls-3" points="1093.97 504.38 1044.13 533.15 1024.07 521.56 1073.9 492.79 1093.97 504.38"/><polygon class="cls-4" points="1244.15 533.54 1344.49 591.47 1322.34 604.26 1222 546.33 1244.15 533.54"/><polygon class="cls-4" points="1093.97 504.38 1194.31 562.31 1172.16 575.1 1071.82 517.17 1093.97 504.38"/><polygon class="cls-2" points="902.24 591.9 852.41 620.67 872.48 632.26 922.31 603.48 902.24 591.9"/><polygon class="cls-4" points="1193.64 446.83 1293.99 504.77 1271.84 517.55 1171.49 459.62 1193.64 446.83"/><polygon class="cls-2" points="1273.92 493.18 1323.75 464.41 1343.82 475.99 1293.99 504.77 1273.92 493.18"/><polygon class="cls-2" points="1123.74 464.02 1173.57 435.25 1193.64 446.83 1143.81 475.6 1123.74 464.02"/><polygon class="cls-3" points="1293.31 389.29 1243.48 418.06 1223.41 406.47 1273.24 377.7 1293.31 389.29"/></g></g></svg>