<?xml version="1.0" encoding="UTF-8"?><svg id="Layer_2" xmlns="http://www.w3.org/2000/svg" viewBox="0 0 1644 662"><defs><style>.cls-1{fill:none;}.cls-1,.cls-2,.cls-3,.cls-4,.cls-5{stroke-width:0px;}.cls-6{opacity:.3;}.cls-2{fill:#009c49;}.cls-3{fill:#9fd671;}.cls-4{fill:#00ab3a;}.cls-5{fill:#00492e;}</style></defs><g id="Layer_12"><rect class="cls-1" width="1644" height="662"/><g class="cls-6"><polygon class="cls-5" points="671.12 516.39 771.46 574.32 793.61 561.53 693.27 503.6 671.12 516.39"/><polygon class="cls-4" points="650.37 389.32 600.54 418.09 620.61 429.68 670.44 400.91 650.37 389.32"/><polygon class="cls-5" points="721.62 603.09 821.97 661.03 844.12 648.24 743.77 590.31 721.62 603.09"/><polygon class="cls-4" points="570.1 342.98 619.93 314.2 599.87 302.62 550.03 331.39 570.1 342.98"/><polygon class="cls-5" points="620.61 429.68 720.95 487.62 743.1 474.83 642.76 416.89 620.61 429.68"/><polygon class="cls-2" points="751.39 562.74 701.56 591.51 721.62 603.09 771.46 574.32 751.39 562.74"/><polygon class="cls-5" points="570.1 342.98 670.44 400.91 692.59 388.12 592.25 330.19 570.1 342.98"/><polygon class="cls-2" points="700.88 476.03 651.05 504.8 671.12 516.39 720.95 487.62 700.88 476.03"/><polygon class="cls-5" points="992.28 330.96 1092.62 388.9 1070.47 401.69 970.13 343.75 992.28 330.96"/><polygon class="cls-4" points="772.2 318.99 822.03 290.22 842.1 301.8 792.26 330.58 772.2 318.99"/><polygon class="cls-5" points="1142.46 360.13 1242.8 418.06 1220.65 430.85 1120.31 372.91 1142.46 360.13"/><polygon class="cls-4" points="691.92 272.64 642.08 301.41 622.02 289.83 671.85 261.06 691.92 272.64"/><polygon class="cls-5" points="842.1 301.8 942.44 359.74 920.29 372.52 819.95 314.59 842.1 301.8"/><polygon class="cls-2" points="1072.56 377.31 1122.39 348.54 1142.46 360.13 1092.62 388.9 1072.56 377.31"/><polygon class="cls-5" points="691.92 272.64 792.26 330.58 770.11 343.36 669.77 285.43 691.92 272.64"/><polygon class="cls-5" points="541.74 243.48 642.08 301.41 619.93 314.2 519.59 256.27 541.74 243.48"/><polygon class="cls-2" points="922.38 348.15 972.21 319.38 992.28 330.96 942.44 359.74 922.38 348.15"/><polygon class="cls-5" points="470.43 400.52 570.77 458.45 592.92 445.67 492.58 387.73 470.43 400.52"/><polygon class="cls-4" points="449.69 273.45 399.85 302.23 419.92 313.81 469.75 285.04 449.69 273.45"/><polygon class="cls-5" points="520.94 487.23 621.28 545.16 643.43 532.37 543.09 474.44 520.94 487.23"/><polygon class="cls-5" points="419.92 313.81 520.26 371.75 542.41 358.96 442.07 301.03 419.92 313.81"/><polygon class="cls-2" points="550.7 446.87 500.87 475.64 520.94 487.23 570.77 458.45 550.7 446.87"/><polygon class="cls-2" points="500.19 360.16 450.36 388.93 470.43 400.52 520.26 371.75 500.19 360.16"/><polygon class="cls-5" points="791.59 215.1 891.94 273.03 869.79 285.82 769.44 227.88 791.59 215.1"/><polygon class="cls-4" points="571.51 203.12 621.34 174.35 641.41 185.94 591.58 214.71 571.51 203.12"/><polygon class="cls-5" points="941.77 244.26 1042.12 302.19 1019.97 314.98 919.62 257.05 941.77 244.26"/><polygon class="cls-5" points="641.41 185.94 741.76 243.87 719.61 256.66 619.26 198.72 641.41 185.94"/><polygon class="cls-2" points="871.87 261.44 921.7 232.67 941.77 244.26 891.94 273.03 871.87 261.44"/><polygon class="cls-2" points="721.69 232.28 771.52 203.51 791.59 215.1 741.76 243.87 721.69 232.28"/><polygon class="cls-5" points="320.25 371.36 420.59 429.29 442.74 416.51 342.4 358.57 320.25 371.36"/><polygon class="cls-2" points="350.01 331 300.18 359.77 320.25 371.36 370.08 342.59 350.01 331"/><polygon class="cls-4" points="851.06 505.19 801.23 533.96 821.3 545.55 871.13 516.78 851.06 505.19"/><polygon class="cls-4" points="770.79 458.84 820.62 430.07 800.55 418.48 750.72 447.26 770.79 458.84"/><polygon class="cls-5" points="821.3 545.55 921.64 603.48 943.79 590.7 843.45 532.76 821.3 545.55"/><polygon class="cls-5" points="770.79 458.84 871.13 516.78 893.28 503.99 792.94 446.05 770.79 458.84"/><polygon class="cls-4" points="972.88 434.86 1022.72 406.08 1042.79 417.67 992.95 446.44 972.88 434.86"/><polygon class="cls-4" points="892.61 388.51 842.77 417.28 822.7 405.7 872.54 376.92 892.61 388.51"/><polygon class="cls-5" points="1042.79 417.67 1143.13 475.6 1120.98 488.39 1020.64 430.46 1042.79 417.67"/><polygon class="cls-5" points="892.61 388.51 992.95 446.44 970.8 459.23 870.46 401.3 892.61 388.51"/><polygon class="cls-5" points="742.43 359.35 842.77 417.28 820.62 430.07 720.28 372.14 742.43 359.35"/><polygon class="cls-5" points="943.12 475.22 1043.46 533.15 1021.31 545.94 920.97 488 943.12 475.22"/><polygon class="cls-4" points="971.54 203.9 1021.37 175.13 1041.44 186.71 991.61 215.49 971.54 203.9"/><polygon class="cls-5" points="1041.44 186.71 1141.79 244.65 1119.64 257.43 1019.29 199.5 1041.44 186.71"/><polygon class="cls-4" points="1172.23 319.77 1222.06 290.99 1242.13 302.58 1192.3 331.35 1172.23 319.77"/><polygon class="cls-4" points="1091.95 273.42 1042.12 302.19 1022.05 290.6 1071.88 261.83 1091.95 273.42"/><polygon class="cls-5" points="1242.13 302.58 1342.48 360.51 1320.33 373.3 1219.98 315.37 1242.13 302.58"/><polygon class="cls-5" points="1091.95 273.42 1192.3 331.35 1170.15 344.14 1069.8 286.21 1091.95 273.42"/><polygon class="cls-4" points="451.03 504.41 401.2 533.19 421.26 544.77 471.1 516 451.03 504.41"/><polygon class="cls-4" points="370.76 458.07 420.59 429.29 400.52 417.71 350.69 446.48 370.76 458.07"/><polygon class="cls-5" points="421.26 544.77 521.61 602.71 543.76 589.92 443.41 531.98 421.26 544.77"/><polygon class="cls-5" points="370.76 458.07 471.1 516 493.25 503.21 392.91 445.28 370.76 458.07"/><polygon class="cls-2" points="501.54 591.12 451.7 619.89 471.77 631.48 521.61 602.71 501.54 591.12"/><polygon class="cls-5" points="271.08 515.61 371.43 573.55 393.58 560.76 293.23 502.82 271.08 515.61"/><polygon class="cls-4" points="250.34 388.55 200.51 417.32 220.58 428.9 270.41 400.13 250.34 388.55"/><polygon class="cls-5" points="321.59 602.32 421.94 660.25 444.09 647.46 343.74 589.53 321.59 602.32"/><polygon class="cls-5" points="220.58 428.9 320.92 486.84 343.07 474.05 242.73 416.12 220.58 428.9"/><polygon class="cls-2" points="351.36 561.96 301.52 590.73 321.59 602.32 371.43 573.55 351.36 561.96"/><polygon class="cls-2" points="300.85 475.25 251.02 504.02 271.08 515.61 320.92 486.84 300.85 475.25"/><polygon class="cls-4" points="651.72 620.28 601.88 649.05 621.95 660.64 671.79 631.87 651.72 620.28"/><polygon class="cls-4" points="571.44 573.93 621.28 545.16 601.21 533.57 551.38 562.35 571.44 573.93"/><polygon class="cls-5" points="571.44 573.93 671.79 631.87 693.94 619.08 593.59 561.15 571.44 573.93"/><polygon class="cls-4" points="1293.99 620.24 1244.15 649.02 1224.08 637.43 1273.92 608.66 1293.99 620.24"/><polygon class="cls-5" points="1143.81 591.08 1244.15 649.02 1222 661.81 1121.66 603.87 1143.81 591.08"/><polygon class="cls-4" points="1051.75 621.06 1001.92 649.83 1021.98 661.42 1071.82 632.64 1051.75 621.06"/><polygon class="cls-4" points="971.48 574.71 1021.31 545.94 1001.24 534.35 951.41 563.12 971.48 574.71"/><polygon class="cls-5" points="971.48 574.71 1071.82 632.64 1093.97 619.86 993.63 561.92 971.48 574.71"/><polygon class="cls-4" points="1173.57 550.72 1223.41 521.95 1243.48 533.54 1193.64 562.31 1173.57 550.72"/><polygon class="cls-4" points="1093.3 504.38 1043.46 533.15 1023.39 521.56 1073.23 492.79 1093.3 504.38"/><polygon class="cls-5" points="1243.48 533.54 1343.82 591.47 1321.67 604.26 1221.33 546.33 1243.48 533.54"/><polygon class="cls-5" points="1093.3 504.38 1193.64 562.31 1171.49 575.1 1071.15 517.17 1093.3 504.38"/><polygon class="cls-2" points="1323.75 579.89 1373.59 551.11 1393.66 562.7 1343.82 591.47 1323.75 579.89"/><polygon class="cls-2" points="901.57 591.9 851.74 620.67 871.8 632.26 921.64 603.48 901.57 591.9"/><polygon class="cls-5" points="1192.97 446.83 1293.31 504.77 1271.16 517.55 1170.82 459.62 1192.97 446.83"/><polygon class="cls-5" points="1343.15 475.99 1443.49 533.93 1421.34 546.71 1321 488.78 1343.15 475.99"/><polygon class="cls-2" points="1273.24 493.18 1323.08 464.41 1343.15 475.99 1293.31 504.77 1273.24 493.18"/><polygon class="cls-2" points="1123.06 464.02 1172.9 435.25 1192.97 446.83 1143.13 475.6 1123.06 464.02"/><polygon class="cls-4" points="1292.64 389.29 1242.8 418.06 1222.74 406.47 1272.57 377.7 1292.64 389.29"/><polygon class="cls-5" points="1292.64 389.29 1392.98 447.22 1370.83 460.01 1270.49 402.07 1292.64 389.29"/></g><polygon class="cls-4" points="322.27 584.21 231.95 532.06 321.62 480.28 411.95 532.44 322.27 584.21"/><polygon class="cls-4" points="522.59 584.63 432.26 532.48 521.93 480.71 612.26 532.86 522.59 584.63"/><polygon class="cls-4" points="321.54 468.56 231.22 416.41 320.89 364.63 411.22 416.78 321.54 468.56"/><polygon class="cls-4" points="722.9 585.05 632.57 532.9 722.24 481.13 812.57 533.28 722.9 585.05"/><polygon class="cls-4" points="521.86 468.98 431.53 416.83 521.2 365.05 611.53 417.2 521.86 468.98"/><polygon class="cls-4" points="922.48 469.82 832.16 417.67 921.83 365.89 1012.16 418.04 922.48 469.82"/><polygon class="cls-4" points="1123.52 585.89 1033.2 533.74 1122.87 481.97 1213.2 534.12 1123.52 585.89"/><polygon class="cls-4" points="721.44 353.75 631.12 301.6 720.79 249.82 811.12 301.97 721.44 353.75"/><polygon class="cls-4" points="1122.8 470.24 1032.47 418.09 1122.14 366.31 1212.47 418.47 1122.8 470.24"/><polygon class="cls-4" points="1323.84 586.31 1233.51 534.16 1323.18 482.39 1413.51 534.54 1323.84 586.31"/><polygon class="cls-4" points="921.76 354.17 831.43 302.02 921.1 250.24 1011.43 302.39 921.76 354.17"/><polygon class="cls-4" points="1122.07 354.59 1031.74 302.44 1121.41 250.66 1211.74 302.81 1122.07 354.59"/><polygon class="cls-4" points="1323.11 470.66 1232.78 418.51 1322.46 366.73 1412.78 418.89 1323.11 470.66"/><polygon class="cls-4" points="521.13 353.33 430.8 301.18 520.48 249.4 610.8 301.55 521.13 353.33"/><polygon class="cls-4" points="923.21 585.47 832.88 533.32 922.56 481.55 1012.88 533.7 923.21 585.47"/><polygon class="cls-3" points="422.79 642.24 332.47 590.09 422.14 538.32 512.47 590.47 422.79 642.24"/><polygon class="cls-3" points="623.11 642.66 532.78 590.51 622.45 538.74 712.78 590.89 623.11 642.66"/><polygon class="cls-3" points="422.07 526.59 331.74 474.44 421.41 422.67 511.74 474.82 422.07 526.59"/><polygon class="cls-3" points="421.34 410.94 331.01 358.79 420.68 307.02 511.01 359.17 421.34 410.94"/><polygon class="cls-3" points="823.42 643.08 733.09 590.93 822.76 539.16 913.09 591.31 823.42 643.08"/><polygon class="cls-3" points="622.38 527.01 532.05 474.86 621.72 423.09 712.05 475.24 622.38 527.01"/><polygon class="cls-3" points="620.92 295.71 530.6 243.56 620.27 191.79 710.6 243.94 620.92 295.71"/><polygon class="cls-3" points="1023 527.85 932.68 475.7 1022.35 423.93 1112.68 476.08 1023 527.85"/><polygon class="cls-3" points="1224.04 643.92 1133.72 591.77 1223.39 540 1313.72 592.15 1224.04 643.92"/><polygon class="cls-3" points="821.96 411.78 731.64 359.63 821.31 307.86 911.64 360.01 821.96 411.78"/><polygon class="cls-3" points="821.24 296.13 730.91 243.98 820.58 192.21 910.91 244.36 821.24 296.13"/><polygon class="cls-3" points="1223.32 528.27 1132.99 476.12 1222.66 424.35 1312.99 476.5 1223.32 528.27"/><polygon class="cls-3" points="1022.28 412.2 931.95 360.05 1021.62 308.28 1111.95 360.43 1022.28 412.2"/><polygon class="cls-3" points="1222.59 412.62 1132.26 360.47 1221.93 308.7 1312.26 360.85 1222.59 412.62"/><polygon class="cls-3" points="1021.55 296.55 931.22 244.4 1020.89 192.63 1111.22 244.78 1021.55 296.55"/><polygon class="cls-3" points="621.65 411.36 531.32 359.21 621 307.44 711.32 359.59 621.65 411.36"/><polygon class="cls-3" points="1023.73 643.5 933.4 591.35 1023.08 539.58 1113.4 591.73 1023.73 643.5"/><polygon class="cls-3" points="822.69 527.43 732.36 475.28 822.04 423.51 912.36 475.66 822.69 527.43"/><polygon class="cls-4" points="722.17 469.4 631.84 417.25 721.52 365.47 811.84 417.62 722.17 469.4"/></g></svg>