<?xml version="1.0" encoding="UTF-8"?><svg id="Layer_2" xmlns="http://www.w3.org/2000/svg" viewBox="0 0 1920 773.14"><defs><style>.cls-1{fill:none;}.cls-1,.cls-2,.cls-3,.cls-4,.cls-5{stroke-width:0px;}.cls-6{opacity:.3;}.cls-2{fill:#009c49;}.cls-3{fill:#9fd671;}.cls-4{fill:#00ab3a;}.cls-5{fill:#00492e;}</style></defs><g id="Layer_7"><rect class="cls-1" width="1920" height="773.14"/><g class="cls-6"><polygon class="cls-5" points="809.86 569.4 910.2 627.33 932.35 614.55 832.01 556.61 809.86 569.4"/><polygon class="cls-4" points="789.12 442.33 739.28 471.11 759.35 482.69 809.19 453.92 789.12 442.33"/><polygon class="cls-5" points="860.37 656.11 960.71 714.04 982.86 701.25 882.52 643.32 860.37 656.11"/><polygon class="cls-4" points="708.84 395.99 758.68 367.21 738.61 355.63 688.77 384.4 708.84 395.99"/><polygon class="cls-5" points="759.35 482.69 859.69 540.63 881.84 527.84 781.5 469.9 759.35 482.69"/><polygon class="cls-2" points="890.13 615.75 840.3 644.52 860.37 656.11 910.2 627.33 890.13 615.75"/><polygon class="cls-5" points="708.84 395.99 809.19 453.92 831.33 441.13 730.99 383.2 708.84 395.99"/><polygon class="cls-2" points="839.63 529.04 789.79 557.81 809.86 569.4 859.69 540.63 839.63 529.04"/><polygon class="cls-5" points="1131.02 383.98 1231.37 441.91 1209.22 454.7 1108.87 396.76 1131.02 383.98"/><polygon class="cls-4" points="910.94 372 960.77 343.23 980.84 354.81 931.01 383.59 910.94 372"/><polygon class="cls-5" points="1281.2 413.14 1381.55 471.07 1359.4 483.86 1259.05 425.92 1281.2 413.14"/><polygon class="cls-4" points="830.66 325.65 780.83 354.43 760.76 342.84 810.59 314.07 830.66 325.65"/><polygon class="cls-5" points="980.84 354.81 1081.19 412.75 1059.04 425.54 958.69 367.6 980.84 354.81"/><polygon class="cls-2" points="1211.3 430.32 1261.13 401.55 1281.2 413.14 1231.37 441.91 1211.3 430.32"/><polygon class="cls-5" points="830.66 325.65 931.01 383.59 908.86 396.37 808.51 338.44 830.66 325.65"/><polygon class="cls-5" points="680.48 296.49 780.83 354.43 758.68 367.21 658.33 309.28 680.48 296.49"/><polygon class="cls-2" points="1061.12 401.16 1110.95 372.39 1131.02 383.98 1081.19 412.75 1061.12 401.16"/><polygon class="cls-5" points="609.17 453.53 709.51 511.47 731.66 498.68 631.32 440.74 609.17 453.53"/><polygon class="cls-4" points="588.43 326.47 538.59 355.24 558.66 366.83 608.5 338.05 588.43 326.47"/><polygon class="cls-5" points="659.68 540.24 760.02 598.17 782.17 585.38 681.83 527.45 659.68 540.24"/><polygon class="cls-4" points="508.15 280.12 557.99 251.35 537.92 239.76 488.08 268.53 508.15 280.12"/><polygon class="cls-5" points="558.66 366.83 659.01 424.76 681.15 411.97 580.81 354.04 558.66 366.83"/><polygon class="cls-2" points="689.45 499.88 639.61 528.65 659.68 540.24 709.51 511.47 689.45 499.88"/><polygon class="cls-5" points="508.15 280.12 608.5 338.05 630.65 325.26 530.3 267.33 508.15 280.12"/><polygon class="cls-2" points="638.94 413.17 589.1 441.94 609.17 453.53 659.01 424.76 638.94 413.17"/><polygon class="cls-5" points="930.33 268.11 1030.68 326.04 1008.53 338.83 908.18 280.9 930.33 268.11"/><polygon class="cls-4" points="710.25 256.13 760.08 227.36 780.15 238.95 730.32 267.72 710.25 256.13"/><polygon class="cls-5" points="1080.51 297.27 1180.86 355.2 1158.71 367.99 1058.36 310.06 1080.51 297.27"/><polygon class="cls-4" points="629.97 209.79 580.14 238.56 560.07 226.97 609.9 198.2 629.97 209.79"/><polygon class="cls-5" points="780.15 238.95 880.5 296.88 858.35 309.67 758 251.73 780.15 238.95"/><polygon class="cls-2" points="1010.61 314.45 1060.44 285.68 1080.51 297.27 1030.68 326.04 1010.61 314.45"/><polygon class="cls-5" points="629.97 209.79 730.32 267.72 708.17 280.51 607.82 222.57 629.97 209.79"/><polygon class="cls-5" points="479.79 180.62 580.14 238.56 557.99 251.35 457.64 193.41 479.79 180.62"/><polygon class="cls-2" points="860.43 285.29 910.26 256.52 930.33 268.11 880.5 296.88 860.43 285.29"/><polygon class="cls-5" points="408.48 337.66 508.83 395.6 530.97 382.81 430.63 324.88 408.48 337.66"/><polygon class="cls-4" points="387.74 210.6 337.9 239.37 357.97 250.96 407.81 222.18 387.74 210.6"/><polygon class="cls-5" points="458.99 424.37 559.33 482.3 581.48 469.52 481.14 411.58 458.99 424.37"/><polygon class="cls-5" points="357.97 250.96 458.32 308.89 480.47 296.1 380.12 238.17 357.97 250.96"/><polygon class="cls-2" points="488.76 384.01 438.92 412.78 458.99 424.37 508.83 395.6 488.76 384.01"/><polygon class="cls-2" points="438.25 297.3 388.41 326.08 408.48 337.66 458.32 308.89 438.25 297.3"/><polygon class="cls-5" points="729.64 152.24 829.99 210.17 807.84 222.96 707.5 165.03 729.64 152.24"/><polygon class="cls-4" points="509.56 140.26 559.4 111.49 579.46 123.08 529.63 151.85 509.56 140.26"/><polygon class="cls-5" points="879.82 181.4 980.17 239.34 958.02 252.12 857.68 194.19 879.82 181.4"/><polygon class="cls-5" points="579.46 123.08 679.81 181.01 657.66 193.8 557.32 135.87 579.46 123.08"/><polygon class="cls-2" points="809.92 198.59 859.76 169.81 879.82 181.4 829.99 210.17 809.92 198.59"/><polygon class="cls-2" points="659.74 169.43 709.58 140.65 729.64 152.24 679.81 181.01 659.74 169.43"/><polygon class="cls-5" points="258.3 308.5 358.65 366.44 380.79 353.65 280.45 295.71 258.3 308.5"/><polygon class="cls-2" points="288.07 268.14 238.23 296.92 258.3 308.5 308.14 279.73 288.07 268.14"/><polygon class="cls-4" points="989.81 558.2 939.97 586.97 960.04 598.56 1009.87 569.79 989.81 558.2"/><polygon class="cls-4" points="909.53 511.85 959.37 483.08 939.3 471.49 889.46 500.27 909.53 511.85"/><polygon class="cls-5" points="960.04 598.56 1060.38 656.49 1082.53 643.71 982.19 585.77 960.04 598.56"/><polygon class="cls-4" points="1040.31 644.91 990.48 673.68 1010.55 685.27 1060.38 656.49 1040.31 644.91"/><polygon class="cls-5" points="1010.55 685.27 1110.89 743.2 1133.04 730.41 1032.7 672.48 1010.55 685.27"/><polygon class="cls-5" points="909.53 511.85 1009.87 569.79 1032.02 557 931.68 499.07 909.53 511.85"/><polygon class="cls-4" points="1111.63 487.87 1161.46 459.1 1181.53 470.68 1131.69 499.45 1111.63 487.87"/><polygon class="cls-4" points="1031.35 441.52 981.51 470.29 961.45 458.71 1011.28 429.93 1031.35 441.52"/><polygon class="cls-5" points="1181.53 470.68 1281.87 528.62 1259.73 541.4 1159.38 483.47 1181.53 470.68"/><polygon class="cls-5" points="1031.35 441.52 1131.69 499.45 1109.55 512.24 1009.2 454.31 1031.35 441.52"/><polygon class="cls-5" points="881.17 412.36 981.51 470.29 959.37 483.08 859.02 425.15 881.17 412.36"/><polygon class="cls-5" points="1081.86 528.23 1182.2 586.16 1160.05 598.95 1059.71 541.01 1081.86 528.23"/><polygon class="cls-5" points="1330.36 268.88 1430.71 326.82 1408.56 339.61 1308.22 281.67 1330.36 268.88"/><polygon class="cls-4" points="1110.28 256.91 1160.12 228.14 1180.18 239.72 1130.35 268.5 1110.28 256.91"/><polygon class="cls-5" points="1480.54 298.05 1580.89 355.98 1558.74 368.77 1458.4 310.83 1480.54 298.05"/><polygon class="cls-4" points="1030 210.56 980.17 239.34 960.1 227.75 1009.94 198.98 1030 210.56"/><polygon class="cls-5" points="679.14 65.53 779.48 123.47 757.33 136.26 656.99 78.32 679.14 65.53"/><polygon class="cls-5" points="829.32 94.69 929.66 152.63 907.51 165.42 807.17 107.48 829.32 94.69"/><polygon class="cls-2" points="759.41 111.88 809.25 83.11 829.32 94.69 779.48 123.47 759.41 111.88"/><polygon class="cls-2" points="609.23 82.72 659.07 53.95 679.14 65.53 629.3 94.31 609.23 82.72"/><polygon class="cls-4" points="979.5 123.86 929.66 152.63 909.59 141.04 959.43 112.27 979.5 123.86"/><polygon class="cls-5" points="1079.17 66.31 1179.51 124.24 1157.36 137.03 1057.02 79.1 1079.17 66.31"/><polygon class="cls-5" points="1229.35 95.47 1329.69 153.41 1307.54 166.19 1207.2 108.26 1229.35 95.47"/><polygon class="cls-2" points="1159.44 112.66 1209.28 83.88 1229.35 95.47 1179.51 124.24 1159.44 112.66"/><polygon class="cls-2" points="1009.26 83.5 1059.1 54.72 1079.17 66.31 1029.33 95.08 1009.26 83.5"/><polygon class="cls-4" points="1379.53 124.63 1329.69 153.41 1309.62 141.82 1359.46 113.05 1379.53 124.63"/><polygon class="cls-5" points="1180.18 239.72 1280.53 297.66 1258.38 310.45 1158.04 252.51 1180.18 239.72"/><polygon class="cls-2" points="1410.64 315.23 1460.48 286.46 1480.54 298.05 1430.71 326.82 1410.64 315.23"/><polygon class="cls-5" points="1030 210.56 1130.35 268.5 1108.2 281.28 1007.86 223.35 1030 210.56"/><polygon class="cls-2" points="1260.46 286.07 1310.3 257.3 1330.36 268.88 1280.53 297.66 1260.46 286.07"/><polygon class="cls-5" points="1129.68 153.02 1230.02 210.95 1207.87 223.74 1107.53 165.8 1129.68 153.02"/><polygon class="cls-4" points="909.59 141.04 959.43 112.27 979.5 123.86 929.66 152.63 909.59 141.04"/><polygon class="cls-5" points="1279.86 182.18 1380.2 240.11 1358.05 252.9 1257.71 194.97 1279.86 182.18"/><polygon class="cls-5" points="979.5 123.86 1079.84 181.79 1057.69 194.58 957.35 136.64 979.5 123.86"/><polygon class="cls-2" points="1209.95 199.36 1259.79 170.59 1279.86 182.18 1230.02 210.95 1209.95 199.36"/><polygon class="cls-2" points="1059.77 170.2 1109.61 141.43 1129.68 153.02 1079.84 181.79 1059.77 170.2"/><polygon class="cls-4" points="1310.97 372.78 1360.8 344 1380.87 355.59 1331.04 384.36 1310.97 372.78"/><polygon class="cls-4" points="1230.69 326.43 1180.86 355.2 1160.79 343.62 1210.62 314.84 1230.69 326.43"/><polygon class="cls-5" points="1380.87 355.59 1481.22 413.52 1459.07 426.31 1358.72 368.38 1380.87 355.59"/><polygon class="cls-5" points="1230.69 326.43 1331.04 384.36 1308.89 397.15 1208.54 339.22 1230.69 326.43"/><polygon class="cls-5" points="1430.04 211.34 1530.38 269.27 1508.23 282.06 1407.89 224.13 1430.04 211.34"/><polygon class="cls-5" points="1580.22 240.5 1680.56 298.43 1658.41 311.22 1558.07 253.29 1580.22 240.5"/><polygon class="cls-2" points="1510.31 257.69 1560.15 228.91 1580.22 240.5 1530.38 269.27 1510.31 257.69"/><polygon class="cls-2" points="1360.13 228.53 1409.97 199.75 1430.04 211.34 1380.2 240.11 1360.13 228.53"/><polygon class="cls-5" points="1379.53 124.63 1479.87 182.57 1457.72 195.35 1357.38 137.42 1379.53 124.63"/><polygon class="cls-2" points="1309.62 141.82 1359.46 113.05 1379.53 124.63 1329.69 153.41 1309.62 141.82"/><polygon class="cls-4" points="589.77 557.42 539.94 586.2 560.01 597.78 609.84 569.01 589.77 557.42"/><polygon class="cls-4" points="509.5 511.08 559.33 482.3 539.27 470.72 489.43 499.49 509.5 511.08"/><polygon class="cls-5" points="560.01 597.78 660.35 655.72 682.5 642.93 582.16 585 560.01 597.78"/><polygon class="cls-4" points="640.28 644.13 590.45 672.9 610.52 684.49 660.35 655.72 640.28 644.13"/><polygon class="cls-5" points="610.52 684.49 710.86 742.42 733.01 729.64 632.66 671.7 610.52 684.49"/><polygon class="cls-5" points="509.5 511.08 609.84 569.01 631.99 556.22 531.65 498.29 509.5 511.08"/><polygon class="cls-5" points="409.83 568.62 510.17 626.56 532.32 613.77 431.98 555.83 409.83 568.62"/><polygon class="cls-4" points="389.09 441.56 339.25 470.33 359.32 481.92 409.15 453.14 389.09 441.56"/><polygon class="cls-5" points="460.34 655.33 560.68 713.26 582.83 700.47 482.48 642.54 460.34 655.33"/><polygon class="cls-4" points="308.81 395.21 358.65 366.44 338.58 354.85 288.74 383.62 308.81 395.21"/><polygon class="cls-5" points="359.32 481.92 459.66 539.85 481.81 527.06 381.47 469.13 359.32 481.92"/><polygon class="cls-2" points="490.1 614.97 440.27 643.74 460.34 655.33 510.17 626.56 490.1 614.97"/><polygon class="cls-5" points="308.81 395.21 409.15 453.14 431.3 440.36 330.96 382.42 308.81 395.21"/><polygon class="cls-2" points="439.59 528.26 389.76 557.04 409.83 568.62 459.66 539.85 439.59 528.26"/><polygon class="cls-5" points="209.14 452.75 309.48 510.69 331.63 497.9 231.29 439.97 209.14 452.75"/><polygon class="cls-4" points="188.4 325.69 138.56 354.46 158.63 366.05 208.47 337.28 188.4 325.69"/><polygon class="cls-5" points="259.65 539.46 359.99 597.39 382.14 584.61 281.8 526.67 259.65 539.46"/><polygon class="cls-5" points="158.63 366.05 258.97 423.98 281.12 411.19 180.78 353.26 158.63 366.05"/><polygon class="cls-2" points="289.41 499.1 239.58 527.87 259.65 539.46 309.48 510.69 289.41 499.1"/><polygon class="cls-2" points="238.91 412.4 189.07 441.17 209.14 452.75 258.97 423.98 238.91 412.4"/><polygon class="cls-4" points="337.23 123.89 287.4 152.66 307.46 164.25 357.3 135.48 337.23 123.89"/><polygon class="cls-5" points="307.46 164.25 407.81 222.18 429.96 209.4 329.61 151.46 307.46 164.25"/><polygon class="cls-2" points="387.74 210.6 337.9 239.37 357.97 250.96 407.81 222.18 387.74 210.6"/><polygon class="cls-5" points="207.79 221.8 308.14 279.73 330.29 266.94 229.94 209.01 207.79 221.8"/><polygon class="cls-2" points="237.56 181.44 187.72 210.21 207.79 221.8 257.63 193.02 237.56 181.44"/><polygon class="cls-4" points="258.3 308.5 308.14 279.73 288.07 268.14 238.23 296.92 258.3 308.5"/><polygon class="cls-4" points="137.89 238.98 88.05 267.75 108.12 279.34 157.96 250.57 137.89 238.98"/><polygon class="cls-5" points="108.12 279.34 208.47 337.28 230.61 324.49 130.27 266.55 108.12 279.34"/><polygon class="cls-2" points="188.4 325.69 138.56 354.46 158.63 366.05 208.47 337.28 188.4 325.69"/><polygon class="cls-5" points="109.47 510.3 209.81 568.23 231.96 555.45 131.62 497.51 109.47 510.3"/><polygon class="cls-4" points="88.73 383.23 38.89 412.01 58.96 423.59 108.79 394.82 88.73 383.23"/><polygon class="cls-5" points="58.96 423.59 159.3 481.53 181.45 468.74 81.11 410.81 58.96 423.59"/><polygon class="cls-2" points="189.74 556.65 139.91 585.42 159.98 597.01 209.81 568.23 189.74 556.65"/><polygon class="cls-2" points="139.23 469.94 89.4 498.71 109.47 510.3 159.3 481.53 139.23 469.94"/><polygon class="cls-4" points="790.46 673.29 740.63 702.06 760.7 713.65 810.53 684.88 790.46 673.29"/><polygon class="cls-4" points="710.19 626.94 760.02 598.17 739.95 586.59 690.12 615.36 710.19 626.94"/><polygon class="cls-5" points="710.19 626.94 810.53 684.88 832.68 672.09 732.34 614.16 710.19 626.94"/><polygon class="cls-5" points="760.7 713.65 861.04 771.58 883.19 758.8 782.84 700.86 760.7 713.65"/><polygon class="cls-5" points="310.16 626.17 410.5 684.1 432.65 671.31 332.3 613.38 310.16 626.17"/><polygon class="cls-2" points="390.43 672.51 340.6 701.29 360.66 712.87 410.5 684.1 390.43 672.51"/><polygon class="cls-5" points="159.98 597.01 260.32 654.94 282.47 642.15 182.12 584.22 159.98 597.01"/><polygon class="cls-5" points="210.48 683.71 310.83 741.65 332.98 728.86 232.63 670.93 210.48 683.71"/><polygon class="cls-2" points="240.25 643.35 190.42 672.13 210.48 683.71 260.32 654.94 240.25 643.35"/><polygon class="cls-5" points="60.3 654.55 160.65 712.49 182.8 699.7 82.45 641.76 60.3 654.55"/><polygon class="cls-2" points="339.92 585.81 290.09 614.58 310.16 626.17 359.99 597.39 339.92 585.81"/><polygon class="cls-5" points="360.66 712.87 461.01 770.81 483.16 758.02 382.81 700.09 360.66 712.87"/><polygon class="cls-5" points="159.98 597.01 260.32 654.94 282.47 642.15 182.12 584.22 159.98 597.01"/><polygon class="cls-2" points="189.74 556.65 139.91 585.42 159.98 597.01 209.81 568.23 189.74 556.65"/><polygon class="cls-2" points="90.07 614.19 40.24 642.96 60.3 654.55 110.14 625.78 90.07 614.19"/><polygon class="cls-4" points="1432.73 673.26 1382.89 702.03 1362.82 690.44 1412.66 661.67 1432.73 673.26"/><polygon class="cls-5" points="1282.55 644.09 1382.89 702.03 1360.74 714.82 1260.4 656.88 1282.55 644.09"/><polygon class="cls-4" points="1190.49 674.07 1140.66 702.84 1160.73 714.43 1210.56 685.66 1190.49 674.07"/><polygon class="cls-4" points="1110.22 627.72 1160.05 598.95 1139.99 587.36 1090.15 616.13 1110.22 627.72"/><polygon class="cls-5" points="1110.22 627.72 1210.56 685.66 1232.71 672.87 1132.37 614.93 1110.22 627.72"/><polygon class="cls-5" points="1160.74 714.42 1261.08 772.35 1283.23 759.57 1182.89 701.63 1160.74 714.42"/><polygon class="cls-5" points="1532.4 615.71 1632.74 673.64 1610.59 686.43 1510.25 628.5 1532.4 615.71"/><polygon class="cls-4" points="1312.31 603.74 1362.15 574.96 1382.22 586.55 1332.38 615.32 1312.31 603.74"/><polygon class="cls-4" points="1232.04 557.39 1182.2 586.16 1162.13 574.57 1211.97 545.8 1232.04 557.39"/><polygon class="cls-5" points="1382.22 586.55 1482.56 644.48 1460.41 657.27 1360.07 599.34 1382.22 586.55"/><polygon class="cls-5" points="1232.04 557.39 1332.38 615.32 1310.23 628.11 1209.89 570.18 1232.04 557.39"/><polygon class="cls-2" points="1462.49 632.9 1512.33 604.12 1532.4 615.71 1482.56 644.48 1462.49 632.9"/><polygon class="cls-5" points="1331.71 499.84 1432.05 557.78 1409.91 570.56 1309.56 512.63 1331.71 499.84"/><polygon class="cls-5" points="1481.89 529 1582.23 586.94 1560.09 599.73 1459.74 541.79 1481.89 529"/><polygon class="cls-2" points="1411.99 546.19 1461.82 517.42 1481.89 529 1432.05 557.78 1411.99 546.19"/><polygon class="cls-2" points="1261.81 517.03 1311.64 488.26 1331.71 499.84 1281.87 528.62 1261.81 517.03"/><polygon class="cls-4" points="1632.07 558.17 1582.23 586.94 1562.17 575.35 1612 546.58 1632.07 558.17"/><polygon class="cls-5" points="1632.07 558.17 1732.41 616.1 1710.27 628.89 1609.92 570.95 1632.07 558.17"/><polygon class="cls-4" points="1782.25 587.33 1732.41 616.1 1712.35 604.51 1762.18 575.74 1782.25 587.33"/><polygon class="cls-5" points="1782.25 587.33 1882.59 645.26 1860.45 658.05 1760.1 600.11 1782.25 587.33"/><polygon class="cls-4" points="1582.91 702.42 1533.07 731.19 1513 719.6 1562.84 690.83 1582.91 702.42"/><polygon class="cls-5" points="1582.91 702.42 1683.25 760.35 1661.1 773.14 1560.76 715.2 1582.91 702.42"/><polygon class="cls-4" points="1682.58 644.87 1632.74 673.64 1612.67 662.06 1662.51 633.28 1682.58 644.87"/><polygon class="cls-5" points="1682.58 644.87 1782.92 702.81 1760.77 715.59 1660.43 657.66 1682.58 644.87"/><polygon class="cls-5" points="1432.73 673.26 1533.07 731.19 1510.92 743.98 1410.58 686.04 1432.73 673.26"/><polygon class="cls-4" points="1511.66 488.64 1561.49 459.87 1581.56 471.46 1531.73 500.23 1511.66 488.64"/><polygon class="cls-4" points="1431.38 442.3 1381.55 471.07 1361.48 459.48 1411.31 430.71 1431.38 442.3"/><polygon class="cls-5" points="1581.56 471.46 1681.91 529.39 1659.76 542.18 1559.41 484.25 1581.56 471.46"/><polygon class="cls-5" points="1431.38 442.3 1531.73 500.23 1509.58 513.02 1409.23 455.09 1431.38 442.3"/><polygon class="cls-2" points="1661.84 517.81 1711.67 489.03 1731.74 500.62 1681.91 529.39 1661.84 517.81"/><polygon class="cls-5" points="1731.74 500.62 1832.09 558.55 1809.94 571.34 1709.59 513.41 1731.74 500.62"/><polygon class="cls-2" points="1812.02 546.97 1861.85 518.19 1881.92 529.78 1832.09 558.55 1812.02 546.97"/><polygon class="cls-5" points="1531.05 384.75 1631.4 442.69 1609.25 455.47 1508.9 397.54 1531.05 384.75"/><polygon class="cls-5" points="1681.23 413.91 1781.58 471.85 1759.43 484.64 1659.08 426.7 1681.23 413.91"/><polygon class="cls-2" points="1611.33 431.1 1661.16 402.33 1681.23 413.91 1631.4 442.69 1611.33 431.1"/><polygon class="cls-2" points="1461.15 401.94 1510.98 373.17 1531.05 384.75 1481.22 413.52 1461.15 401.94"/><polygon class="cls-5" points="1630.72 327.21 1731.07 385.14 1708.92 397.93 1608.58 339.99 1630.72 327.21"/><polygon class="cls-2" points="1711 373.55 1760.84 344.78 1780.9 356.37 1731.07 385.14 1711 373.55"/><polygon class="cls-2" points="1560.82 344.39 1610.66 315.62 1630.72 327.21 1580.89 355.98 1560.82 344.39"/><polygon class="cls-5" points="1780.9 356.37 1881.25 414.3 1859.1 427.09 1758.76 369.16 1780.9 356.37"/><polygon class="cls-2" points="1660.49 286.85 1710.33 258.07 1730.4 269.66 1680.56 298.43 1660.49 286.85"/><polygon class="cls-5" points="1529.71 153.79 1630.05 211.73 1607.9 224.52 1507.56 166.58 1529.71 153.79"/><polygon class="cls-2" points="1459.8 170.98 1509.64 142.21 1529.71 153.79 1479.87 182.57 1459.8 170.98"/><polygon class="cls-2" points="1609.98 200.14 1659.82 171.37 1679.89 182.96 1630.05 211.73 1609.98 200.14"/><polygon class="cls-5" points="1679.89 182.96 1780.23 240.89 1758.08 253.68 1657.74 195.74 1679.89 182.96"/></g><polygon class="cls-4" points="261.27 639.36 170.94 587.21 260.62 535.43 350.94 587.58 261.27 639.36"/><polygon class="cls-4" points="260.54 523.71 170.22 471.56 259.89 419.78 350.22 471.93 260.54 523.71"/><polygon class="cls-4" points="461.58 639.78 371.26 587.63 460.93 535.85 551.26 588 461.58 639.78"/><polygon class="cls-4" points="259.81 408.06 169.49 355.91 259.16 304.13 349.49 356.28 259.81 408.06"/><polygon class="cls-4" points="259.81 292.64 169.49 240.49 259.16 188.71 349.49 240.86 259.81 292.64"/><polygon class="cls-4" points="661.9 640.2 571.57 588.05 661.24 536.27 751.57 588.42 661.9 640.2"/><polygon class="cls-4" points="460.86 524.13 370.53 471.98 460.2 420.2 550.53 472.35 460.86 524.13"/><polygon class="cls-4" points="460.13 408.48 369.8 356.33 459.47 304.55 549.8 356.7 460.13 408.48"/><polygon class="cls-4" points="862.21 640.62 771.88 588.47 861.55 536.69 951.88 588.84 862.21 640.62"/><polygon class="cls-4" points="661.17 524.55 570.84 472.4 660.51 420.62 750.84 472.77 661.17 524.55"/><polygon class="cls-4" points="659.71 293.25 569.39 241.1 659.06 189.32 749.39 241.47 659.71 293.25"/><polygon class="cls-4" points="1061.79 525.39 971.47 473.24 1061.14 421.46 1151.47 473.61 1061.79 525.39"/><polygon class="cls-4" points="1262.83 641.46 1172.51 589.31 1262.18 537.53 1352.51 589.69 1262.83 641.46"/><polygon class="cls-4" points="860.75 409.32 770.43 357.17 860.1 305.39 950.43 357.54 860.75 409.32"/><polygon class="cls-4" points="860.03 293.67 769.7 241.52 859.37 189.74 949.7 241.89 860.03 293.67"/><polygon class="cls-4" points="1262.11 525.81 1171.78 473.66 1261.45 421.88 1351.78 474.03 1262.11 525.81"/><polygon class="cls-4" points="1463.15 641.88 1372.82 589.73 1462.49 537.95 1552.82 590.11 1463.15 641.88"/><polygon class="cls-4" points="1061.07 409.74 970.74 357.59 1060.41 305.81 1150.74 357.96 1061.07 409.74"/><polygon class="cls-4" points="1260.65 294.51 1170.32 242.36 1260 190.58 1350.32 242.73 1260.65 294.51"/><polygon class="cls-4" points="1662.73 526.65 1572.41 474.5 1662.08 422.72 1752.41 474.87 1662.73 526.65"/><polygon class="cls-4" points="1461.69 410.58 1371.36 358.43 1461.04 306.65 1551.36 358.8 1461.69 410.58"/><polygon class="cls-4" points="1662 411 1571.68 358.85 1661.35 307.07 1751.68 359.22 1662 411"/><polygon class="cls-4" points="1460.96 294.93 1370.64 242.78 1460.31 191 1550.64 243.15 1460.96 294.93"/><polygon class="cls-4" points="1261.38 410.16 1171.05 358.01 1260.73 306.23 1351.05 358.38 1261.38 410.16"/><polygon class="cls-4" points="1462.42 526.23 1372.09 474.08 1461.77 422.3 1552.09 474.45 1462.42 526.23"/><polygon class="cls-4" points="1663.46 642.3 1573.13 590.15 1662.81 538.38 1753.13 590.53 1663.46 642.3"/><polygon class="cls-4" points="1060.34 294.09 970.01 241.94 1059.68 190.16 1150.01 242.31 1060.34 294.09"/><polygon class="cls-4" points="659.71 174.91 569.39 122.76 659.06 70.99 749.39 123.14 659.71 174.91"/><polygon class="cls-4" points="860.03 175.33 769.7 123.18 859.37 71.41 949.7 123.56 860.03 175.33"/><polygon class="cls-4" points="1260.65 176.17 1170.32 124.02 1260 72.25 1350.32 124.4 1260.65 176.17"/><polygon class="cls-4" points="1060.34 175.75 970.01 123.6 1059.68 71.83 1150.01 123.98 1060.34 175.75"/><polygon class="cls-4" points="660.44 408.9 570.11 356.75 659.79 304.97 750.11 357.12 660.44 408.9"/><polygon class="cls-4" points="459.4 292.83 369.07 240.67 458.75 188.9 549.07 241.05 459.4 292.83"/><polygon class="cls-4" points="1062.52 641.04 972.19 588.89 1061.87 537.11 1152.19 589.26 1062.52 641.04"/><polygon class="cls-4" points="261.27 757.72 170.94 705.57 260.62 653.8 350.94 705.95 261.27 757.72"/><polygon class="cls-4" points="461.58 758.14 371.26 705.99 460.93 654.22 551.26 706.37 461.58 758.14"/><polygon class="cls-4" points="661.9 758.56 571.57 706.41 661.24 654.64 751.57 706.79 661.9 758.56"/><polygon class="cls-4" points="862.21 758.98 771.88 706.83 861.55 655.06 951.88 707.21 862.21 758.98"/><polygon class="cls-4" points="1262.83 759.82 1172.51 707.67 1262.18 655.9 1352.51 708.05 1262.83 759.82"/><polygon class="cls-4" points="1463.15 760.24 1372.82 708.09 1462.49 656.32 1552.82 708.47 1463.15 760.24"/><polygon class="cls-4" points="1663.46 760.66 1573.13 708.51 1662.81 656.74 1753.13 708.89 1663.46 760.66"/><polygon class="cls-4" points="1062.52 759.4 972.19 707.25 1061.87 655.48 1152.19 707.63 1062.52 759.4"/><polygon class="cls-3" points="361.79 697.39 271.46 645.24 361.14 593.47 451.46 645.62 361.79 697.39"/><polygon class="cls-3" points="361.06 581.74 270.74 529.59 360.41 477.82 450.74 529.97 361.06 581.74"/><polygon class="cls-3" points="562.1 697.81 471.78 645.66 561.45 593.89 651.78 646.04 562.1 697.81"/><polygon class="cls-3" points="360.33 466.09 270.01 413.94 359.68 362.17 450.01 414.32 360.33 466.09"/><polygon class="cls-3" points="762.42 698.23 672.09 646.08 761.76 594.31 852.09 646.46 762.42 698.23"/><polygon class="cls-3" points="561.38 582.16 471.05 530.01 560.72 478.24 651.05 530.39 561.38 582.16"/><polygon class="cls-3" points="560.65 466.51 470.32 414.36 559.99 362.59 650.32 414.74 560.65 466.51"/><polygon class="cls-3" points="359.61 350.44 269.28 298.29 358.95 246.52 449.28 298.67 359.61 350.44"/><polygon class="cls-3" points="359.61 235.02 269.28 182.87 358.95 131.1 449.28 183.25 359.61 235.02"/><polygon class="cls-3" points="962.73 698.65 872.4 646.5 962.07 594.73 1052.4 646.88 962.73 698.65"/><polygon class="cls-3" points="761.69 582.58 671.36 530.43 761.03 478.66 851.36 530.81 761.69 582.58"/><polygon class="cls-3" points="760.23 351.28 669.91 299.13 759.58 247.36 849.91 299.51 760.23 351.28"/><polygon class="cls-3" points="559.19 235.21 468.87 183.06 558.54 131.29 648.87 183.44 559.19 235.21"/><polygon class="cls-3" points="1162.31 583.42 1071.99 531.27 1161.66 479.5 1251.99 531.65 1162.31 583.42"/><polygon class="cls-3" points="1363.35 699.49 1273.03 647.34 1362.7 595.57 1453.03 647.72 1363.35 699.49"/><polygon class="cls-3" points="961.27 467.35 870.95 415.2 960.62 363.43 1050.95 415.58 961.27 467.35"/><polygon class="cls-3" points="960.55 351.7 870.22 299.55 959.89 247.78 1050.22 299.93 960.55 351.7"/><polygon class="cls-3" points="759.51 235.63 669.18 183.48 758.85 131.71 849.18 183.86 759.51 235.63"/><polygon class="cls-3" points="1362.63 583.84 1272.3 531.69 1361.97 479.92 1452.3 532.07 1362.63 583.84"/><polygon class="cls-3" points="1563.67 699.91 1473.34 647.76 1563.01 595.99 1653.34 648.14 1563.67 699.91"/><polygon class="cls-3" points="1161.59 467.77 1071.26 415.62 1160.93 363.85 1251.26 416 1161.59 467.77"/><polygon class="cls-3" points="1361.17 352.54 1270.84 300.39 1360.52 248.62 1450.84 300.77 1361.17 352.54"/><polygon class="cls-3" points="1160.13 236.47 1069.8 184.32 1159.48 132.55 1249.8 184.7 1160.13 236.47"/><polygon class="cls-3" points="1361.9 236.47 1271.57 184.32 1361.25 132.55 1451.57 184.7 1361.9 236.47"/><polygon class="cls-3" points="1562.21 468.61 1471.89 416.46 1561.56 364.69 1651.89 416.84 1562.21 468.61"/><polygon class="cls-3" points="1561.48 352.96 1471.16 300.81 1560.83 249.04 1651.16 301.19 1561.48 352.96"/><polygon class="cls-3" points="959.82 236.05 869.49 183.9 959.16 132.13 1049.49 184.28 959.82 236.05"/><polygon class="cls-3" points="1361.9 468.19 1271.57 416.04 1361.25 364.27 1451.57 416.42 1361.9 468.19"/><polygon class="cls-3" points="1562.94 584.26 1472.61 532.11 1562.29 480.34 1652.61 532.49 1562.94 584.26"/><polygon class="cls-4" points="1660.55 294.93 1570.22 242.78 1659.9 191 1750.22 243.15 1660.55 294.93"/><polygon class="cls-3" points="1561.48 236.47 1471.16 184.32 1560.83 132.55 1651.16 184.7 1561.48 236.47"/><polygon class="cls-3" points="1761.8 468.61 1671.47 416.46 1761.14 364.69 1851.47 416.84 1761.8 468.61"/><polygon class="cls-3" points="1762.52 584.26 1672.2 532.11 1761.87 480.34 1852.2 532.49 1762.52 584.26"/><polygon class="cls-3" points="1160.86 352.12 1070.53 299.97 1160.2 248.2 1250.53 300.35 1160.86 352.12"/><polygon class="cls-3" points="760.96 466.93 670.63 414.78 760.31 363.01 850.63 415.16 760.96 466.93"/><polygon class="cls-3" points="559.92 350.86 469.59 298.71 559.27 246.94 649.59 299.09 559.92 350.86"/><polygon class="cls-3" points="161.48 582.16 71.15 530.01 160.82 478.24 251.15 530.39 161.48 582.16"/><polygon class="cls-3" points="1762.52 698.86 1672.2 646.71 1761.87 594.94 1852.2 647.09 1762.52 698.86"/><polygon class="cls-3" points="161.48 696.76 71.15 644.61 160.82 592.84 251.15 644.99 161.48 696.76"/><polygon class="cls-3" points="160.75 466.51 70.42 414.36 160.1 362.59 250.42 414.74 160.75 466.51"/><polygon class="cls-3" points="160.02 350.86 69.7 298.71 159.37 246.94 249.7 299.09 160.02 350.86"/><polygon class="cls-3" points="1163.04 699.07 1072.71 646.92 1162.39 595.15 1252.71 647.3 1163.04 699.07"/><polygon class="cls-3" points="962 583 871.67 530.85 961.35 479.08 1051.67 531.23 962 583"/><polygon class="cls-4" points="861.48 524.97 771.15 472.82 860.83 421.04 951.15 473.19 861.48 524.97"/></g></svg>