<?xml version="1.0" encoding="UTF-8"?><svg id="Layer_2" xmlns="http://www.w3.org/2000/svg" viewBox="0 0 1644 662"><defs><style>.cls-1{fill:none;}.cls-1,.cls-2,.cls-3,.cls-4,.cls-5{stroke-width:0px;}.cls-6{opacity:.3;}.cls-2{fill:#009c49;}.cls-3{fill:#9fd671;}.cls-4{fill:#00ab3a;}.cls-5{fill:#00492e;}</style></defs><g id="Layer_9"><rect class="cls-1" width="1644" height="662"/><g class="cls-6"><polygon class="cls-5" points="671.79 516.39 772.13 574.32 794.28 561.53 693.94 503.6 671.79 516.39"/><polygon class="cls-4" points="651.05 389.32 601.21 418.09 621.28 429.68 671.12 400.91 651.05 389.32"/><polygon class="cls-5" points="722.3 603.09 822.64 661.03 844.79 648.24 744.45 590.31 722.3 603.09"/><polygon class="cls-4" points="570.77 342.98 620.61 314.2 600.54 302.62 550.7 331.39 570.77 342.98"/><polygon class="cls-5" points="621.28 429.68 721.62 487.62 743.77 474.83 643.43 416.89 621.28 429.68"/><polygon class="cls-2" points="752.06 562.74 702.23 591.51 722.3 603.09 772.13 574.32 752.06 562.74"/><polygon class="cls-5" points="570.77 342.98 671.12 400.91 693.27 388.12 592.92 330.19 570.77 342.98"/><polygon class="cls-2" points="701.56 476.03 651.72 504.8 671.79 516.39 721.62 487.62 701.56 476.03"/><polygon class="cls-5" points="992.95 330.96 1093.3 388.9 1071.15 401.69 970.8 343.75 992.95 330.96"/><polygon class="cls-4" points="772.87 318.99 822.7 290.22 842.77 301.8 792.94 330.58 772.87 318.99"/><polygon class="cls-5" points="1143.13 360.13 1243.48 418.06 1221.33 430.85 1120.98 372.91 1143.13 360.13"/><polygon class="cls-4" points="692.59 272.64 642.76 301.41 622.69 289.83 672.52 261.06 692.59 272.64"/><polygon class="cls-5" points="842.77 301.8 943.12 359.74 920.97 372.52 820.62 314.59 842.77 301.8"/><polygon class="cls-2" points="1073.23 377.31 1123.06 348.54 1143.13 360.13 1093.3 388.9 1073.23 377.31"/><polygon class="cls-5" points="692.59 272.64 792.94 330.58 770.79 343.36 670.44 285.43 692.59 272.64"/><polygon class="cls-5" points="542.41 243.48 642.76 301.41 620.61 314.2 520.26 256.27 542.41 243.48"/><polygon class="cls-2" points="923.05 348.15 972.88 319.38 992.95 330.96 943.12 359.74 923.05 348.15"/><polygon class="cls-5" points="471.1 400.52 571.44 458.45 593.59 445.67 493.25 387.73 471.1 400.52"/><polygon class="cls-4" points="450.36 273.45 400.52 302.23 420.59 313.81 470.43 285.04 450.36 273.45"/><polygon class="cls-5" points="521.61 487.23 621.95 545.16 644.1 532.37 543.76 474.44 521.61 487.23"/><polygon class="cls-4" points="370.08 227.11 419.92 198.33 399.85 186.75 350.01 215.52 370.08 227.11"/><polygon class="cls-5" points="420.59 313.81 520.94 371.75 543.09 358.96 442.74 301.03 420.59 313.81"/><polygon class="cls-2" points="551.38 446.87 501.54 475.64 521.61 487.23 571.44 458.45 551.38 446.87"/><polygon class="cls-5" points="370.08 227.11 470.43 285.04 492.58 272.25 392.23 214.32 370.08 227.11"/><polygon class="cls-2" points="500.87 360.16 451.03 388.93 471.1 400.52 520.94 371.75 500.87 360.16"/><polygon class="cls-5" points="792.26 215.1 892.61 273.03 870.46 285.82 770.11 227.88 792.26 215.1"/><polygon class="cls-4" points="572.18 203.12 622.02 174.35 642.08 185.94 592.25 214.71 572.18 203.12"/><polygon class="cls-5" points="942.44 244.26 1042.79 302.19 1020.64 314.98 920.29 257.05 942.44 244.26"/><polygon class="cls-4" points="491.9 156.77 442.07 185.55 422 173.96 471.84 145.19 491.9 156.77"/><polygon class="cls-5" points="642.08 185.94 742.43 243.87 720.28 256.66 619.93 198.72 642.08 185.94"/><polygon class="cls-2" points="872.54 261.44 922.38 232.67 942.44 244.26 892.61 273.03 872.54 261.44"/><polygon class="cls-5" points="491.9 156.77 592.25 214.71 570.1 227.5 469.75 169.56 491.9 156.77"/><polygon class="cls-2" points="722.36 232.28 772.2 203.51 792.26 215.1 742.43 243.87 722.36 232.28"/><polygon class="cls-5" points="270.41 284.65 370.76 342.59 392.91 329.8 292.56 271.87 270.41 284.65"/><polygon class="cls-5" points="320.92 371.36 421.26 429.29 443.41 416.51 343.07 358.57 320.92 371.36"/><polygon class="cls-2" points="350.69 331 300.85 359.77 320.92 371.36 370.76 342.59 350.69 331"/><polygon class="cls-2" points="300.18 244.29 250.34 273.07 270.41 284.65 320.25 255.88 300.18 244.29"/><polygon class="cls-5" points="741.76 128.39 842.1 186.32 819.95 199.11 719.61 141.18 741.76 128.39"/><polygon class="cls-2" points="671.85 145.58 721.69 116.8 741.76 128.39 691.92 157.16 671.85 145.58"/><polygon class="cls-4" points="851.74 505.19 801.9 533.96 821.97 545.55 871.8 516.78 851.74 505.19"/><polygon class="cls-4" points="771.46 458.84 821.3 430.07 801.23 418.48 751.39 447.26 771.46 458.84"/><polygon class="cls-5" points="821.97 545.55 922.31 603.48 944.46 590.7 844.12 532.76 821.97 545.55"/><polygon class="cls-5" points="771.46 458.84 871.8 516.78 893.95 503.99 793.61 446.05 771.46 458.84"/><polygon class="cls-4" points="973.56 434.86 1023.39 406.08 1043.46 417.67 993.63 446.44 973.56 434.86"/><polygon class="cls-4" points="893.28 388.51 843.45 417.28 823.38 405.7 873.21 376.92 893.28 388.51"/><polygon class="cls-5" points="1043.46 417.67 1143.81 475.6 1121.66 488.39 1021.31 430.46 1043.46 417.67"/><polygon class="cls-5" points="893.28 388.51 993.63 446.44 971.48 459.23 871.13 401.3 893.28 388.51"/><polygon class="cls-5" points="743.1 359.35 843.45 417.28 821.3 430.07 720.95 372.14 743.1 359.35"/><polygon class="cls-5" points="943.79 475.22 1044.13 533.15 1021.98 545.94 921.64 488 943.79 475.22"/><polygon class="cls-5" points="1192.3 215.87 1292.64 273.81 1270.49 286.6 1170.15 228.66 1192.3 215.87"/><polygon class="cls-4" points="972.21 203.9 1022.05 175.13 1042.12 186.71 992.28 215.49 972.21 203.9"/><polygon class="cls-5" points="1342.48 245.03 1442.82 302.97 1420.67 315.76 1320.33 257.82 1342.48 245.03"/><polygon class="cls-4" points="891.94 157.55 842.1 186.32 822.03 174.74 871.87 145.96 891.94 157.55"/><polygon class="cls-5" points="1042.12 186.71 1142.46 244.65 1120.31 257.43 1019.97 199.5 1042.12 186.71"/><polygon class="cls-2" points="1272.57 262.22 1322.41 233.45 1342.48 245.03 1292.64 273.81 1272.57 262.22"/><polygon class="cls-5" points="891.94 157.55 992.28 215.49 970.13 228.27 869.79 170.34 891.94 157.55"/><polygon class="cls-2" points="1122.39 233.06 1172.23 204.29 1192.3 215.87 1142.46 244.65 1122.39 233.06"/><polygon class="cls-4" points="771.52 88.03 821.36 59.26 841.43 70.84 791.59 99.62 771.52 88.03"/><polygon class="cls-5" points="1141.79 129.17 1242.13 187.1 1219.98 199.89 1119.64 141.96 1141.79 129.17"/><polygon class="cls-5" points="841.43 70.84 941.77 128.78 919.62 141.57 819.28 83.63 841.43 70.84"/><polygon class="cls-2" points="1071.88 146.35 1121.72 117.58 1141.79 129.17 1091.95 157.94 1071.88 146.35"/><polygon class="cls-4" points="1172.9 319.77 1222.74 290.99 1242.8 302.58 1192.97 331.35 1172.9 319.77"/><polygon class="cls-4" points="1092.62 273.42 1042.79 302.19 1022.72 290.6 1072.56 261.83 1092.62 273.42"/><polygon class="cls-5" points="1242.8 302.58 1343.15 360.51 1321 373.3 1220.65 315.37 1242.8 302.58"/><polygon class="cls-5" points="1092.62 273.42 1192.97 331.35 1170.82 344.14 1070.47 286.21 1092.62 273.42"/><polygon class="cls-4" points="451.7 504.41 401.87 533.19 421.94 544.77 471.77 516 451.7 504.41"/><polygon class="cls-4" points="371.43 458.07 421.26 429.29 401.2 417.71 351.36 446.48 371.43 458.07"/><polygon class="cls-5" points="421.94 544.77 522.28 602.71 544.43 589.92 444.09 531.98 421.94 544.77"/><polygon class="cls-5" points="371.43 458.07 471.77 516 493.92 503.21 393.58 445.28 371.43 458.07"/><polygon class="cls-2" points="502.21 591.12 452.38 619.89 472.45 631.48 522.28 602.71 502.21 591.12"/><polygon class="cls-5" points="271.76 515.61 372.1 573.55 394.25 560.76 293.91 502.82 271.76 515.61"/><polygon class="cls-4" points="251.02 388.55 201.18 417.32 221.25 428.9 271.08 400.13 251.02 388.55"/><polygon class="cls-5" points="322.27 602.32 422.61 660.25 444.76 647.46 344.42 589.53 322.27 602.32"/><polygon class="cls-5" points="221.25 428.9 321.59 486.84 343.74 474.05 243.4 416.12 221.25 428.9"/><polygon class="cls-2" points="352.03 561.96 302.2 590.73 322.27 602.32 372.1 573.55 352.03 561.96"/><polygon class="cls-2" points="301.52 475.25 251.69 504.02 271.76 515.61 321.59 486.84 301.52 475.25"/><polygon class="cls-5" points="121.58 486.45 221.92 544.38 244.07 531.6 143.73 473.66 121.58 486.45"/><polygon class="cls-2" points="151.34 446.09 101.51 474.86 121.58 486.45 171.41 457.68 151.34 446.09"/><polygon class="cls-4" points="652.39 620.28 602.56 649.05 622.63 660.64 672.46 631.87 652.39 620.28"/><polygon class="cls-4" points="572.12 573.93 621.95 545.16 601.88 533.57 552.05 562.35 572.12 573.93"/><polygon class="cls-5" points="572.12 573.93 672.46 631.87 694.61 619.08 594.27 561.15 572.12 573.93"/><polygon class="cls-4" points="1294.66 620.24 1244.82 649.02 1224.75 637.43 1274.59 608.66 1294.66 620.24"/><polygon class="cls-5" points="1144.48 591.08 1244.82 649.02 1222.67 661.81 1122.33 603.87 1144.48 591.08"/><polygon class="cls-4" points="1052.42 621.06 1002.59 649.83 1022.66 661.42 1072.49 632.64 1052.42 621.06"/><polygon class="cls-4" points="972.15 574.71 1021.98 545.94 1001.92 534.35 952.08 563.12 972.15 574.71"/><polygon class="cls-5" points="972.15 574.71 1072.49 632.64 1094.64 619.86 994.3 561.92 972.15 574.71"/><polygon class="cls-4" points="1174.25 550.72 1224.08 521.95 1244.15 533.54 1194.31 562.31 1174.25 550.72"/><polygon class="cls-4" points="1093.97 504.38 1044.13 533.15 1024.07 521.56 1073.9 492.79 1093.97 504.38"/><polygon class="cls-5" points="1244.15 533.54 1344.49 591.47 1322.34 604.26 1222 546.33 1244.15 533.54"/><polygon class="cls-5" points="1093.97 504.38 1194.31 562.31 1172.16 575.1 1071.82 517.17 1093.97 504.38"/><polygon class="cls-2" points="1324.43 579.89 1374.26 551.11 1394.33 562.7 1344.49 591.47 1324.43 579.89"/><polygon class="cls-2" points="902.24 591.9 852.41 620.67 872.48 632.26 922.31 603.48 902.24 591.9"/><polygon class="cls-5" points="1193.64 446.83 1293.99 504.77 1271.84 517.55 1171.49 459.62 1193.64 446.83"/><polygon class="cls-5" points="1343.82 475.99 1444.17 533.93 1422.02 546.71 1321.67 488.78 1343.82 475.99"/><polygon class="cls-2" points="1273.92 493.18 1323.75 464.41 1343.82 475.99 1293.99 504.77 1273.92 493.18"/><polygon class="cls-2" points="1123.74 464.02 1173.57 435.25 1193.64 446.83 1143.81 475.6 1123.74 464.02"/><polygon class="cls-4" points="1494 505.15 1444.17 533.93 1424.1 522.34 1473.93 493.57 1494 505.15"/><polygon class="cls-4" points="1373.59 435.63 1423.42 406.86 1443.49 418.45 1393.66 447.22 1373.59 435.63"/><polygon class="cls-4" points="1293.31 389.29 1243.48 418.06 1223.41 406.47 1273.24 377.7 1293.31 389.29"/><polygon class="cls-5" points="1443.49 418.45 1543.84 476.38 1521.69 489.17 1421.34 431.24 1443.49 418.45"/><polygon class="cls-5" points="1293.31 389.29 1393.66 447.22 1371.51 460.01 1271.16 402.07 1293.31 389.29"/></g><polygon class="cls-4" points="323.58 584.21 233.26 532.06 322.93 480.28 413.26 532.44 323.58 584.21"/><polygon class="cls-4" points="523.9 584.63 433.57 532.48 523.24 480.71 613.57 532.86 523.9 584.63"/><polygon class="cls-4" points="322.86 468.56 232.53 416.41 322.2 364.63 412.53 416.78 322.86 468.56"/><polygon class="cls-4" points="322.13 352.91 231.8 300.76 321.47 248.98 411.8 301.13 322.13 352.91"/><polygon class="cls-4" points="724.21 585.05 633.88 532.9 723.55 481.13 813.88 533.28 724.21 585.05"/><polygon class="cls-4" points="523.17 468.98 432.84 416.83 522.51 365.05 612.84 417.2 523.17 468.98"/><polygon class="cls-4" points="923.79 469.82 833.47 417.67 923.14 365.89 1013.47 418.04 923.79 469.82"/><polygon class="cls-4" points="1124.83 585.89 1034.51 533.74 1124.18 481.97 1214.51 534.12 1124.83 585.89"/><polygon class="cls-4" points="722.75 353.75 632.43 301.6 722.1 249.82 812.43 301.97 722.75 353.75"/><polygon class="cls-4" points="1124.11 470.24 1033.78 418.09 1123.45 366.31 1213.78 418.47 1124.11 470.24"/><polygon class="cls-4" points="1325.15 586.31 1234.82 534.16 1324.49 482.39 1414.82 534.54 1325.15 586.31"/><polygon class="cls-4" points="923.07 354.17 832.74 302.02 922.41 250.24 1012.74 302.39 923.07 354.17"/><polygon class="cls-4" points="1323.69 355.01 1233.36 302.86 1323.04 251.08 1413.36 303.23 1323.69 355.01"/><polygon class="cls-4" points="1123.38 354.59 1033.05 302.44 1122.73 250.66 1213.05 302.81 1123.38 354.59"/><polygon class="cls-4" points="1324.42 470.66 1234.09 418.51 1323.77 366.73 1414.09 418.89 1324.42 470.66"/><polygon class="cls-4" points="522.44 353.33 432.11 301.18 521.79 249.4 612.11 301.55 522.44 353.33"/><polygon class="cls-4" points="722.75 238.46 632.43 186.31 722.1 134.54 812.43 186.69 722.75 238.46"/><polygon class="cls-4" points="923.07 238.88 832.74 186.73 922.41 134.96 1012.74 187.11 923.07 238.88"/><polygon class="cls-4" points="1123.38 239.3 1033.05 187.15 1122.73 135.38 1213.05 187.53 1123.38 239.3"/><polygon class="cls-4" points="522.44 238.04 432.11 185.89 521.79 134.12 612.11 186.27 522.44 238.04"/><polygon class="cls-4" points="924.52 585.47 834.19 533.32 923.87 481.55 1014.19 533.7 924.52 585.47"/><polygon class="cls-3" points="424.1 642.24 333.78 590.09 423.45 538.32 513.78 590.47 424.1 642.24"/><polygon class="cls-3" points="624.42 642.66 534.09 590.51 623.76 538.74 714.09 590.89 624.42 642.66"/><polygon class="cls-3" points="423.38 526.59 333.05 474.44 422.72 422.67 513.05 474.82 423.38 526.59"/><polygon class="cls-3" points="422.65 410.94 332.32 358.79 421.99 307.02 512.32 359.17 422.65 410.94"/><polygon class="cls-3" points="824.73 643.08 734.4 590.93 824.07 539.16 914.4 591.31 824.73 643.08"/><polygon class="cls-3" points="623.69 527.01 533.36 474.86 623.03 423.09 713.36 475.24 623.69 527.01"/><polygon class="cls-3" points="622.23 295.71 531.91 243.56 621.58 191.79 711.91 243.94 622.23 295.71"/><polygon class="cls-3" points="1024.31 527.85 933.99 475.7 1023.66 423.93 1113.99 476.08 1024.31 527.85"/><polygon class="cls-3" points="1225.35 643.92 1135.03 591.77 1224.7 540 1315.03 592.15 1225.35 643.92"/><polygon class="cls-3" points="823.27 411.78 732.95 359.63 822.62 307.86 912.95 360.01 823.27 411.78"/><polygon class="cls-3" points="822.55 296.13 732.22 243.98 821.89 192.21 912.22 244.36 822.55 296.13"/><polygon class="cls-3" points="822.55 180.82 732.22 128.67 821.89 76.9 912.22 129.05 822.55 180.82"/><polygon class="cls-3" points="1224.63 528.27 1134.3 476.12 1223.97 424.35 1314.3 476.5 1224.63 528.27"/><polygon class="cls-3" points="1023.59 412.2 933.26 360.05 1022.93 308.28 1113.26 360.43 1023.59 412.2"/><polygon class="cls-3" points="1223.17 296.97 1132.84 244.82 1222.52 193.05 1312.84 245.2 1223.17 296.97"/><polygon class="cls-3" points="1223.9 412.62 1133.57 360.47 1223.25 308.7 1313.57 360.85 1223.9 412.62"/><polygon class="cls-3" points="1022.86 296.55 932.53 244.4 1022.2 192.63 1112.53 244.78 1022.86 296.55"/><polygon class="cls-3" points="622.96 411.36 532.63 359.21 622.31 307.44 712.63 359.59 622.96 411.36"/><polygon class="cls-3" points="421.92 295.29 331.59 243.14 421.27 191.37 511.59 243.52 421.92 295.29"/><polygon class="cls-3" points="1025.04 643.5 934.71 591.35 1024.39 539.58 1114.71 591.73 1025.04 643.5"/><polygon class="cls-3" points="824 527.43 733.67 475.28 823.35 423.51 913.67 475.66 824 527.43"/><polygon class="cls-4" points="723.48 469.4 633.15 417.25 722.83 365.47 813.15 417.62 723.48 469.4"/><polygon class="cls-3" points="223.06 526.17 132.74 474.02 222.41 422.25 312.74 474.4 223.06 526.17"/><polygon class="cls-3" points="1424.94 528.69 1334.61 476.54 1424.29 424.77 1514.61 476.92 1424.94 528.69"/></g></svg>