<?xml version="1.0" encoding="UTF-8"?><svg id="Layer_2" xmlns="http://www.w3.org/2000/svg" viewBox="0 0 1644 662"><defs><style>.cls-1{fill:none;}.cls-1,.cls-2,.cls-3,.cls-4,.cls-5{stroke-width:0px;}.cls-6{opacity:.3;}.cls-2{fill:#009c49;}.cls-3{fill:#9fd671;}.cls-4{fill:#00ab3a;}.cls-5{fill:#00492e;}</style></defs><g id="Layer_11"><rect class="cls-1" width="1644" height="662"/><g class="cls-6"><polygon class="cls-5" points="671.79 516.39 772.13 574.32 794.28 561.53 693.94 503.6 671.79 516.39"/><polygon class="cls-4" points="651.05 389.32 601.21 418.09 621.28 429.68 671.12 400.91 651.05 389.32"/><polygon class="cls-5" points="722.3 603.09 822.64 661.03 844.79 648.24 744.45 590.31 722.3 603.09"/><polygon class="cls-5" points="621.28 429.68 721.62 487.62 743.77 474.83 643.43 416.89 621.28 429.68"/><polygon class="cls-2" points="752.06 562.74 702.23 591.51 722.3 603.09 772.13 574.32 752.06 562.74"/><polygon class="cls-2" points="701.56 476.03 651.72 504.8 671.79 516.39 721.62 487.62 701.56 476.03"/><polygon class="cls-4" points="772.87 318.99 822.7 290.22 842.77 301.8 792.94 330.58 772.87 318.99"/><polygon class="cls-5" points="1143.13 360.13 1243.48 418.06 1221.33 430.85 1120.98 372.91 1143.13 360.13"/><polygon class="cls-5" points="842.77 301.8 943.12 359.74 920.97 372.52 820.62 314.59 842.77 301.8"/><polygon class="cls-2" points="1073.23 377.31 1123.06 348.54 1143.13 360.13 1093.3 388.9 1073.23 377.31"/><polygon class="cls-5" points="471.1 400.52 571.44 458.45 593.59 445.67 493.25 387.73 471.1 400.52"/><polygon class="cls-5" points="521.61 487.23 621.95 545.16 644.1 532.37 543.76 474.44 521.61 487.23"/><polygon class="cls-2" points="551.38 446.87 501.54 475.64 521.61 487.23 571.44 458.45 551.38 446.87"/><polygon class="cls-2" points="500.87 360.16 451.03 388.93 471.1 400.52 520.94 371.75 500.87 360.16"/><polygon class="cls-4" points="851.74 505.19 801.9 533.96 821.97 545.55 871.8 516.78 851.74 505.19"/><polygon class="cls-4" points="771.46 458.84 821.3 430.07 801.23 418.48 751.39 447.26 771.46 458.84"/><polygon class="cls-5" points="821.97 545.55 922.31 603.48 944.46 590.7 844.12 532.76 821.97 545.55"/><polygon class="cls-5" points="771.46 458.84 871.8 516.78 893.95 503.99 793.61 446.05 771.46 458.84"/><polygon class="cls-4" points="973.56 434.86 1023.39 406.08 1043.46 417.67 993.63 446.44 973.56 434.86"/><polygon class="cls-4" points="893.28 388.51 843.45 417.28 823.38 405.7 873.21 376.92 893.28 388.51"/><polygon class="cls-5" points="1043.46 417.67 1143.81 475.6 1121.66 488.39 1021.31 430.46 1043.46 417.67"/><polygon class="cls-5" points="893.28 388.51 993.63 446.44 971.48 459.23 871.13 401.3 893.28 388.51"/><polygon class="cls-5" points="743.1 359.35 843.45 417.28 821.3 430.07 720.95 372.14 743.1 359.35"/><polygon class="cls-5" points="943.79 475.22 1044.13 533.15 1021.98 545.94 921.64 488 943.79 475.22"/><polygon class="cls-4" points="451.7 504.41 401.87 533.19 421.94 544.77 471.77 516 451.7 504.41"/><polygon class="cls-5" points="421.94 544.77 522.28 602.71 544.43 589.92 444.09 531.98 421.94 544.77"/><polygon class="cls-4" points="652.39 620.28 602.56 649.05 622.63 660.64 672.46 631.87 652.39 620.28"/><polygon class="cls-4" points="572.12 573.93 621.95 545.16 601.88 533.57 552.05 562.35 572.12 573.93"/><polygon class="cls-5" points="572.12 573.93 672.46 631.87 694.61 619.08 594.27 561.15 572.12 573.93"/><polygon class="cls-4" points="1052.42 621.06 1002.59 649.83 1022.66 661.42 1072.49 632.64 1052.42 621.06"/><polygon class="cls-4" points="972.15 574.71 1021.98 545.94 1001.92 534.35 952.08 563.12 972.15 574.71"/><polygon class="cls-5" points="972.15 574.71 1072.49 632.64 1094.64 619.86 994.3 561.92 972.15 574.71"/><polygon class="cls-4" points="1174.25 550.72 1224.08 521.95 1244.15 533.54 1194.31 562.31 1174.25 550.72"/><polygon class="cls-4" points="1093.97 504.38 1044.13 533.15 1024.07 521.56 1073.9 492.79 1093.97 504.38"/><polygon class="cls-5" points="1093.97 504.38 1194.31 562.31 1172.16 575.1 1071.82 517.17 1093.97 504.38"/><polygon class="cls-2" points="902.24 591.9 852.41 620.67 872.48 632.26 922.31 603.48 902.24 591.9"/><polygon class="cls-2" points="1123.74 464.02 1173.57 435.25 1193.64 446.83 1143.81 475.6 1123.74 464.02"/></g><polygon class="cls-4" points="523.9 584.63 433.57 532.48 523.24 480.71 613.57 532.86 523.9 584.63"/><polygon class="cls-4" points="724.21 585.05 633.88 532.9 723.55 481.13 813.88 533.28 724.21 585.05"/><polygon class="cls-4" points="523.17 468.98 432.84 416.83 522.51 365.05 612.84 417.2 523.17 468.98"/><polygon class="cls-4" points="923.79 469.82 833.47 417.67 923.14 365.89 1013.47 418.04 923.79 469.82"/><polygon class="cls-4" points="1124.83 585.89 1034.51 533.74 1124.18 481.97 1214.51 534.12 1124.83 585.89"/><polygon class="cls-4" points="1124.11 470.24 1033.78 418.09 1123.45 366.31 1213.78 418.47 1124.11 470.24"/><polygon class="cls-4" points="924.52 585.47 834.19 533.32 923.87 481.55 1014.19 533.7 924.52 585.47"/><polygon class="cls-3" points="624.42 642.66 534.09 590.51 623.76 538.74 714.09 590.89 624.42 642.66"/><polygon class="cls-3" points="824.73 643.08 734.4 590.93 824.07 539.16 914.4 591.31 824.73 643.08"/><polygon class="cls-3" points="623.69 527.01 533.36 474.86 623.03 423.09 713.36 475.24 623.69 527.01"/><polygon class="cls-3" points="1024.31 527.85 933.99 475.7 1023.66 423.93 1113.99 476.08 1024.31 527.85"/><polygon class="cls-3" points="823.27 411.78 732.95 359.63 822.62 307.86 912.95 360.01 823.27 411.78"/><polygon class="cls-3" points="1025.04 643.5 934.71 591.35 1024.39 539.58 1114.71 591.73 1025.04 643.5"/><polygon class="cls-3" points="824 527.43 733.67 475.28 823.35 423.51 913.67 475.66 824 527.43"/><polygon class="cls-4" points="723.48 469.4 633.15 417.25 722.83 365.47 813.15 417.62 723.48 469.4"/></g></svg>