<?xml version="1.0" encoding="UTF-8"?><svg id="Layer_2" xmlns="http://www.w3.org/2000/svg" viewBox="0 0 1644 662"><defs><style>.cls-1{fill:none;}.cls-1,.cls-2,.cls-3,.cls-4,.cls-5{stroke-width:0px;}.cls-6{opacity:.3;}.cls-2{fill:#009c49;}.cls-3{fill:#9fd671;}.cls-4{fill:#00ab3a;}.cls-5{fill:#00492e;}</style></defs><g id="Layer_2-2"><rect class="cls-1" width="1644" height="662"/></g><g id="Layer_10"><g class="cls-6"><polygon class="cls-5" points="671.79 516.39 772.13 574.32 794.28 561.53 693.94 503.6 671.79 516.39"/><polygon class="cls-4" points="651.05 389.32 601.21 418.09 621.28 429.68 671.12 400.91 651.05 389.32"/><polygon class="cls-5" points="722.3 603.09 822.64 661.03 844.79 648.24 744.45 590.31 722.3 603.09"/><polygon class="cls-4" points="570.77 342.98 620.61 314.2 600.54 302.62 550.7 331.39 570.77 342.98"/><polygon class="cls-5" points="621.28 429.68 721.62 487.62 743.77 474.83 643.43 416.89 621.28 429.68"/><polygon class="cls-2" points="752.06 562.74 702.23 591.51 722.3 603.09 772.13 574.32 752.06 562.74"/><polygon class="cls-5" points="570.77 342.98 671.12 400.91 693.27 388.12 592.92 330.19 570.77 342.98"/><polygon class="cls-2" points="701.56 476.03 651.72 504.8 671.79 516.39 721.62 487.62 701.56 476.03"/><polygon class="cls-5" points="992.95 330.96 1093.3 388.9 1071.15 401.69 970.8 343.75 992.95 330.96"/><polygon class="cls-4" points="772.87 318.99 822.7 290.22 842.77 301.8 792.94 330.58 772.87 318.99"/><polygon class="cls-5" points="1143.13 360.13 1243.48 418.06 1221.33 430.85 1120.98 372.91 1143.13 360.13"/><polygon class="cls-4" points="692.59 272.64 642.76 301.41 622.69 289.83 672.52 261.06 692.59 272.64"/><polygon class="cls-5" points="842.77 301.8 943.12 359.74 920.97 372.52 820.62 314.59 842.77 301.8"/><polygon class="cls-2" points="1073.23 377.31 1123.06 348.54 1143.13 360.13 1093.3 388.9 1073.23 377.31"/><polygon class="cls-5" points="692.59 272.64 792.94 330.58 770.79 343.36 670.44 285.43 692.59 272.64"/><polygon class="cls-5" points="542.41 243.48 642.76 301.41 620.61 314.2 520.26 256.27 542.41 243.48"/><polygon class="cls-2" points="923.05 348.15 972.88 319.38 992.95 330.96 943.12 359.74 923.05 348.15"/><polygon class="cls-5" points="471.1 400.52 571.44 458.45 593.59 445.67 493.25 387.73 471.1 400.52"/><polygon class="cls-4" points="450.36 273.45 400.52 302.23 420.59 313.81 470.43 285.04 450.36 273.45"/><polygon class="cls-5" points="521.61 487.23 621.95 545.16 644.1 532.37 543.76 474.44 521.61 487.23"/><polygon class="cls-4" points="370.08 227.11 419.92 198.33 399.85 186.75 350.01 215.52 370.08 227.11"/><polygon class="cls-5" points="420.59 313.81 520.94 371.75 543.09 358.96 442.74 301.03 420.59 313.81"/><polygon class="cls-2" points="551.38 446.87 501.54 475.64 521.61 487.23 571.44 458.45 551.38 446.87"/><polygon class="cls-5" points="370.08 227.11 470.43 285.04 492.58 272.25 392.23 214.32 370.08 227.11"/><polygon class="cls-2" points="500.87 360.16 451.03 388.93 471.1 400.52 520.94 371.75 500.87 360.16"/><polygon class="cls-5" points="792.26 215.1 892.61 273.03 870.46 285.82 770.11 227.88 792.26 215.1"/><polygon class="cls-4" points="572.18 203.12 622.02 174.35 642.08 185.94 592.25 214.71 572.18 203.12"/><polygon class="cls-5" points="942.44 244.26 1042.79 302.19 1020.64 314.98 920.29 257.05 942.44 244.26"/><polygon class="cls-4" points="491.9 156.77 442.07 185.55 422 173.96 471.84 145.19 491.9 156.77"/><polygon class="cls-5" points="642.08 185.94 742.43 243.87 720.28 256.66 619.93 198.72 642.08 185.94"/><polygon class="cls-2" points="872.54 261.44 922.38 232.67 942.44 244.26 892.61 273.03 872.54 261.44"/><polygon class="cls-5" points="491.9 156.77 592.25 214.71 570.1 227.5 469.75 169.56 491.9 156.77"/><polygon class="cls-5" points="341.72 127.61 442.07 185.55 419.92 198.33 319.57 140.4 341.72 127.61"/><polygon class="cls-2" points="722.36 232.28 772.2 203.51 792.26 215.1 742.43 243.87 722.36 232.28"/><polygon class="cls-5" points="270.41 284.65 370.76 342.59 392.91 329.8 292.56 271.87 270.41 284.65"/><polygon class="cls-4" points="249.67 157.59 199.83 186.36 219.9 197.95 269.74 169.17 249.67 157.59"/><polygon class="cls-5" points="320.92 371.36 421.26 429.29 443.41 416.51 343.07 358.57 320.92 371.36"/><polygon class="cls-5" points="219.9 197.95 320.25 255.88 342.4 243.09 242.05 185.16 219.9 197.95"/><polygon class="cls-2" points="350.69 331 300.85 359.77 320.92 371.36 370.76 342.59 350.69 331"/><polygon class="cls-2" points="300.18 244.29 250.34 273.07 270.41 284.65 320.25 255.88 300.18 244.29"/><polygon class="cls-5" points="591.58 99.23 691.92 157.16 669.77 169.95 569.43 112.02 591.58 99.23"/><polygon class="cls-5" points="741.76 128.39 842.1 186.32 819.95 199.11 719.61 141.18 741.76 128.39"/><polygon class="cls-2" points="671.85 145.58 721.69 116.8 741.76 128.39 691.92 157.16 671.85 145.58"/><polygon class="cls-2" points="521.67 116.42 571.51 87.64 591.58 99.23 541.74 128 521.67 116.42"/><polygon class="cls-5" points="120.23 255.49 220.58 313.43 242.73 300.64 142.38 242.7 120.23 255.49"/><polygon class="cls-2" points="150 215.13 100.16 243.91 120.23 255.49 170.07 226.72 150 215.13"/><polygon class="cls-4" points="851.74 505.19 801.9 533.96 821.97 545.55 871.8 516.78 851.74 505.19"/><polygon class="cls-4" points="771.46 458.84 821.3 430.07 801.23 418.48 751.39 447.26 771.46 458.84"/><polygon class="cls-5" points="821.97 545.55 922.31 603.48 944.46 590.7 844.12 532.76 821.97 545.55"/><polygon class="cls-5" points="771.46 458.84 871.8 516.78 893.95 503.99 793.61 446.05 771.46 458.84"/><polygon class="cls-4" points="973.56 434.86 1023.39 406.08 1043.46 417.67 993.63 446.44 973.56 434.86"/><polygon class="cls-4" points="893.28 388.51 843.45 417.28 823.38 405.7 873.21 376.92 893.28 388.51"/><polygon class="cls-5" points="1043.46 417.67 1143.81 475.6 1121.66 488.39 1021.31 430.46 1043.46 417.67"/><polygon class="cls-5" points="893.28 388.51 993.63 446.44 971.48 459.23 871.13 401.3 893.28 388.51"/><polygon class="cls-5" points="743.1 359.35 843.45 417.28 821.3 430.07 720.95 372.14 743.1 359.35"/><polygon class="cls-5" points="943.79 475.22 1044.13 533.15 1021.98 545.94 921.64 488 943.79 475.22"/><polygon class="cls-5" points="1192.3 215.87 1292.64 273.81 1270.49 286.6 1170.15 228.66 1192.3 215.87"/><polygon class="cls-4" points="972.21 203.9 1022.05 175.13 1042.12 186.71 992.28 215.49 972.21 203.9"/><polygon class="cls-5" points="1342.48 245.03 1442.82 302.97 1420.67 315.76 1320.33 257.82 1342.48 245.03"/><polygon class="cls-4" points="891.94 157.55 842.1 186.32 822.03 174.74 871.87 145.96 891.94 157.55"/><polygon class="cls-5" points="1042.12 186.71 1142.46 244.65 1120.31 257.43 1019.97 199.5 1042.12 186.71"/><polygon class="cls-2" points="1272.57 262.22 1322.41 233.45 1342.48 245.03 1292.64 273.81 1272.57 262.22"/><polygon class="cls-5" points="891.94 157.55 992.28 215.49 970.13 228.27 869.79 170.34 891.94 157.55"/><polygon class="cls-2" points="1122.39 233.06 1172.23 204.29 1192.3 215.87 1142.46 244.65 1122.39 233.06"/><polygon class="cls-5" points="991.61 100.01 1091.95 157.94 1069.8 170.73 969.46 112.79 991.61 100.01"/><polygon class="cls-4" points="771.52 88.03 821.36 59.26 841.43 70.84 791.59 99.62 771.52 88.03"/><polygon class="cls-5" points="1141.79 129.17 1242.13 187.1 1219.98 199.89 1119.64 141.96 1141.79 129.17"/><polygon class="cls-5" points="841.43 70.84 941.77 128.78 919.62 141.57 819.28 83.63 841.43 70.84"/><polygon class="cls-2" points="1071.88 146.35 1121.72 117.58 1141.79 129.17 1091.95 157.94 1071.88 146.35"/><polygon class="cls-2" points="921.7 117.19 971.54 88.42 991.61 100.01 941.77 128.78 921.7 117.19"/><polygon class="cls-4" points="1172.9 319.77 1222.74 290.99 1242.8 302.58 1192.97 331.35 1172.9 319.77"/><polygon class="cls-4" points="1092.62 273.42 1042.79 302.19 1022.72 290.6 1072.56 261.83 1092.62 273.42"/><polygon class="cls-5" points="1242.8 302.58 1343.15 360.51 1321 373.3 1220.65 315.37 1242.8 302.58"/><polygon class="cls-5" points="1092.62 273.42 1192.97 331.35 1170.82 344.14 1070.47 286.21 1092.62 273.42"/><polygon class="cls-5" points="1291.97 158.33 1392.31 216.26 1370.16 229.05 1269.82 171.12 1291.97 158.33"/><polygon class="cls-5" points="1442.15 187.49 1542.49 245.42 1520.34 258.21 1420 200.28 1442.15 187.49"/><polygon class="cls-2" points="1372.24 204.68 1422.08 175.9 1442.15 187.49 1392.31 216.26 1372.24 204.68"/><polygon class="cls-2" points="1222.06 175.51 1271.9 146.74 1291.97 158.33 1242.13 187.1 1222.06 175.51"/><polygon class="cls-4" points="451.7 504.41 401.87 533.19 421.94 544.77 471.77 516 451.7 504.41"/><polygon class="cls-4" points="371.43 458.07 421.26 429.29 401.2 417.71 351.36 446.48 371.43 458.07"/><polygon class="cls-5" points="421.94 544.77 522.28 602.71 544.43 589.92 444.09 531.98 421.94 544.77"/><polygon class="cls-5" points="371.43 458.07 471.77 516 493.92 503.21 393.58 445.28 371.43 458.07"/><polygon class="cls-2" points="502.21 591.12 452.38 619.89 472.45 631.48 522.28 602.71 502.21 591.12"/><polygon class="cls-5" points="271.76 515.61 372.1 573.55 394.25 560.76 293.91 502.82 271.76 515.61"/><polygon class="cls-4" points="251.02 388.55 201.18 417.32 221.25 428.9 271.08 400.13 251.02 388.55"/><polygon class="cls-5" points="322.27 602.32 422.61 660.25 444.76 647.46 344.42 589.53 322.27 602.32"/><polygon class="cls-4" points="170.74 342.2 220.58 313.43 200.51 301.84 150.67 330.61 170.74 342.2"/><polygon class="cls-5" points="221.25 428.9 321.59 486.84 343.74 474.05 243.4 416.12 221.25 428.9"/><polygon class="cls-2" points="352.03 561.96 302.2 590.73 322.27 602.32 372.1 573.55 352.03 561.96"/><polygon class="cls-5" points="170.74 342.2 271.08 400.13 293.23 387.34 192.89 329.41 170.74 342.2"/><polygon class="cls-2" points="301.52 475.25 251.69 504.02 271.76 515.61 321.59 486.84 301.52 475.25"/><polygon class="cls-5" points="71.07 399.74 171.41 457.68 193.56 444.89 93.22 386.96 71.07 399.74"/><polygon class="cls-4" points="50.33 272.68 .49 301.45 20.56 313.04 70.4 284.26 50.33 272.68"/><polygon class="cls-5" points="121.58 486.45 221.92 544.38 244.07 531.6 143.73 473.66 121.58 486.45"/><polygon class="cls-5" points="20.56 313.04 120.9 370.97 143.05 358.18 42.71 300.25 20.56 313.04"/><polygon class="cls-2" points="151.34 446.09 101.51 474.86 121.58 486.45 171.41 457.68 151.34 446.09"/><polygon class="cls-2" points="100.84 359.38 51 388.16 71.07 399.74 120.9 370.97 100.84 359.38"/><polygon class="cls-4" points="652.39 620.28 602.56 649.05 622.63 660.64 672.46 631.87 652.39 620.28"/><polygon class="cls-4" points="572.12 573.93 621.95 545.16 601.88 533.57 552.05 562.35 572.12 573.93"/><polygon class="cls-5" points="572.12 573.93 672.46 631.87 694.61 619.08 594.27 561.15 572.12 573.93"/><polygon class="cls-5" points="172.09 573.16 272.43 631.09 294.58 618.3 194.24 560.37 172.09 573.16"/><polygon class="cls-2" points="252.36 619.5 202.53 648.28 222.59 659.86 272.43 631.09 252.36 619.5"/><polygon class="cls-2" points="201.85 532.8 152.02 561.57 172.09 573.16 221.92 544.38 201.85 532.8"/><polygon class="cls-5" points="21.91 544 122.25 601.93 144.4 589.14 44.06 531.21 21.91 544"/><polygon class="cls-2" points="51.67 503.64 1.84 532.41 21.91 544 71.74 515.22 51.67 503.64"/><polygon class="cls-4" points="1294.66 620.24 1244.82 649.02 1224.75 637.43 1274.59 608.66 1294.66 620.24"/><polygon class="cls-5" points="1144.48 591.08 1244.82 649.02 1222.67 661.81 1122.33 603.87 1144.48 591.08"/><polygon class="cls-4" points="1052.42 621.06 1002.59 649.83 1022.66 661.42 1072.49 632.64 1052.42 621.06"/><polygon class="cls-4" points="972.15 574.71 1021.98 545.94 1001.92 534.35 952.08 563.12 972.15 574.71"/><polygon class="cls-5" points="972.15 574.71 1072.49 632.64 1094.64 619.86 994.3 561.92 972.15 574.71"/><polygon class="cls-5" points="1394.33 562.7 1494.67 620.63 1472.52 633.42 1372.18 575.49 1394.33 562.7"/><polygon class="cls-4" points="1174.25 550.72 1224.08 521.95 1244.15 533.54 1194.31 562.31 1174.25 550.72"/><polygon class="cls-4" points="1093.97 504.38 1044.13 533.15 1024.07 521.56 1073.9 492.79 1093.97 504.38"/><polygon class="cls-5" points="1244.15 533.54 1344.49 591.47 1322.34 604.26 1222 546.33 1244.15 533.54"/><polygon class="cls-5" points="1093.97 504.38 1194.31 562.31 1172.16 575.1 1071.82 517.17 1093.97 504.38"/><polygon class="cls-2" points="1324.43 579.89 1374.26 551.11 1394.33 562.7 1344.49 591.47 1324.43 579.89"/><polygon class="cls-2" points="902.24 591.9 852.41 620.67 872.48 632.26 922.31 603.48 902.24 591.9"/><polygon class="cls-5" points="1193.64 446.83 1293.99 504.77 1271.84 517.55 1171.49 459.62 1193.64 446.83"/><polygon class="cls-5" points="1343.82 475.99 1444.17 533.93 1422.02 546.71 1321.67 488.78 1343.82 475.99"/><polygon class="cls-2" points="1273.92 493.18 1323.75 464.41 1343.82 475.99 1293.99 504.77 1273.92 493.18"/><polygon class="cls-2" points="1123.74 464.02 1173.57 435.25 1193.64 446.83 1143.81 475.6 1123.74 464.02"/><polygon class="cls-4" points="1494 505.15 1444.17 533.93 1424.1 522.34 1473.93 493.57 1494 505.15"/><polygon class="cls-5" points="1494 505.15 1594.35 563.09 1572.2 575.88 1471.85 517.94 1494 505.15"/><polygon class="cls-4" points="1373.59 435.63 1423.42 406.86 1443.49 418.45 1393.66 447.22 1373.59 435.63"/><polygon class="cls-4" points="1293.31 389.29 1243.48 418.06 1223.41 406.47 1273.24 377.7 1293.31 389.29"/><polygon class="cls-5" points="1443.49 418.45 1543.84 476.38 1521.69 489.17 1421.34 431.24 1443.49 418.45"/><polygon class="cls-5" points="1293.31 389.29 1393.66 447.22 1371.51 460.01 1271.16 402.07 1293.31 389.29"/><polygon class="cls-2" points="1523.77 464.79 1573.6 436.02 1593.67 447.61 1543.84 476.38 1523.77 464.79"/><polygon class="cls-5" points="1392.98 331.74 1493.33 389.68 1471.18 402.46 1370.83 344.53 1392.98 331.74"/><polygon class="cls-5" points="1543.16 360.9 1643.51 418.84 1621.36 431.62 1521.01 373.69 1543.16 360.9"/><polygon class="cls-2" points="1473.26 378.09 1523.1 349.32 1543.16 360.9 1493.33 389.68 1473.26 378.09"/><polygon class="cls-2" points="1323.08 348.93 1372.92 320.15 1392.98 331.74 1343.15 360.51 1323.08 348.93"/><polygon class="cls-5" points="1492.66 274.2 1593 332.13 1570.85 344.92 1470.51 286.98 1492.66 274.2"/><polygon class="cls-2" points="1572.93 320.54 1622.77 291.77 1642.84 303.36 1593 332.13 1572.93 320.54"/><polygon class="cls-2" points="1422.75 291.38 1472.59 262.61 1492.66 274.2 1442.82 302.97 1422.75 291.38"/></g><polygon class="cls-4" points="121.96 583.79 31.63 531.64 121.31 479.86 211.63 532.02 121.96 583.79"/><polygon class="cls-4" points="121.23 468.14 30.9 415.99 120.58 364.21 210.9 416.36 121.23 468.14"/><polygon class="cls-4" points="322.27 584.21 231.95 532.06 321.62 480.28 411.95 532.44 322.27 584.21"/><polygon class="cls-4" points="120.5 352.49 30.18 300.34 119.85 248.56 210.18 300.71 120.5 352.49"/><polygon class="cls-4" points="522.59 584.63 432.26 532.48 521.93 480.71 612.26 532.86 522.59 584.63"/><polygon class="cls-4" points="321.54 468.56 231.22 416.41 320.89 364.63 411.22 416.78 321.54 468.56"/><polygon class="cls-4" points="320.82 352.91 230.49 300.76 320.16 248.98 410.49 301.13 320.82 352.91"/><polygon class="cls-4" points="722.9 585.05 632.57 532.9 722.24 481.13 812.57 533.28 722.9 585.05"/><polygon class="cls-4" points="521.86 468.98 431.53 416.83 521.2 365.05 611.53 417.2 521.86 468.98"/><polygon class="cls-4" points="520.4 237.68 430.08 185.53 519.75 133.75 610.08 185.9 520.4 237.68"/><polygon class="cls-4" points="922.48 469.82 832.16 417.67 921.83 365.89 1012.16 418.04 922.48 469.82"/><polygon class="cls-4" points="1123.52 585.89 1033.2 533.74 1122.87 481.97 1213.2 534.12 1123.52 585.89"/><polygon class="cls-4" points="721.44 353.75 631.12 301.6 720.79 249.82 811.12 301.97 721.44 353.75"/><polygon class="cls-4" points="720.72 238.1 630.39 185.95 720.06 134.17 810.39 186.32 720.72 238.1"/><polygon class="cls-4" points="1122.8 470.24 1032.47 418.09 1122.14 366.31 1212.47 418.47 1122.8 470.24"/><polygon class="cls-4" points="1323.84 586.31 1233.51 534.16 1323.18 482.39 1413.51 534.54 1323.84 586.31"/><polygon class="cls-4" points="921.76 354.17 831.43 302.02 921.1 250.24 1011.43 302.39 921.76 354.17"/><polygon class="cls-4" points="1121.34 238.94 1031.01 186.79 1120.69 135.01 1211.01 187.16 1121.34 238.94"/><polygon class="cls-4" points="1523.42 471.08 1433.1 418.93 1522.77 367.15 1613.1 419.31 1523.42 471.08"/><polygon class="cls-4" points="1322.38 355.01 1232.05 302.86 1321.73 251.08 1412.05 303.23 1322.38 355.01"/><polygon class="cls-4" points="1522.69 355.43 1432.37 303.28 1522.04 251.5 1612.37 303.65 1522.69 355.43"/><polygon class="cls-4" points="1321.65 239.36 1231.33 187.21 1321 135.43 1411.33 187.58 1321.65 239.36"/><polygon class="cls-4" points="1122.07 354.59 1031.74 302.44 1121.41 250.66 1211.74 302.81 1122.07 354.59"/><polygon class="cls-4" points="1323.11 470.66 1232.78 418.51 1322.46 366.73 1412.78 418.89 1323.11 470.66"/><polygon class="cls-4" points="1524.15 586.73 1433.82 534.58 1523.5 482.81 1613.82 534.96 1524.15 586.73"/><polygon class="cls-4" points="921.03 238.52 830.7 186.37 920.37 134.59 1010.7 186.74 921.03 238.52"/><polygon class="cls-4" points="521.13 353.33 430.8 301.18 520.48 249.4 610.8 301.55 521.13 353.33"/><polygon class="cls-4" points="320.09 237.26 229.76 185.11 319.44 133.33 409.76 185.48 320.09 237.26"/><polygon class="cls-4" points="923.21 585.47 832.88 533.32 922.56 481.55 1012.88 533.7 923.21 585.47"/><polygon class="cls-3" points="222.48 641.82 132.15 589.67 221.83 537.9 312.15 590.05 222.48 641.82"/><polygon class="cls-3" points="221.75 526.17 131.43 474.02 221.1 422.25 311.43 474.4 221.75 526.17"/><polygon class="cls-3" points="422.79 642.24 332.47 590.09 422.14 538.32 512.47 590.47 422.79 642.24"/><polygon class="cls-3" points="221.02 410.52 130.7 358.37 220.37 306.6 310.7 358.75 221.02 410.52"/><polygon class="cls-3" points="623.11 642.66 532.78 590.51 622.45 538.74 712.78 590.89 623.11 642.66"/><polygon class="cls-3" points="422.07 526.59 331.74 474.44 421.41 422.67 511.74 474.82 422.07 526.59"/><polygon class="cls-3" points="421.34 410.94 331.01 358.79 420.68 307.02 511.01 359.17 421.34 410.94"/><polygon class="cls-3" points="220.3 294.87 129.97 242.72 219.64 190.95 309.97 243.1 220.3 294.87"/><polygon class="cls-3" points="823.42 643.08 733.09 590.93 822.76 539.16 913.09 591.31 823.42 643.08"/><polygon class="cls-3" points="622.38 527.01 532.05 474.86 621.72 423.09 712.05 475.24 622.38 527.01"/><polygon class="cls-3" points="620.92 295.71 530.6 243.56 620.27 191.79 710.6 243.94 620.92 295.71"/><polygon class="cls-3" points="1023 527.85 932.68 475.7 1022.35 423.93 1112.68 476.08 1023 527.85"/><polygon class="cls-3" points="1224.04 643.92 1133.72 591.77 1223.39 540 1313.72 592.15 1224.04 643.92"/><polygon class="cls-3" points="821.96 411.78 731.64 359.63 821.31 307.86 911.64 360.01 821.96 411.78"/><polygon class="cls-3" points="821.24 296.13 730.91 243.98 820.58 192.21 910.91 244.36 821.24 296.13"/><polygon class="cls-3" points="620.19 180.06 529.87 127.91 619.54 76.14 709.87 128.29 620.19 180.06"/><polygon class="cls-3" points="1223.32 528.27 1132.99 476.12 1222.66 424.35 1312.99 476.5 1223.32 528.27"/><polygon class="cls-3" points="1424.36 644.34 1334.03 592.19 1423.7 540.42 1514.03 592.57 1424.36 644.34"/><polygon class="cls-3" points="1022.28 412.2 931.95 360.05 1021.62 308.28 1111.95 360.43 1022.28 412.2"/><polygon class="cls-3" points="1221.86 296.97 1131.53 244.82 1221.21 193.05 1311.53 245.2 1221.86 296.97"/><polygon class="cls-3" points="1020.82 180.9 930.49 128.75 1020.17 76.98 1110.49 129.13 1020.82 180.9"/><polygon class="cls-3" points="1422.9 413.04 1332.57 360.89 1422.25 309.12 1512.57 361.27 1422.9 413.04"/><polygon class="cls-3" points="1422.17 297.39 1331.85 245.24 1421.52 193.47 1511.85 245.62 1422.17 297.39"/><polygon class="cls-3" points="820.51 180.48 730.18 128.33 819.85 76.56 910.18 128.71 820.51 180.48"/><polygon class="cls-3" points="1222.59 412.62 1132.26 360.47 1221.93 308.7 1312.26 360.85 1222.59 412.62"/><polygon class="cls-3" points="1423.63 528.69 1333.3 476.54 1422.98 424.77 1513.3 476.92 1423.63 528.69"/><polygon class="cls-3" points="1021.55 296.55 931.22 244.4 1020.89 192.63 1111.22 244.78 1021.55 296.55"/><polygon class="cls-3" points="621.65 411.36 531.32 359.21 621 307.44 711.32 359.59 621.65 411.36"/><polygon class="cls-3" points="420.61 295.29 330.28 243.14 419.96 191.37 510.28 243.52 420.61 295.29"/><polygon class="cls-3" points="1023.73 643.5 933.4 591.35 1023.08 539.58 1113.4 591.73 1023.73 643.5"/><polygon class="cls-3" points="822.69 527.43 732.36 475.28 822.04 423.51 912.36 475.66 822.69 527.43"/><polygon class="cls-4" points="722.17 469.4 631.84 417.25 721.52 365.47 811.84 417.62 722.17 469.4"/></g></svg>